<svg version="1.1" id="Layer_1" xmlns="http://www.w3.org/2000/svg" x="0" y="0" viewBox="0 0 2500 2141" xml:space="preserve"><style>.st1{fill:#fff}</style><path d="M390.8 1595l-28.1 66.2h57.2l-29.1-66.2m87.1 147c-4.5 0-9.1-.9-13.6-.9s-9.1.9-13.6.9c-7.3-21.8-17.2-46.3-27.2-69.9h-65.3c-9.1 22.7-19.1 45.4-25.4 69.9-3.6 0-6.4-.9-10-.9-3.6 0-6.4.9-9.1.9l80.8-181.5h6.4l77 181.5zM501.5 1706.6c10 16.3 21.8 27.2 41.7 27.2 20.9 0 36.3-17.2 36.3-38.1 0-48.1-80.8-27.2-80.8-85.3 0-33.6 26.3-49.9 57.2-49.9 12.7 0 27.2 4.5 37.2 12.7-2.7 7.3-4.5 13.6-7.3 21.8h-2.7c-5.4-13.6-16.3-22.7-31.8-22.7-18.2 0-32.7 11.8-32.7 30.9 0 48.1 81.7 28.1 81.7 83.5 0 37.2-29 59-64.4 59-12.7 0-33.6-5.4-41.7-15.4 2.7-7.3 4.5-15.4 4.5-22.7l2.8-1M696.6 1742.9c-4.5 0-7.3-.9-10.9-.9-4.5 0-7.3.9-11.8.9v-165.2c-26.3 0-41.7 1.8-56.3 2.7 0-2.7.9-5.4.9-7.3 0-2.7-.9-4.5-.9-7.3H751c0 2.7-.9 5.4-.9 7.3 0 2.7.9 5.4.9 7.3-12.7-1.8-30.9-2.7-53.5-2.7v165.2M909.9 1595c-12.7-16.3-33.6-24.5-53.5-24.5-45.4 0-73.5 34.5-73.5 87.1s31.8 79.9 70.8 79.9c54.5 0 74.4-56.3 72.6-85.3-.1-22.8-3.7-40-16.4-57.2m-152.5 58c0-56.3 41.7-92.6 96.2-92.6 48.1 0 98 26.3 98 88.9 0 57.2-40.8 95.3-98.9 95.3-57.2.1-95.3-36.2-95.3-91.6zM1137.7 1742h-7.3c-2.7-3.6-8.2-10-13.6-16.3l-112.5-123.4h-2.7V1742c-2.7 0-4.5-.9-7.3-.9s-4.5.9-7.3.9v-177h10l123.4 133.4h2.7V1565c1.8 0 4.5.9 7.3.9s4.5-.9 7.3-.9v177M1431.7 1565c7.3 64.4 13.6 128 20.9 177-4.5 0-8.2-.9-12.7-.9s-8.2.9-12.7.9c-4.5-51.7-10-108-12.7-133.4-29.9 53.5-52.6 94.4-68.1 130.7h-2.7l-14.5-29c-16.3-33.6-34.5-68.1-52.6-101.6-5.4 50.8-12.7 101.6-12.7 133.4-3.6 0-6.4-.9-9.1-.9-3.6 0-6.4.9-9.1.9 7.3-41.7 21.8-149.7 24.5-177h7.3c20.9 41.7 45.4 89.8 73.5 135.2 24.5-44.5 48.1-88.9 74.4-135.2h6.3M1547 1595l-28.1 66.2h56.3L1547 1595m87.1 147c-4.5 0-9.1-.9-13.6-.9s-9.1.9-13.6.9c-7.3-21.8-17.2-46.3-27.2-69.9h-65.3c-9.1 22.7-19.1 45.4-25.4 69.9-3.6 0-6.4-.9-10-.9s-6.4.9-9.1.9l80.8-181.5h6.4l77 181.5zM1684.9 1645.8c4.5 0 20 1.8 33.6-1.8 19.1-4.5 33.6-16.3 33.6-37.2 0-18.2-9.1-29.9-28.1-32.7-10-1.8-27.2-.9-38.1 0l-1 71.7m-22.7-80.8h54.4c39.9 0 57.2 12.7 57.2 39 0 30.9-27.2 44.5-53.5 49l53.5 68.1 12.7 14.5 4.5 6.4c-5.4 0-10-.9-15.4-.9s-10 .9-14.5.9c-5.4-8.2-10.9-15.4-16.3-22.7l-30.9-39-20.9-24.5h-9.1v86.2c-4.5 0-7.3-.9-10.9-.9-4.5 0-7.3.9-11.8.9l1-177zM1870.9 1742.9c-4.5 0-7.3-.9-11.8-.9s-7.3.9-11.8.9v-165.2c-26.3 0-41.7 1.8-56.3 2.7 0-2.7.9-5.4.9-7.3 0-2.7-.9-4.5-.9-7.3h133.4c0 2.7-.9 5.4-.9 7.3 0 2.7.9 5.4.9 7.3-12.7-1.8-30.9-2.7-53.5-2.7v165.2M1955.3 1565c4.5 0 7.3.9 11.8.9 3.6 0 7.3-.9 11.8-.9v177c-4.5 0-7.3-.9-11.8-.9s-7.3.9-11.8.9v-177M2178.6 1742h-7.3c-2.7-3.6-8.2-10-12.7-16.3l-112.5-123.4h-2.7V1742c-2.7 0-4.5-.9-7.3-.9-2.7 0-4.5.9-7.3.9v-177h10l123.4 133.4h2.7V1565c1.8 0 4.5.9 7.3.9s4.5-.9 7.3-.9l-.9 177"/><g><linearGradient id="SVGID_1_" gradientUnits="userSpaceOnUse" x1="742.908" y1="1328.946" x2="1751.141" y2="1328.946" gradientTransform="translate(0 -519.89)"><stop offset="0" stop-color="#396"/><stop offset="1" stop-color="#004f32"/></linearGradient><path fill="url(#SVGID_1_)" d="M742.9 735.5h1008.2v147H742.9z"/><path d="M2471.7 682.9c0 .9-18.1 29.9-18.1 29.9-3.6 5.4-5.4 8.2-19.1 9.1h-549c6.4-10 10.9-20 16.3-28.1 0 0 20-35.4 53.5-35.4h502.8c5.4 0 12.7.9 16.3 7.3.9.9 1.8 2.7 1.8 5.4-.9 3.6-1.8 7.3-4.5 11.8m-67.2 59.9l-19.1 33.6c-2.7 4.5-7.3 12.7-19.1 17.2-10 2.7-31.8.9-39 0l-466.5-30.9c6.4-9.1 11.8-18.1 16.3-25.4h531.8c-2.5 1-3.5 3.7-4.4 5.5zm-79.8 73.5s-19.1 32.7-21.8 39c-.9 1.8-6.4 7.3-23.6 4.5L1831.9 800c6.4-8.2 11.8-16.3 17.2-23.6l474.6 30.9c.9 0 2.7 0 5.4.9-.8 2.7-2.6 5.4-4.4 8.1zm-154.3 87.1c-17.2 4.5-49.9-.9-60.8-2.7 0 0-210.5-42.7-306.7-62.6 7.3-7.3 12.7-16.3 19.1-23.6l448.3 59.9-99.9 29zm-151.5 45.4c-21.8 5.4-49.9-3.6-50.8-3.6l-206-63.5c10-10 20-20.9 29-30.9l314.9 65.3c.9 0 7.3 1.8 16.3 2.7l-103.4 30zM1858.2 996c-14.5 4.5-36.3-4.5-42.7-8.2 0 0-55.4-25.4-111.6-51.7 17.2-13.6 33.6-28.1 48.1-41.7l213.3 65.3c.9 0 4.5 1.8 10 2.7L1858.2 996zm-33.6 31.8c-6.4 16.3-12.7 32.7-56.3 48.1-18.2 5.4-39-10-39-10s-49-34.5-104.4-74.4c21.8-13.6 44.5-29 65.3-45.4l118 55.4c.9.9 12.7 6.4 27.2 9.1-6.2 7.2-9.8 15.3-10.8 17.2zm-164.2 78.9l-16.3 4.5c-13.6 3.6-30.9-10-36.3-16.3 0 0-27.2-27.2-60.8-62.6 21.8-10 42.7-20.9 63.5-33.6l108.9 78c.9 0 7.3 4.5 16.3 9.1-24.5 7.3-75.3 20.9-75.3 20.9zm-144.3 39.9c-11.8 1.8-24.5-17.2-28.1-24.5l-33.6-56.3c27.2-7.3 53.5-17.2 79-27.2l64.4 67.2c.9.9 7.3 7.3 18.2 13.6l-99.9 27.2zm-109.8 30c-7.3 1.8-14.5.9-20-2.7-11.8-7.3-16.3-24.5-16.3-25.4l-16.3-60.8c29.9-4.5 58.1-10 85.3-17.2l34.5 59c1.8 1.8 8.2 14.5 19.1 22.7l-86.3 24.4zm-70.8-21.8s-47.2-45.4-62.6-59.9c21.8-.9 44.5-1.8 65.3-4.5l17.2 62.6c.9 1.8 4.5 16.3 12.7 26.3-11.7-4.5-15.4-8.2-32.6-24.5zm-81.7-73.5V892.5h30.9l50.8 184.2c-27.2 1.9-53.5 4.6-81.7 4.6zm-96.2-5.4l50.8-184.2h30.9v188.8c-27.2.8-54.4-1.9-81.7-4.6zm-12.7 90.7c-7.3 6.4-13.6 10-21.8 11.8 10-10 12.7-24.5 12.7-26.3l17.2-62.6c21.8 2.7 43.6 4.5 65.3 4.5-16.2 18.2-73.4 72.6-73.4 72.6zm-22.7-18.1s-4.5 18.2-16.3 25.4c-5.4 3.6-12.7 4.5-20 2.7l-87.1-23.6c10.9-8.2 18.1-20.9 19.1-23.6 0 0 14.5-24.5 34.5-59 28.1 7.3 56.3 12.7 86.2 17.2l-16.4 60.9zm-145.2-1.9l-99.8-27.2c10-6.4 17.2-12.7 18.2-13.6 0 0 28.1-29.9 64.4-67.2 25.4 10.9 51.7 20 79 27.2l-32.7 55.4c-3.6 9.1-17.3 27.3-29.1 25.4zm-127.9-34.4l-91.7-24.5c9.1-4.5 15.4-8.2 16.3-9.1 0 0 50.8-36.3 108.9-78 20.9 12.7 41.7 23.6 63.5 33.6l-60.8 62.6c-5.4 4.5-21.7 19-36.2 15.4zm-124.3-35.4c-43.6-16.3-50.8-32.7-56.3-48.1-.9-1.8-3.6-10-10.9-18.1 14.5-2.7 27.2-9.1 27.2-9.1s59-27.2 118-55.4c21.8 16.3 43.6 31.8 65.3 45.4l-103.5 74.4c-.8.9-22.6 16.3-39.8 10.9zM634.9 996c-4.5-1.8-53.5-16.3-116.2-33.6 6.4-1.8 10-2.7 10-2.7s172.4-53.5 213.3-65.3c14.5 14.5 30.9 28.1 48.1 42.7l-111.6 51.7c-7.3 1.8-29.1 10.8-43.6 7.2zm-160.6-47.2c-33.6-10-70.8-20.9-104.4-30.9 9.1-1.8 16.3-2.7 16.3-2.7s222.3-45.4 314.9-65.3c9.1 10 19.1 20.9 29 30.9l-206 63.5c.1 0-28 10-49.8 4.5zm-151.6-45.4c-46.3-13.6-84.4-24.5-99.8-29l448.3-59.9c6.4 7.3 12.7 16.3 19.1 23.6l-307.6 62.6c-11 2.7-43.6 7.3-60 2.7zm-108.9-42.6c-17.2 1.8-21.8-3.6-23.6-4.5l-21.8-39c-1.8-2.7-3.6-5.4-5.4-7.3 2.7 0 480.1-31.8 480.1-31.8 5.4 7.3 10.9 16.3 17.2 23.6l-446.5 59zm-86.2-67.2c-12.7-4.5-16.3-12.7-19.1-17.2-7.3-12.7-18.2-33.6-23.6-39h531.8c5.4 8.2 10.9 16.3 16.3 25.4l-466.5 30.9c-7.1.8-28.9 2.7-38.9-.1zm-68-70.8c-12.7-.9-15.4-2.7-19.1-9.1 0 0-16.3-27.2-18.2-29.9-2.7-4.5-3.6-9.1-3.6-11.8 0-7.3 4.5-12.7 17.2-12.7h502.8c33.6 0 53.5 35.4 53.5 35.4 4.5 8.2 10 18.2 16.3 28.1H59.6zm983.7-63.5c23.6 0 41.7 7.3 55.4 20 10 10 16.3 21.8 20 38.1 0 0 .9 2.7 1.8 4.5H625.8c-7.3-12.7-20-35.4-20-35.4-.9-.9-9.1-16.3-24.5-27.2h462zm717.8 96.2v-19.1h98c-4.5 7.3-10 16.3-16.3 24.5l-81.7-5.4zm0 35.4v-20l71.7 4.5c-5.4 7.3-10.9 15.4-16.3 22.7l-55.4-7.2zm0 38.1v-22.7l44.5 5.4c-6.4 7.3-12.7 15.4-19.1 21.8-11.8-1.8-19.9-3.6-25.4-4.5zm0 14.5l14.5 2.7c-4.5 4.5-10 10-14.5 16.3v-19zm-150.6 49h120.7c-12.7 12.7-41.7 36.3-41.7 36.3-30-13.6-59.1-27.2-79-36.3zm-125.3 0h90.8l99.8 46.3c-20.9 16.3-41.7 30.9-63.5 43.6-49-34.5-98.9-70.8-127.1-89.9zm-72.6 0h48.1l137.9 98c-20 11.8-40.8 21.8-61.7 30.9-46.2-47.2-99.8-103.4-124.3-128.9zm-61.7 0h41.7l129.8 135.2c-24.5 10-49.9 19.1-75.3 26.3l-96.2-161.5zm-17.2 0l98 166.1c-27.2 7.3-53.5 12.7-82.6 16.3l-50.8-181.5h35.4v-.9zm-174.2 0h34.5l-50.8 181.5c-28.1-4.5-55.4-9.1-82.6-16.3 37.1-61.7 86.1-145.2 98.9-165.2zm-58.1 0h41.7l-95.3 161.5c-26.3-7.3-50.8-16.3-75.3-26.3 50.8-54.4 113.4-119.7 128.9-135.2zm-69 0h48.1l-124.3 128.9c-20.9-9.1-41.7-20-61.7-30.9 59.9-43.5 122.5-87.1 137.9-98zm-227.8 36.3c-.9-.9-29.9-24.5-41.7-36.3h120.7l-79 36.3zm112.5-36.3h89.8l-126.1 90.8c-21.8-12.7-42.7-27.2-63.5-43.6 47.2-23.6 91.7-44.4 99.8-47.2zm-184.2-49v19.1c-4.5-4.5-10-10-14.5-15.4 5.5-1.8 10-2.8 14.5-3.7zm0-37.2V829l-25.4 4.5c-6.4-7.3-12.7-15.4-19.1-21.8l44.5-5.4zm0-35.4v20l-54.5 7.3c-6.4-7.3-11.8-15.4-17.2-22.7l71.7-4.6zm0-15.4l-81.7 5.4c-6.4-8.2-11.8-16.3-16.3-24.5h98v19.1zM747.4 878V737.4h999.2V878H747.4zm627.1-159.7c3.6-16.3 10-28.1 20-38.1 12.7-13.6 31.8-20 55.4-20h462.8c-16.3 11.8-24.5 27.2-24.5 27.2-5.4 10-12.7 21.8-20 35.4h-494.6c0-1.8.9-4.5.9-4.5zm1115.3-61.7c-9.1-14.5-24.5-16.3-31.8-16.3H1449.9c-28.1 0-51.7 8.2-68.1 25.4-12.7 12.7-20.9 28.1-24.5 47.2 0 .9-1.8 4.5-10 4.5h-199.7c-8.2 0-10-4.5-10-4.5-4.5-19.1-12.7-35.4-24.5-47.2-17.2-17.2-39.9-25.4-68.1-25.4H35.1c-6.4 0-21.8 1.8-30.9 16.3-4.5 7.3-7.3 19.1 1.8 36.3l19.1 30.9c7.3 12.7 16.3 16.3 34.5 18.2 0 0 9.1.9 14.5 10.9l19.1 33.6c4.5 7.3 12.7 25.4 45.4 29.9.9 0 10 1.8 15.4 10.9l23.6 40.8c7.3 12.7 16.3 18.2 33.6 23.6l422 123.4c14.5 4.5 20 20.9 20 20.9 10 26.3 23.6 48.1 88.9 67.2l344.9 94.4c4.5 1.8 43.6 12.7 73.5-15.4l80.8-77.1s3.6-3.6 8.2-3.6 8.2 3.6 8.2 3.6l80.8 77.1c29.9 28.1 69 16.3 74.4 15.4 0 0 343.9-94.4 344.9-94.4 65.3-20 79.9-41.7 88.9-67.2.9-1.8 6.4-16.3 20-20.9 0 0 63.5-19.1 422-123.4 17.2-5.4 27.2-10 33.6-23.6l22.7-40.8c5.4-10 14.5-10.9 15.4-10.9 32.7-4.5 41.7-21.8 45.4-29.9l19.1-33.6c5.4-10 14.5-10.9 14.5-10.9 18.1-1.8 27.2-5.4 33.6-18.2l19.1-30.9c3.6-7.3 5.4-13.6 5.4-20.9-4-6.3-4.9-10.9-7.7-15.4z"/><path class="st1" d="M794.6 810.9c.9-1.8 11.8-28.1 12.7-30.9 1.8 2.7 12.7 29.9 12.7 30.9h-25.4m19.1-51.8h-4.5l-42.7 95.3h11.8v-.9c3.6-11.8 8.2-22.7 12.7-33.6l.9-1.8h33.6c4.5 10 9.1 21.8 13.6 36.3v.9h16.3l-41.7-96.2zM859.1 848.1c5.4 5.4 17.2 8.2 22.7 8.2 20 0 33.6-12.7 33.6-30.9 0-15.4-11.8-20-22.7-24.5-10-4.5-19.1-7.3-19.1-19.1 0-8.2 7.3-15.4 16.3-15.4 7.3 0 12.7 4.5 16.3 10.9v.9h2.7l4.5-11.8-.9-.9c-5.4-4.5-13.6-7.3-19.1-7.3-19.1 0-30.9 10-30.9 26.3s12.7 21.8 23.6 25.4c10 3.6 19.1 7.3 19.1 19.1 0 10-8.2 19.1-18.1 19.1-9.1 0-15.4-4.5-20.9-13.6v-.9h-3.6l-3.5 14.5M991.6 761.9h-70.8v10h.9c8.2-.9 16.3-1.8 28.1-1.8v85.3h12.7v-85.3c10 0 19.1.9 27.2 1.8h.9l1-10M1064.2 839.9c-7.3 7.3-15.4 10-24.5 10-21.8 0-36.3-16.3-36.3-40.8 0-27.2 14.5-44.5 37.2-44.5 10.9 0 21.8 4.5 27.2 12.7 7.3 9.1 8.2 18.2 8.2 29v1.8c.9 10-2.8 22.7-11.8 31.8m-24.5-80.8c-29.9 0-50.8 20-50.8 49s20 48.1 50.8 48.1c30.9 0 51.7-20 51.7-50.8 0-31.7-26.3-46.3-51.7-46.3zM1185.8 761.9h-8.2v69c-.9-.9-64.4-69-64.4-69h-6.4v93.5h9.1v-72.6c.9.9 58.1 64.4 58.1 64.4l7.3 8.2h4.5v-93.5M1336.4 761.9h-3.6l-22.7 41.7s-14.5 26.3-16.3 28.1c-13.6-23.6-26.3-48.1-37.2-69v-.9h-4.5v.9c-1.8 13.6-9.1 69.9-12.7 91.7v.9h10.9v-.9c0-12.7 2.7-32.7 4.5-53.5 0 0 .9-9.1 1.8-12.7 1.8 2.7 19.1 36.3 25.4 50.8l7.3 16.3h2.7v-.9c7.3-18.2 19.1-39 33.6-65.3 1.8 16.3 4.5 48.1 6.4 67.2v.9h14.5v-.9c-2.8-25.5-6.5-54.5-10.1-94.4M1381.8 810.9c.9-1.8 11.8-28.1 12.7-30.9 1.8 2.7 12.7 29.9 13.6 30.9h-26.3m19-51.8h-4.5l-42.7 95.3h11.8v-.9c3.6-11.8 8.2-22.7 12.7-33.6l.9-1.8h33.6c4.5 10 9.1 21.8 13.6 36.3v.9h16.3l-41.7-96.2zM1462.6 803.6v-35.4c5.4 0 13.6-.9 19.1 0 10 1.8 14.5 7.3 14.5 16.3 0 9.1-6.4 16.3-16.3 19.1h-17.3m19.9 4.5c17.2-3.6 27.2-12.7 27.2-26.3 0-14.5-10-21.8-30.9-21.8h-29v93.5h12.7v-45.4h3.6c.9.9 10.9 12.7 10.9 12.7l16.3 20.9 9.1 11.8H1520.5c-.8.9-36.2-42.6-38-45.4zM1586.9 761.9h-70.8v10h.9c8.2-.9 16.3-1.8 28.1-1.8v85.3h12.7v-85.3c10 0 19.1.9 27.2 1.8h.9l1-10M1599.6 761.9h12.7v93.5h-12.7zM1703 761.9v69c-.9-.9-63.5-69-63.5-69h-6.4v93.5h9.1v-72.6c.9.9 58.1 64.4 58.1 64.4l7.3 8.2h5.4v-93.5h-10"/></g></svg>