<svg xmlns="http://www.w3.org/2000/svg" viewBox="0 0 553.742 507.803"><g transform="translate(-16.853 0)"><path data-name="Path 1" d="M67.064,452.8h3.085c62.216-5.849,119.3-28.891,165.787-73.1,41.014-39,68.652-92.04,69.213-152.389.872-94.485-55.977-182.914-178.52-218.763l8.96-7.475,1.341.394,3.518,1.038,3.685,1.126,3.786,1.214,3.908,1.3,4.009,1.4,4.075,1.5,4.25,1.6,4.294,1.709,4.4,1.823,4.473,1.937,4.513,2.059,4.635,2.182,4.627,2.309,4.754,2.445,4.728,2.576,4.741,2.721,4.806,2.861,4.8,3.014,4.855,3.163,4.85,3.325,4.784,3.483,1.735,1.293,1.731,1.314,1.788,1.332,1.717,1.358,1.735,1.376,1.735,1.393,1.687,1.42,1.713,1.437L245,58.641l1.735,1.481,1.713,1.512,1.687,1.529,1.678,1.555L253.54,66.3l1.665,1.6,1.682,1.625,1.682,1.652,1.652,1.674,1.691,1.7,1.621,1.726,1.665,1.753,1.617,1.779,1.625,1.805,1.608,1.827,1.612,1.862,1.555,1.884,1.569,1.915,1.569,1.941,1.551,1.972,1.569,2,1.5,2.024,1.507,2.055,2.283,3.207,2.283,3.264,2.191,3.321,2.173,3.378,2.121,3.444,2.055,3.5,2.015,3.558,1.95,3.619,1.9,3.689,1.845,3.75,1.77,3.816,1.731,3.882,1.625,3.952,1.56,4.018,1.512,4.088,1.433,4.158,1.363,4.232,1.275,4.3,1.222,4.381,1.113,4.456,1,4.53.951,4.609.846,4.684.78,4.763.675,4.846.548,4.929.508,5.012.329,5.091.276,5.179.184,5.262.044,5.35L324,234.8l-.061,2.791-.123,2.743-.11,2.7-.105,2.655-.171,2.616-.219,2.576-.219,2.541-.228,2.5-.276,2.476-.28,2.44-.346,2.41-.32,2.379-.39,2.362-.4,2.331-.434,2.313-.46,2.287-.438,2.278-.513,2.261-.482,2.243-.57,2.23-.548,2.221-.622,2.208-.609,2.208-.618,2.2-.679,2.2-.653,2.2-.727,2.2-.732,2.2-.727,2.2-.762,2.208-.793,2.217-.832,2.226-2.235,5.722-2.353,5.643-2.563,5.569-2.681,5.49-2.787,5.415-2.957,5.332-3.128,5.253L287.619,354l-3.343,5.087-3.518,5L277.121,369l-3.724,4.824-3.851,4.736-4.013,4.64-4.07,4.552-4.2,4.456-4.289,4.359-4.4,4.263-4.526,4.162-4.583,4.057-4.671,3.961-4.745,3.856-4.85,3.746-4.912,3.641-5.017,3.54-5.082,3.422-5.122,3.312-5.24,3.2-5.253,3.085-5.354,2.971-5.367,2.852-5.459,2.73-4.123,2L170.1,453.29l-4.2,1.853-4.184,1.774-4.175,1.7-4.237,1.634-4.2,1.555-4.184,1.49-4.18,1.415-4.171,1.349-4.184,1.275-4.2,1.2-4.123,1.135-4.127,1.065-4.123,1-4.066.924-4.079.859-4.066.789-4.018.723-4.018.653-3.961.591-3.9.517-3.9.456-3.869.412-3.86.329-3.737.259-3.75.193-1.516.057V452.8Z" transform="translate(226.769 3.632)" fill="#59595b" fill-rule="evenodd"/><path data-name="Path 2" d="M196.808,1.074l8.956,7.475C83.225,44.4,26.372,132.827,27.244,227.311,27.8,287.661,55.443,340.7,96.457,379.7c46.487,44.208,103.567,67.25,165.787,73.1h3.085v25.7l-1.516-.057-3.75-.193-3.737-.258-3.86-.329-3.847-.386-3.9-.456-3.9-.517-3.961-.592-4.018-.653-4.018-.723-4.062-.789-4.079-.859-4.07-.924-4.123-1-4.127-1.065-4.123-1.135-4.2-1.2-4.184-1.275-4.175-1.349-4.175-1.415-4.184-1.49-4.2-1.555-4.237-1.634-4.175-1.7-4.184-1.774-4.2-1.853-4.175-1.923-4.123-2-5.464-2.73-5.363-2.852-5.35-2.971-5.253-3.085-5.24-3.2-5.122-3.312-5.087-3.422-5.012-3.54-4.916-3.641-4.85-3.746-4.745-3.856-4.675-3.961-4.583-4.057-4.526-4.162-4.4-4.263-4.289-4.359-4.2-4.456-4.07-4.552-4.013-4.64-3.847-4.736-3.724-4.824-3.641-4.916-3.514-5L44.8,354.021l-3.229-5.17L38.443,343.6l-2.957-5.332-2.791-5.415-2.681-5.49-2.563-5.569L25.1,316.148l-2.23-5.722-.837-2.226-.789-2.217-.762-2.217-.732-2.2-.732-2.2-.727-2.2-.653-2.2-.683-2.2-.613-2.2-.6-2.208-.622-2.208-.548-2.23-.57-2.23-.482-2.243L13,277.2l-.434-2.278-.46-2.287-.434-2.313-.4-2.331-.386-2.362-.324-2.379-.342-2.41-.28-2.44-.276-2.475-.237-2.5L9.2,250.883l-.219-2.576-.171-2.616-.105-2.655-.11-2.7-.123-2.743L8.413,234.8l-.048-5.437.048-5.35.184-5.262.276-5.179.333-5.091.508-5.012.548-4.929.675-4.846.776-4.763.85-4.684.951-4.609,1-4.53,1.113-4.456,1.222-4.381,1.275-4.3,1.363-4.232,1.433-4.158,1.512-4.088,1.555-4.018,1.625-3.952,1.735-3.882,1.77-3.816,1.845-3.75,1.9-3.689,1.95-3.615,2.015-3.558,2.05-3.5,2.121-3.444,2.178-3.378,2.191-3.321,2.278-3.264L49.922,99.1l1.507-2.055,1.5-2.024,1.569-2,1.551-1.972,1.569-1.941L59.185,87.2l1.555-1.884,1.617-1.862,1.612-1.827,1.625-1.805,1.617-1.779,1.661-1.753L70.5,74.563l1.687-1.7,1.652-1.674,1.687-1.652L77.2,67.908l1.665-1.6L80.6,64.727l1.674-1.555,1.687-1.529,1.718-1.512L87.41,58.65l1.735-1.463,1.713-1.437,1.682-1.42,1.735-1.393,1.735-1.376L97.723,50.2l1.788-1.332,1.735-1.314,1.735-1.293,4.78-3.483,4.855-3.325,4.855-3.163,4.8-3.014,4.806-2.865,4.741-2.721,4.728-2.576L141.3,22.67l4.627-2.309,4.635-2.182,4.513-2.059,4.473-1.937,4.4-1.823,4.3-1.709,4.25-1.6,4.075-1.5,4.009-1.4,3.9-1.3,3.79-1.214,3.685-1.126,3.518-1.038,1.332-.4Z" transform="translate(28.285 3.632)" fill="#808183" fill-rule="evenodd"/><path data-name="Path 3" d="M67.064,482.492h.188c33.728-1.266,73.336-10.555,111.292-29.141,58.338-28.567,108.488-77.686,131.31-139.166,8.868-23.857,13.946-45.7,14.516-75.741,1.161-58.566-16.86-101.959-41.566-135.933a245.965,245.965,0,0,0-53.159-52.918C195.334,24.2,160.129,11.37,135.926,4.425l.131-.11L149.421,0c.136-.044,69.4,14.581,124.891,68.661,40.5,39.468,73.945,102.143,69.033,187.966C339.161,329.818,298.677,402,232.97,450.231c-43.993,32.291-99.16,54-162.8,57.571h-3.1V482.492h0Z" transform="translate(226.769 0)" fill="#929496" fill-rule="evenodd"/><path data-name="Path 4" d="M198.251,0l13.363,4.311.131.11c-24.2,6.944-59.4,19.782-93.718,45.168a246.063,246.063,0,0,0-53.159,52.918C40.161,136.48,22.145,179.874,23.306,238.44c.57,30.043,5.648,51.884,14.516,75.741,22.823,61.48,72.963,110.613,131.31,139.166,37.956,18.6,77.564,27.874,111.292,29.141h.188V507.8h-3.1c-63.64-3.566-118.81-25.281-162.8-57.571C49,402,8.515,329.818,4.326,256.627-.581,170.8,32.866,108.124,73.359,68.661,128.858,14.581,198.115-.044,198.251,0Z" transform="translate(13.007 0)" fill="#bbbcbf" fill-rule="evenodd"/><path data-name="Path 5" d="M223.79,290.859l2.327-.67,2.471-.71,2.624-.745,2.778-.789,2.909-.828,3.041-.863,3.159-.9,3.26-.938,3.361-.964,3.444-1,3.523-1.03,3.584-1.052,3.645-1.078,3.689-1.1,3.729-1.126,3.75-1.144,3.764-1.161,3.777-1.179,3.768-1.192,3.759-1.214,3.733-1.218,3.7-1.231,3.658-1.24,3.606-1.253,3.54-1.253,3.47-1.262,3.4-1.257,3.308-1.271,3.2-1.266,3.093-1.266,2.984-1.271,2.844-1.266,1.529-.7,1.481-.71,1.433-.714,1.389-.719,1.345-.723,1.3-.727,1.244-.727,1.2-.727,1.148-.736,1.1-.732,1.056-.745,1-.745.955-.749.911-.767.854-.78.784-.771.946-1.008.9-1,.859-1.017.828-1.038.8-1.056.767-1.082.732-1.1.7-1.13.662-1.152.635-1.174.6-1.2.565-1.227.535-1.249.5-1.279.464-1.3.447-1.328.412-1.363.381-1.38.355-1.406.337-1.45.307-1.477.285-1.512.267-1.547.25-1.586.223-1.63.21-1.665.188-1.709.18-1.757.162-1.805.149-1.858.136-1.9.127-1.95,5.718-95.151L401.7,51.088,212.811,29.917,23.929,51.088l31.642,53.773,5.713,95.151.123,1.95.14,1.9.149,1.858.162,1.805.175,1.757.193,1.709.21,1.665.228,1.63.245,1.586.263,1.547.289,1.512.307,1.481.337,1.45.355,1.4.386,1.38.412,1.363.443,1.332.469,1.3.5,1.275.53,1.249.57,1.227.6,1.2L69,234.76l.662,1.152.7,1.13.736,1.108.762,1.078.8,1.06.832,1.034.859,1.017.9,1,.946,1.008.784.771.859.78.907.767.955.749,1,.745,1.056.745,1.1.732,1.152.736,1.2.727,1.244.727,1.3.727,1.345.723L90.5,254l1.437.714,1.481.71,1.525.7,2.844,1.266,2.979,1.271,3.1,1.266,3.2,1.266,3.3,1.271,3.4,1.257,3.47,1.262,3.545,1.253,3.606,1.253,3.658,1.24,3.7,1.231,3.733,1.218,3.759,1.214L143,273.584l3.772,1.179,3.764,1.161,3.755,1.144,3.724,1.126,3.689,1.1,3.645,1.078,3.588,1.052,3.518,1.03,3.448,1,3.356.964,3.26.938,3.163.9,3.036.863,2.914.828,2.778.789,2.624.745,2.467.71,2.331.67,10.975,3.071,10.98-3.071Z" transform="translate(80.913 101.161)" fill="#a6a8aa" fill-rule="evenodd"/><path data-name="Path 6" d="M190.589,2.822l1.779,1.49C72.226,39.613,16.486,126.684,17.349,219.718,17.9,279.143,44.991,331.365,85.2,369.772c45.575,43.529,101.543,66.212,162.541,71.977h6.261c61-5.762,116.961-28.448,162.541-71.977,40.212-38.407,67.307-90.629,67.855-150.054.859-93.034-54.881-180.106-175.023-215.407l1.783-1.49C433.274,38.784,489.943,127.074,489.066,221.4c-.561,60.349-28.2,113.386-69.213,152.389-46.487,44.208-103.572,67.25-165.787,73.1h-6.388c-62.22-5.849-119.3-28.891-165.787-73.1-41.014-39-68.652-92.04-69.208-152.389C11.811,127.074,68.475,38.784,190.589,2.822Z" transform="translate(42.851 9.542)" fill="#bbbcbf" fill-rule="evenodd"/><path data-name="Path 7" d="M53.137,373.03c30.937,7.137,43.314,13.968,63.39,32.243C116.6,405.343,74.939,407.731,53.137,373.03ZM53.019,337.4c-4.346-2.02-36.72-13.823-44.738-58.465,8.158,8.482,16.281,12.96,25.627,24.983,5.792,7.457,12.066,18.174,19.112,33.483ZM18.209,231.932c-2.489-3.943-22.477-30.867-8.588-73.809C19.3,179.526,20.045,203.5,18.209,231.932ZM36.974,122.244C36.7,118.1,30.144,91.811,61.62,60.874,59.354,85.992,49.834,100.451,36.974,122.244ZM91.023,48.615c1.4-3.562,3.514-24.777,43.831-43.192C123.2,26.6,109.438,33.3,91.023,48.615Z" transform="translate(16.071 18.337)" fill="#e6e6e7" fill-rule="evenodd"/><path data-name="Path 8" d="M35.16,23.373c-.053,0,35.568-23.8,64.617-19.353C90.458,8.954,57.15,22.5,35.16,23.373Z" transform="translate(118.89 11.726)" fill="#434244" fill-rule="evenodd"/><path data-name="Path 9" d="M9.619,130.664c6.042-6.537,21.552-16.233,36.738-56.844C13.264,98.3,14.916,110.339,9.619,130.664ZM44.328,52.382c6.318-3.207,29.5-12.811,47.35-36.668C61.543,23.9,54.375,38.4,44.328,52.382Z" transform="translate(32.526 53.135)" fill-rule="evenodd"/><path data-name="Path 10" d="M15.986,126.9c2.944-8.6,11.47-23.318,5.1-73.848C3.083,89.08,10.295,106.969,15.986,126.9Zm42.079,74.72c.131-8.548,3.566-24.312-17.486-66.873C34.8,172.4,46.827,185.864,58.065,201.615Zm69.668,59.5c-2.992-8.255-6.506-31.436-40.721-59.486C94.085,239.431,111.479,249.066,127.734,261.119Zm88.916,35.4c-2.962-4.289-18.187-31.748-61.65-46.8C174.6,279.652,194.808,290.685,216.65,296.516ZM179,287.859c-4.491-2.322-36.611-19.637-75.908-12.049C126.52,292.547,151.963,291.276,179,287.859Zm79.036,17.1c-5.161-1.073-44.344-11.378-80.582,7.619C213.123,323.072,231.384,315.277,258.041,304.964Z" transform="translate(32.577 179.372)" fill="#e6e6e7" fill-rule="evenodd"/><path data-name="Path 11" d="M271.8,348.141c-5.161-1.073-44.327-11.374-80.561,7.606,20.781-.1,67.618-5.113,80.508-7.584a.273.273,0,0,0,.053-.022Zm-79.04-17.1c-4.5-2.331-36.615-19.637-75.9-12.049l.013.009c9.359,2.414,23.874,5.315,37.785,7.908C158.774,327.671,182.535,330.286,192.756,331.036ZM50.388,255.172c30.933,7.137,43.31,13.968,63.377,32.234C79.519,276.111,56.43,261.735,50.388,255.172ZM5.566,161.112c8.149,8.456,16.255,12.938,25.587,24.943,5.45,7.015,11.326,16.908,17.863,30.792C28.476,197.395,18.434,187.234,5.566,161.112Zm66.255,83.667c.136-8.552,3.553-24.317-17.477-66.834.315,7.063,1.893,19.436,6.134,34.893C63.133,222.478,67.024,232.713,71.821,244.779ZM29.742,170.063c2.944-8.6,11.462-23.322,5.1-73.809-1.95,5.691-4.942,19.633-5.875,39.2C28.485,145.624,28.971,156.823,29.742,170.063ZM141.49,304.3c-2.992-8.255-6.506-31.436-40.716-59.486,2.094,5.9,7.9,18.174,18.424,32.909,5.91,8.272,13.381,16.689,22.292,26.578h0ZM6.876,40.278c9.363,20.711,10.358,43.827,8.75,71.066C10.307,88.548,5.9,62.514,6.876,40.278Z" transform="translate(18.821 136.196)" fill-rule="evenodd"/><path data-name="Path 12" d="M9.619,130.613c6.042-6.537,21.548-16.233,36.734-56.831-21.9,21.627-27.09,35.353-35.686,52.568-.324,1.385-.666,2.8-1.047,4.263ZM44.328,52.331c6.314-3.2,29.469-12.794,47.3-36.6-25.789,11.593-32.6,21.083-44.572,32.716-.9,1.3-1.8,2.594-2.73,3.886Z" transform="translate(32.526 53.186)" fill="#e6e6e7" fill-rule="evenodd"/><path data-name="Path 13" d="M208.288,457.518c-2.962-4.289-18.187-31.748-61.65-46.8l.044.07c5.683,6.007,18.406,17.219,33.316,28.47,7.926,5.976,17.412,11.7,28.26,18.253ZM12.107,122.21v-.044c5.179-19.651,9.214-34.521,24.632-61.309l.018-.013C34.487,85.959,24.966,100.417,12.107,122.21ZM66.156,48.581v0c11.3-14.5,21.429-24.939,43.809-43.144-11.654,21.136-25.4,27.839-43.809,43.148Z" transform="translate(40.938 18.371)" fill-rule="evenodd"/><path data-name="Path 14" d="M35.16,22.943l.018-.013C54.412,14.325,67.793,7.976,99.759,3.6,90.427,8.537,57.141,22.067,35.16,22.943ZM398.114,379.211c-30.941,7.137-43.319,13.968-63.394,32.243C334.65,411.524,376.308,413.916,398.114,379.211Zm.118-35.629c4.346-2.02,36.72-13.823,44.738-58.465-8.158,8.482-16.281,12.96-25.631,24.983C411.548,317.556,405.278,328.273,398.232,343.582Zm34.81-105.469c2.484-3.943,22.477-30.867,8.588-73.809C431.952,185.707,431.207,209.682,433.043,238.113Zm-18.77-109.688c.272-4.145,6.835-30.433-24.645-61.37C391.9,92.174,401.413,106.632,414.273,128.425ZM360.228,54.8c-1.4-3.562-3.514-24.777-43.836-43.192C328.056,32.779,341.809,39.479,360.228,54.8Z" transform="translate(118.89 12.156)" fill="#e6e6e7" fill-rule="evenodd"/><path data-name="Path 15" d="M148.5,23.373c.057,0-35.564-23.8-64.612-19.353C93.2,8.954,126.511,22.5,148.5,23.373Z" transform="translate(283.661 11.726)" fill="#434244" fill-rule="evenodd"/><path data-name="Path 16" d="M187.51,130.664c-6.042-6.537-21.552-16.233-36.738-56.844C183.865,98.3,182.213,110.339,187.51,130.664ZM152.8,52.382c-6.318-3.207-29.509-12.811-47.354-36.668C135.587,23.9,142.75,38.4,152.8,52.382Z" transform="translate(356.557 53.135)" fill-rule="evenodd"/><path data-name="Path 17" d="M309.52,126.9c-2.944-8.6-11.471-23.318-5.1-73.848C322.423,89.08,315.212,106.969,309.52,126.9Zm-42.083,74.72c-.127-8.548-3.566-24.312,17.486-66.873C290.7,172.4,278.675,185.864,267.437,201.615Zm-69.664,59.5c2.988-8.255,6.5-31.436,40.716-59.486C231.422,239.431,214.023,249.066,197.773,261.119Zm-88.916,35.4c2.962-4.289,18.183-31.748,61.65-46.8C150.9,279.652,130.689,290.685,108.857,296.516Zm37.645-8.658c4.491-2.322,36.611-19.637,75.908-12.049-23.423,16.737-48.866,15.466-75.908,12.049Zm-79.036,17.1c5.161-1.073,44.344-11.378,80.582,7.619C112.38,323.072,94.122,315.277,67.466,304.964Z" transform="translate(228.129 179.372)" fill="#e6e6e7" fill-rule="evenodd"/><path data-name="Path 18" d="M67.466,348.141c5.157-1.073,44.326-11.374,80.561,7.606-20.781-.1-67.618-5.113-80.512-7.584Zm79.04-17.1c4.5-2.331,36.615-19.637,75.9-12.049L222.4,319c-9.363,2.414-23.874,5.315-37.785,7.908C180.488,327.671,156.728,330.286,146.506,331.036Zm142.369-75.864c-30.933,7.137-43.31,13.968-63.381,32.234C259.739,276.111,282.829,261.735,288.875,255.172Zm44.817-94.06c-8.145,8.456-16.255,12.938-25.592,24.943-5.446,7.015-11.322,16.908-17.859,30.792C310.786,197.395,320.828,187.234,333.692,161.112Zm-66.255,83.667c-.131-8.552-3.553-24.317,17.473-66.834-.311,7.063-1.888,19.436-6.134,34.893C276.13,222.478,272.234,232.713,267.437,244.779Zm42.079-74.716c-2.944-8.6-11.457-23.322-5.1-73.809,1.95,5.691,4.942,19.633,5.88,39.2C310.778,145.624,310.291,156.823,309.516,170.063ZM197.773,304.3c2.988-8.255,6.5-31.436,40.716-59.486-2.094,5.9-7.9,18.174-18.424,32.909-5.91,8.272-13.385,16.689-22.292,26.578ZM332.382,40.278c-9.363,20.711-10.353,43.827-8.745,71.066C328.952,88.548,333.355,62.514,332.382,40.278Z" transform="translate(228.129 136.196)" fill-rule="evenodd"/><path data-name="Path 19" d="M187.473,130.613c-6.042-6.537-21.548-16.233-36.734-56.831,21.9,21.627,27.09,35.353,35.686,52.568C186.75,127.735,187.092,129.15,187.473,130.613ZM152.764,52.331c-6.314-3.2-29.469-12.794-47.306-36.6,25.789,11.593,32.6,21.083,44.572,32.716.9,1.3,1.805,2.594,2.734,3.886Z" transform="translate(356.594 53.186)" fill="#e6e6e7" fill-rule="evenodd"/><path data-name="Path 20" d="M76.913,457.518c2.962-4.289,18.183-31.748,61.65-46.8l-.048.07c-5.683,6.007-18.406,17.219-33.316,28.47-7.926,5.976-17.416,11.7-28.26,18.253l-.026.009ZM273.09,122.21l0-.044c-5.179-19.651-9.214-34.521-24.637-61.309l-.013-.013C250.714,85.959,260.23,100.417,273.09,122.21ZM219.045,48.581l0,0c-11.3-14.5-21.434-24.939-43.805-43.144,11.655,21.136,25.4,27.839,43.81,43.148Z" transform="translate(260.073 18.371)" fill-rule="evenodd"/><path data-name="Path 21" d="M350.465,22.943l-.018-.013C331.213,14.325,317.828,7.976,285.866,3.6c9.328,4.942,42.618,18.472,64.6,19.348ZM211.776,119.575,24.161,140.6,55.4,193.681l5.718,95.3.127,1.95.136,1.893.149,1.853.162,1.8.18,1.748.188,1.7.206,1.656.228,1.621.245,1.573L63,306.314l.289,1.5.307,1.468.333,1.437.351,1.393.381,1.367.407,1.345.438,1.319.464,1.279.5,1.257.526,1.236.556,1.2.591,1.187.627,1.161.653,1.126.692,1.122.723,1.087.754,1.065.784,1.047.824,1.021.846,1.008.889.986.933.995.767.758.837.758.894.754.938.74.99.736,1.043.732,1.091.727,1.139.723,1.192.727,1.236.719,1.292.723,1.336.714,1.385.719,1.424.71,1.472.705,1.516.7,2.839,1.262,2.971,1.266,3.093,1.262,3.19,1.266,3.3,1.266,3.382,1.257,3.47,1.262,3.54,1.253,3.6,1.249,3.654,1.236,3.7,1.231,3.729,1.222,3.755,1.209L142.4,362l3.772,1.179,3.764,1.161,3.75,1.144,3.724,1.122,3.689,1.1,3.641,1.073,3.584,1.056,3.523,1.021,3.444,1,3.356.964,3.264.942,3.155.9,3.041.863,2.914.832,2.773.789,2.629.745,2.471.71,2.327.666,10.555,2.957V119.575Z" transform="translate(81.698 12.156)" fill="#e6e6e7" fill-rule="evenodd"/><path data-name="Path 22" d="M214.956,289.755l2.327-.666,2.471-.71,2.624-.745,2.778-.789,2.909-.832,3.041-.863,3.159-.9,3.26-.942,3.356-.964,3.444-1,3.523-1.021,3.584-1.056,3.641-1.073,3.689-1.1,3.724-1.122,3.75-1.144L270,273.667l3.772-1.179,3.768-1.192,3.755-1.209,3.729-1.222,3.7-1.231,3.654-1.236,3.6-1.249,3.54-1.253,3.466-1.262,3.387-1.257,3.3-1.266,3.194-1.266,3.089-1.262,2.971-1.266,2.844-1.262,1.512-.7,1.472-.71,1.428-.705,1.38-.719,1.336-.714,1.293-.723,1.236-.719,1.192-.727,1.139-.723,1.091-.727,1.043-.732.99-.736.942-.74.889-.754.837-.758.767-.758.938-.995.881-.986.854-1.008.819-1.025.784-1.043.754-1.065.723-1.091.692-1.117.653-1.126.627-1.161.591-1.187.556-1.2.526-1.236.5-1.262.46-1.279.438-1.314.412-1.345.381-1.367.351-1.4.329-1.437.307-1.463.289-1.5.259-1.538.245-1.573.228-1.621.206-1.656.193-1.7.18-1.753.158-1.8.149-1.853.136-1.893.123-1.95,5.726-95.3,31.235-53.081L204.4,30.066V292.713l10.559-2.957ZM203.9,36.314,26.491,56.2l27.138,46.11,5.81,96.772c1.244,20.706,4.2,30.893,12.986,39.993,2.966,3.076,8.9,6.8,16.671,10.323,28.58,12.982,82.19,27.528,105.938,34.385l8.864,2.48Z" transform="translate(89.576 101.665)" fill="#d0d1d3" fill-rule="evenodd"/><path data-name="Path 23" d="M75.96,278.958c23.747-6.853,77.353-21.4,105.946-34.385,7.768-3.527,13.7-7.247,16.667-10.323,8.785-9.1,11.742-19.287,12.986-39.993l5.81-96.772L244.5,51.376,67.1,31.493V281.438l8.864-2.48Z" transform="translate(226.877 106.49)" fill="#a6a8aa" fill-rule="evenodd"/><path data-name="Path 24" d="M186.946,239.52l-8.855-1.853c-53.76-11.216-47.6-8.561-102.021-24.593-20.251-5.963-22.455-16.93-23.143-39.218L50.782,72.624l-19.2-34.538H342.315l-19.2,34.538-2.147,101.232c-.683,22.288-2.887,33.25-23.138,39.218-54.426,16.031-48.261,13.376-102.021,24.593l-8.859,1.853Z" transform="translate(106.777 128.784)" fill="#808183" fill-rule="evenodd"/><path data-name="Path 25" d="M304.344,137.249l-.2,9.275L304,150.555l-.21,3.768-.289,3.505-.377,3.085H171.746V149.574h4.977v-.986h-4.977V137.249ZM36.72,69.824l-.5-23.664H170.752V69.824Z" transform="translate(122.477 156.085)" fill-rule="evenodd"/><path data-name="Path 26" d="M317.192,188.342l-.381,2.2-.679,2.778-.837,2.559-1.03,2.34-1.244,2.151-1.477,1.967-1.744,1.805-2.042,1.656-2.366,1.525-2.725,1.393-3.111,1.271-3.531,1.157-4.916,1.446-4.592,1.345-4.285,1.253-3.991,1.152-3.729,1.069-3.483.99-3.26.916-3.054.85-2.879.789-2.721.732-2.589.679-2.471.635-2.388.6-2.309.565-2.27.539-2.243.521-2.243.508-2.261.5-2.313.5-2.37.5-2.458.513-2.568.526-2.7.548-2.852.578-3.028.609-3.229.648-3.444.7-3.685.745-3.948.806-4.232.863-4.539.938-4.868,1.012-8.132,1.7V188.342H317.192Zm2.068-56.875-.662,31.226H185.978V131.467ZM50.431,71.609l0-.149L32.012,38.341H184.984V71.609H50.431Zm1.249,58.864-.705-33.22H184.984v33.22Z" transform="translate(108.245 129.646)" fill="#d4a950" fill-rule="evenodd"/><path data-name="Path 27" d="M168.655,102.661v-14.2h67.5v14.2ZM312.869,41.935l-7.891,14.2H237.141v-14.2h75.728ZM167.661,133.988v14.2h-67.5v-14.2ZM46.187,193.842l-.311-.2-2.037-1.656-1.744-1.805-1.477-1.967-1.244-2.151-1.03-2.34-.841-2.559-.368-1.52H99.171v14.2H46.187Z" transform="translate(125.568 141.799)" fill="#3a529a" fill-rule="evenodd"/><path data-name="Path 28" d="M170.015,99.623V84.92h67.5v14.7Zm67.5,30.849h-67.5V115.808h67.5Zm68.275-61.195-1.218,2.182L304.3,83.929H238.5V69.278ZM238.5,38.341h84.482l-8.2,14.752H238.5ZM169.02,161.335v13.687h-67.5V161.335Zm-67.5-29.868h67.5v13.679h-67.5ZM38.253,190.8l-.066-.263-.526-3.014-.394-3.26-.289-3.505-.21-3.768-.035-.977h63.8V190.8H38.253Zm62.277,32.089-2.059-.53-2.589-.679-2.721-.732-2.879-.789-3.058-.85-3.26-.916-3.479-.99-3.729-1.069-3.991-1.152-4.285-1.253-4.592-1.345-4.916-1.446-3.536-1.157-3.111-1.271-2.721-1.393-.517-.333H100.53v15.9Z" transform="translate(124.208 129.646)" fill="#bbbcbf" fill-rule="evenodd"/><path data-name="Path 29" d="M305.054,84.92l-.968,45.553H239.268V84.92h65.787ZM170.782,38.341h67.5V83.929h-67.5ZM37.461,175.023l-.074-2.059-.881-41.5H101.3v43.555Zm132.327,62.387-8.132-1.7-4.868-1.012-4.539-.938-4.232-.863-3.952-.806-3.685-.745-3.444-.7L133.711,230l-3.028-.609-2.848-.578-2.7-.548-2.567-.526-2.462-.513-2.37-.5-2.3-.5-2.265-.5-2.243-.508-2.243-.521-2.27-.539-2.313-.565-1.8-.451V176.017h67.5v61.392Z" transform="translate(123.441 129.646)" fill="#c03b35" fill-rule="evenodd"/><path data-name="Path 30" d="M221.676,272.316,224,271.65l2.471-.71,2.624-.745,2.778-.789,2.914-.828,3.041-.863,3.155-.9,3.26-.938,3.356-.968,3.444-.99,3.518-1.03,3.584-1.052,3.641-1.073,3.689-1.1,3.72-1.122,3.746-1.144,3.764-1.161,3.768-1.174,3.764-1.2,3.755-1.2,3.724-1.218,3.694-1.231,3.65-1.236,3.6-1.249,3.536-1.249,3.461-1.257,3.382-1.257,3.29-1.262,3.185-1.262,3.08-1.262,2.962-1.262,2.83-1.257,1.507-.692,1.463-.705,1.411-.7,1.376-.71,1.323-.71,1.284-.719,1.222-.71,1.179-.719,1.126-.719,1.073-.714,1.034-.723.968-.723.924-.727.872-.736.815-.74.745-.736.92-.977.872-.973.841-.99.8-1.008.771-1.025.745-1.047.71-1.073.679-1.1.644-1.108.609-1.139.578-1.165.552-1.187.517-1.214.491-1.244.451-1.262.434-1.293.4-1.332.377-1.349.351-1.38.324-1.42.3-1.45.285-1.485.259-1.525.245-1.564.223-1.612.21-1.647.188-1.691.175-1.744.158-1.788.149-1.845.136-1.893.127-1.945,5.735-95.47L397.7,35.011l-8.167,4.079L362.078,85.739l-5.805,96.649-.127,1.919-.127,1.853-.149,1.8-.153,1.739-.171,1.691-.18,1.634-.2,1.582-.21,1.533-.237,1.485-.245,1.446-.267,1.4-.28,1.358-.307,1.314-.32,1.275-.346,1.24-.364,1.209-.39,1.165-.416,1.144-.434,1.117-.46,1.073-.486,1.056-.513,1.03-.539,1-.57.981-.6.964-.627.946-.653.924-.684.911-.719.894-.749.885-.784.876-.815.868-.6.6-.675.613-.736.627-.8.627-.868.644-.92.648-.986.653-1.038.666-1.1.662-1.144.67-1.209.675-1.249.67-1.306.67-1.349.675-1.393.666-1.441.666-2.765,1.231-2.892,1.231-3.028,1.236-3.133,1.24-3.242,1.244-3.339,1.244-3.422,1.244-3.5,1.236-3.566,1.236-3.619,1.227-3.672,1.222-3.7,1.209-3.729,1.2-3.746,1.183-3.75,1.17-3.746,1.157-3.733,1.139-3.707,1.117-3.676,1.1-3.628,1.073-3.58,1.047-3.505,1.025-3.435.995-3.352.964-3.255.933-3.15.9-3.036.863-2.909.828-2.778.793-2.633.749-2.475.705-2.313.666-9.249,2.589-9.245-2.589-2.318-.666-2.471-.705-2.633-.749-2.778-.793-2.909-.828-3.041-.863-3.15-.9-3.255-.933-3.347-.964-3.439-.995-3.505-1.025-3.58-1.047L161.77,256l-3.676-1.1-3.7-1.117-3.737-1.139-3.742-1.157-3.75-1.17-3.746-1.183-3.733-1.2-3.7-1.209-3.667-1.222-3.619-1.227-3.571-1.236-3.5-1.236-3.422-1.244-3.343-1.244-3.238-1.244-3.137-1.24-3.023-1.236-2.892-1.231-2.76-1.231-1.441-.662-1.4-.67-1.349-.675-1.306-.67-1.249-.67-1.209-.675-1.144-.67-1.1-.662-1.038-.666-.986-.653-.92-.648-.868-.644-.8-.627-.736-.627L79.6,223.3l-.6-.6-.815-.868-.784-.876-.749-.885-.719-.894-.683-.911-.657-.924-.622-.942-.6-.968-.57-.981-.539-1-.513-1.03-.491-1.056-.46-1.078-.434-1.108-.412-1.144-.394-1.17-.364-1.209-.346-1.24-.32-1.271-.3-1.319-.285-1.358-.267-1.4-.245-1.446-.237-1.485-.21-1.529-.2-1.59-.18-1.63-.171-1.691-.158-1.739-.145-1.8-.131-1.853-.127-1.919-5.8-96.649L32.615,39.094l-8.171-4.083L55.175,87.228l5.731,95.47.127,1.945.131,1.893.149,1.845.162,1.792.18,1.739.184,1.691.21,1.647.223,1.612.245,1.564.258,1.525.285,1.485.3,1.455.329,1.42.346,1.376.377,1.349.4,1.332.434,1.3.456,1.262.486,1.24.517,1.214.552,1.187.578,1.165.613,1.139.644,1.108.679,1.1.71,1.073.745,1.043L72,222.223l.806,1.008.837.99.872.973.92.977.74.736.819.74.872.736.92.727.977.723,1.025.723,1.078.714,1.126.719,1.179.719,1.222.71,1.284.719,1.323.71,1.376.71,1.411.7,1.463.705,1.512.692,2.826,1.257,2.957,1.262,3.084,1.262,3.185,1.262,3.29,1.262,3.378,1.257,3.461,1.257,3.536,1.249,3.6,1.249,3.65,1.236,3.693,1.231,3.724,1.218,3.755,1.2,3.764,1.2,3.772,1.174,3.759,1.161,3.746,1.144,3.724,1.122,3.685,1.1L164,261.836l3.584,1.052,3.523,1.03,3.439.99,3.356.968,3.26.938,3.159.9,3.036.863,2.914.828,2.778.789,2.624.745,2.471.71,2.327.666,10.6,2.971,10.607-2.971Z" transform="translate(82.655 118.386)" fill="#6d6e70" fill-rule="evenodd"/></g></svg>