<svg id="Layer_1" data-name="Layer 1" xmlns="http://www.w3.org/2000/svg" viewBox="0 0 2500 2141"><defs><style>.cls-1{fill:#ec1c24;fill-rule:evenodd;}.cls-2{fill:#231f20;}</style></defs><path class="cls-1" d="M1577.38,442.75C2109,482.77,2500,621.32,2500,784.5c0,131.36-254.52,246.3-632.18,306.85l105.7,126.23H1775.45L1253.08,598.74,904.15,1012.33c105.7,8.21,218.59,13.34,336.61,13.34q83.13,0,163.18-3.08l105.71,108.79c-84.16,5.13-170.36,8.21-259.65,8.21-151.89,0-297.62-8.21-432.06-21.55L722.5,1229.9h-197l113.92-135.47C257.59,1033.88,0,918.94,0,785.52,0,625.42,375.62,490,890.8,446.85L825.12,559.74C455.67,596.69,197,682.9,197,783.47c0,90.31,211.42,169.34,526.48,211.41L1155.58,483.8h198.07l429,508c301.72-42.07,503.9-120.07,503.9-208.33,0-100.57-260.68-186.78-632.19-223.73l-77-117Z"/><path class="cls-2" d="M741,1605.51,798.44,1624c-9.24,31.81-23.6,55.42-44.13,70.81s-46.18,23.6-78,23.6q-58.48,0-95.44-40c-24.63-26.68-38-62.6-38-108.78,0-49.27,13.34-86.21,38-113.92,24.63-26.68,58.5-40,99.55-40,35.92,0,64.65,10.27,87.23,31.82,13.34,12.31,23.61,29.76,29.76,54.39l-58.49,14.37c-3.08-15.39-11.29-26.68-21.56-35.92-11.28-9.24-24.63-13.34-40-13.34-21.55,0-39,8.21-52.34,23.6s-20.53,40-20.53,76c0,36.94,6.16,63.63,19.5,79,13.35,16.42,30.79,23.6,52.34,23.6,16.42,0,29.77-5.13,40-14.36,12.31-11.29,19.5-27.71,24.63-49.27Z"/><polygon class="cls-2" points="849.75 1713.27 849.75 1420.79 909.28 1420.79 909.28 1535.73 1024.22 1535.73 1024.22 1420.79 1083.74 1420.79 1083.74 1713.27 1024.22 1713.27 1024.22 1584.99 909.28 1584.99 909.28 1713.27 849.75 1713.27"/><polygon class="cls-2" points="1144.29 1713.27 1144.29 1420.79 1360.84 1420.79 1360.84 1470.05 1202.79 1470.05 1202.79 1535.73 1350.58 1535.73 1350.58 1584.99 1202.79 1584.99 1202.79 1664.01 1366.99 1664.01 1366.99 1713.27 1144.29 1713.27"/><path class="cls-2" d="M1417.28,1713.27V1420.79h124.18c31.82,0,54.39,3.07,67.74,8.21,14.36,5.13,25.65,14.36,33.86,28.73a87,87,0,0,1,13.34,46.18c0,21.56-6.15,40-19.49,54.4s-31.82,23.6-57.48,26.68c13.35,8.21,23.61,15.39,31.82,24.63s19.5,24.63,33.87,47.21L1681,1714.3h-70.81l-43.1-63.63c-15.4-22.58-25.66-36.94-31.82-43.1s-11.28-10.26-18.47-12.32c-6.16-2-16.42-3.08-29.76-3.08h-12.32V1714.3h-57.47Zm59.53-169.33h44.13c28.73,0,46.18-1,53.36-4.11,7.19-2,13.34-6.15,16.42-12.31s6.16-13.34,6.16-21.55c0-9.24-2.05-18.48-8.21-23.61-5.13-6.16-13.34-9.23-22.58-11.29-4.1-1-19.5-1-43.1-1h-46.18v73.89Z"/><polygon class="cls-2" points="1773.4 1713.27 1773.4 1590.12 1666.67 1420.79 1735.43 1420.79 1805.21 1536.76 1871.92 1420.79 1940.68 1420.79 1832.92 1590.12 1832.92 1713.27 1773.4 1713.27"/></svg>