<?xml version="1.0" encoding="UTF-8"?><svg xmlns="http://www.w3.org/2000/svg" xmlns:xlink="http://www.w3.org/1999/xlink" version="1.1" x="0px" y="0px" viewBox="0 0 48 48" xml:space="preserve"><path fill="#CFD8DC" d="M16 16h16v16H16z"/><path fill="#CFD8DC" d="M5 19h43l-5 10H0z"/><path fill="#FFD54F" d="M43 21H30v-3H18v3H8l-3 6h13v3h12v-3h10z"/><path fill="#FFC107" d="M24 30V18h-6v3H8l-3 6h13v3z"/><path fill="#90A4AE" d="M16 16l2 2v3l-2-2z"/><path fill="#B0BEC5" d="M16 16h8v2h-6z"/><path fill="#90A4AE" d="M0 29l5-2 3-6-3-2z"/><path fill="#B0BEC5" d="M5 19l3 2h10l-2-2z"/><path fill="#90A4AE" d="M24 30v2h-8l2-2z"/><path fill="#607D8B" d="M5 27l-5 2h16v3l2-2v-3z"/><path fill="#ECEFF1" d="M32 16l-2 2v3l2-2z"/><path fill="#CFD8DC" d="M43 21l5-2-5 10-3-2z"/><path fill="#90A4AE" d="M30 27v3l2 2v-3z"/><path fill="#90A4AE" d="M30 27l2 2h11l-3-2z"/><path fill="#B0BEC5" d="M32 32l-2-2h-6v2z"/><path fill="#ECEFF1" d="M32 19l-2 2h13l5-2z"/></svg>