<svg id="Layer_1" data-name="Layer 1" xmlns="http://www.w3.org/2000/svg" viewBox="0 0 2500 2141"><defs><style>.cls-1{fill:#d10028;}.cls-2{fill:#1a171b;}</style></defs><path class="cls-1" d="M1580.9,1878.26s-22.18,1.17-39.69,0c-43.18,0-89.87-32.68-89.87-85.2s45.52-82.87,88.7-82.87c1.17,0,22.18-1.17,39.69,0,44.35,0,89.87,31.51,89.87,82.87C1670.77,1845.58,1624.08,1878.26,1580.9,1878.26Zm42-201.92c-60.69-1.17-123.72,0-123.72,0-74.7,0-135.39,52.52-135.39,115.55,0,64.19,60.69,116.72,135.39,116.72,1.17,0,63,1.16,123.72,0,74.7,0,135.4-52.53,135.4-116.72,0-63-59.53-113.22-135.4-115.55"/><path class="cls-1" d="M2418.93,1906.27h77V1795.39c0-64.19-58.36-115.55-133.06-115.55H2170.32c-3.5,0-10.5,1.17-10.5,8.17V1898.1c0,5.84,3.5,8.17,8.17,8.17h80.53V1731.2c0-8.17,5.84-11.68,11.68-11.68h88.7c24.51,0,60.69,22.18,60.69,70v107.38c0,1.16,0,9.33,9.34,9.33"/><path class="cls-1" d="M809.39,1724.19H928.44V1688c0-5.84-3.5-8.17-8.17-8.17H588.79a7.93,7.93,0,0,0-8.17,8.17v36.18H660c30.35,0,50.19,25.68,50.19,49v123.73c0,3.5,3.5,8.17,8.17,8.17h80.53V1735.86c-1.16-5.83,3.51-11.67,10.51-11.67"/><path class="cls-1" d="M441.73,1898.1a7.92,7.92,0,0,0,8.17,8.17h80.53V1688a8,8,0,0,0-8.17-8.17H449.9a8,8,0,0,0-8.17,8.17V1898.1"/><path class="cls-1" d="M1063.83,1786.05v-45.52c0-12.84,8.17-21,21-21H1203.9c17.5,0,33.84,15.18,33.84,32.69a33.86,33.86,0,0,1-33.84,33.84Zm173.91,120.22h88.71c-2.33-58.36-65.36-82.87-65.36-82.87h0c39.68-9.33,65.36-38.51,65.36-70,0-35-35-73.53-89.87-73.53H1023c-25.67,0-45.52,21-45.52,46.69V1898.1a8,8,0,0,0,8.17,8.17h80.54v-80.53H1142c66.52,1.16,93.37,49,95.7,80.53"/><path class="cls-1" d="M307.5,1755.71h86.37C375.2,1707.85,320.34,1674,263.15,1674c-31.52,0-87.54-2.33-123.72,0-43.19,2.34-68.87,11.68-95.71,35C18,1731.2,4,1761.54,4,1791.89c0,64.19,58.36,115.55,134.23,119,52.52,2.34,58.36,2.34,126.06,0,64.19-2.33,109.71-30.34,129.55-81.7H307.5c-3.5,0-5.83,1.17-7,4.67-16.34,26.84-45.52,43.18-77,44.35H183.78c-45.52-1.17-89.87-31.51-89.87-85.2,0-52.53,45.52-84,89.87-84,5.84,0,22.18-1.17,39.68,0,31.52,0,63,17.51,78.21,43.19-1.17,0,1.16,3.5,5.83,3.5"/><path class="cls-1" d="M2112,1865.42H1901.87c-7,0-11.67-4.67-11.67-11.67v-42h182.08v-39.68H1890.2v-39.69s0-11.67,12.84-11.67H2112v-31.51c0-9.34-10.5-8.17-10.5-8.17h-291.8c-1.16,0-8.17,0-8.17,8.17v171.57c0,22.18,17.51,45.52,46.69,45.52h255.61c7,0,8.17-5.83,8.17-8.17v-32.68"/><path class="cls-1" d="M2046.6,1597c-8.17-5.84-18.67-8.17-30.35-8.17s-22.17,2.33-30.34,8.17-15.18,11.67-24.51,11.67-15.18-7-24.51-11.67c-8.17-5.84-18.68-8.17-30.35-8.17s-22.18,2.33-30.35,8.17-12.84,11.67-12.84,18.68,3.5,14,12.84,18.67c8.17,5.84,18.68,8.17,30.35,8.17s22.18-2.33,30.35-7,16.34-12.84,24.51-12.84,16.34,7,24.51,11.67a61.58,61.58,0,0,0,30.34,8.17c12.84,0,22.18-2.33,31.52-8.17,8.17-5.84,12.84-11.67,12.84-18.67-1.17-5.84-5.84-12.84-14-18.68"/><path class="cls-2" d="M1249.42,502.15c185.58,0,634.94,385.17,691,435.36,3.5,3.5,9.34,7,18.67,7,14-1.17,15.18-23.35,15.18-23.35s3.5-49,3.5-98c0-61.86-49-116.72-49-116.72S1425.66,152,1248.25,152C1072,152,569,706.41,569,706.41s-49,54.86-49,116.72c0,49,3.5,98,3.5,98s1.17,21,15.17,23.35c10.51,1.16,15.18-3.51,18.68-7,57.19-50.19,506.55-435.36,692.14-435.36"/><path class="cls-2" d="M1249.42,1012.21c185.58,0,634.94,385.17,691,435.36,3.5,3.5,9.34,7,18.67,7,14-1.16,15.18-23.34,15.18-23.34s3.5-49,3.5-98c0-61.86-49-116.72-49-116.72s-503.06-554.41-680.47-554.41C1072,662.06,569,1216.47,569,1216.47s-49,54.86-49,116.72c0,49,3.5,98,3.5,98s1.17,21,15.17,23.34c10.51,1.17,15.18-3.5,18.68-7,57.19-50.19,506.55-435.36,692.14-435.36"/></svg>