<svg id="Layer_1" data-name="Layer 1" xmlns="http://www.w3.org/2000/svg" viewBox="0 0 2500 2141"><defs><style>.cls-1{fill:#383838;fill-rule:evenodd;}</style></defs><path class="cls-1" d="M4.48,1627.19H252.4c85,0,156,69.84,156,156h0c0,12.8-1.16,25.61-4.65,37.25l102.43-192.06H672.59l150.15,265.39V1631.85h407.39l75.65,166.44,64-111.74-32.59-57h139.67l-22.11,53.54,55.87,121L1591,1623.7H1699.2l-25.61,52.38-1.16,1.16c37.24-51.21,108.25-85,189.72-85,97.78,0,180.42,50,209.51,118.72,27.94-68.67,110.58-118.72,209.52-118.72,121.05,0,218.82,76.82,218.82,171.1s-98.94,171.1-218.82,171.1c-97.78,0-180.42-50-209.52-118.72-27.93,68.67-110.57,118.72-209.51,118.72-121.05,0-218.82-76.82-218.82-171.1,0-8.14,1.16-15.13,1.16-22.11l-78,179.25h-89.63l-67.51-118.73-67.51,116.4h-89.62l-105.92-218.82H942.63v47.72H1123v67.51H940.3v44.23H1144v62.85H551.54l-41.9-66.34H673.76l-78-153.65L470.06,1927.49H347.85l19.78-37.25c-27.93,32.59-69.83,51.22-116.39,51.22h-71v-72.17H200c48.88,0,89.62-37.24,89.62-83.8h0c0-46.56-40.74-83.81-89.62-83.81H113.89v239.78H2.15V1627.19Zm2273.2,24.44c-59.36,0-107.08,48.89-107.08,108.25S2219.49,1867,2277.68,1867c59.37,0,108.25-48.88,108.25-107.08,0-59.36-48.88-108.25-108.25-108.25Zm-417.86,0c-59.36,0-107.08,48.89-107.08,108.25S1801.63,1867,1859.82,1867c59.37,0,108.25-48.88,108.25-107.08a108,108,0,0,0-108.25-108.25Z"/><path class="cls-1" d="M1012.47,1470.06c46.55-232.79-83.81-480.72-278.19-670.44C633,700.68,501.49,623.86,356,608.73c-27.94,65.18-44.23,133.85-44.23,204.86,1.16,314.26,299.13,579.65,700.7,656.47ZM1249.91,135c30.27,0,59.36,1.16,88.46,3.49C1300,598.25,1268.54,1058,1269.7,1492.17h-39.57c1.16-434.15-30.27-893.92-68.68-1353.68,29.1-3.49,58.2-3.49,88.46-3.49ZM1556,172.25c65.18,16.29,128,37.24,185.07,64C1433.82,703,1369.8,1094.1,1353.5,1488.68c-15.13,1.16-32.59,2.33-47.72,3.49,11.64-380.61,21-756.57,250.25-1319.92Zm349.19,157.13c51.21,37.25,96.61,78,135,121.05C1621.21,673.91,1422.18,1015,1442,1477c-15.14,2.33-31.43,4.66-46.56,5.82-3.49-372.47,53.54-749.59,509.81-1153.48Zm238.61,278.19c27.93,65.18,44.23,133.85,44.23,204.85,0,314.27-298,579.65-699.54,656.47-46.55-232.79,83.81-480.71,278.19-670.44,100.1-97.77,231.63-175.75,377.12-190.88ZM1195.21,1491c-15.13-1.17-32.59-1.17-47.73-3.49C1131.19,1092.93,1066,703,759.89,235.1c58.2-25.61,119.88-47.72,185.07-64C1173.09,735.6,1183.57,1111.56,1195.21,1491Zm-90.79-7c-15.13-1.16-31.43-3.49-46.56-5.82q29.69-693.13-598.27-1026.6a841.93,841.93,0,0,1,135-121.06c456.27,402.73,513.3,779.85,509.81,1153.48Z"/></svg>