<?xml version="1.0" encoding="utf-8"?>
<!-- Generator: Adobe Illustrator 24.2.1, SVG Export Plug-In . SVG Version: 6.00 Build 0)  -->
<svg version="1.1" id="Layer_1" xmlns="http://www.w3.org/2000/svg" xmlns:xlink="http://www.w3.org/1999/xlink" x="0px" y="0px"
	 viewBox="0 0 2500 2141" style="enable-background:new 0 0 2500 2141;" xml:space="preserve">
<style type="text/css">
	.st0{fill-rule:evenodd;clip-rule:evenodd;fill:#ED1C24;}
	.st1{fill-rule:evenodd;clip-rule:evenodd;fill:#FFFFFF;}
</style>
<g>
	<path class="st0" d="M389.7,2083.7c9.3,0,12.7,1.2,16.2-6.9c3.5-9.3,32.4-94.8,32.4-94.8H503c28.9,0,67.1-1.2,67.1-1.2
		s4.6,9.3,16.2,46.3c11.6,37,15,56.7,32.4,56.7h60.1c8.1,0,10.4-3.5,10.4-10.4c0-6.9-6.9-22-6.9-22s-27.8-80.9-34.7-100.6
		c-5.8-18.5-28.9-80.9-41.6-117.9c-13.9-37-35.8-104.1-38.2-115.6c-2.3-11.6-4.6-17.3-17.3-18.5c-12.7-1.2-45.1-3.5-61.3-2.3
		c-2.3,0-6.9,1.2-10.4,9.3c-2.3,8.1-26.6,84.4-38.2,115.6c-10.4,31.2-41.6,122.6-45.1,134.1c-4.6,12.7-31.2,94.8-35.8,108.7
		s-5.8,18.5,4.6,18.5C374.7,2082.5,380.4,2083.7,389.7,2083.7z M504.2,1778.4c0,0,9.3,22,30.1,86.7c20.8,65.9,24.3,75.2,24.3,75.2
		s-18.5,0-52,0c-32.4,0-54.3-1.2-54.3-1.2s4.6-17.3,25.4-79.8C497.2,1798.1,504.2,1778.4,504.2,1778.4z"/>
	<path class="st0" d="M1337.9,2083.7c9.3,0,12.7,1.2,16.2-6.9c3.5-9.3,32.4-94.8,32.4-94.8h64.8c28.9,0,67.1-1.2,67.1-1.2
		s4.6,9.3,16.2,46.3c11.6,37,15,56.7,32.4,56.7h60.1c8.1,0,10.4-3.5,10.4-10.4c0-6.9-6.9-22-6.9-22s-27.8-80.9-34.7-100.6
		c-5.8-18.5-28.9-80.9-41.6-117.9c-13.9-37-35.8-104.1-38.2-115.6s-4.6-17.3-17.3-18.5c-12.7-1.2-45.1-3.5-61.3-2.3
		c-2.3,0-6.9,1.2-10.4,9.3c-3.5,8.1-26.6,84.4-38.2,115.6c-10.4,31.2-41.6,122.6-45.1,134.1c-4.6,12.7-31.2,94.8-35.8,108.7
		c-4.6,13.9-5.8,18.5,4.6,18.5C1322.8,2082.5,1329.8,2083.7,1337.9,2083.7z M1452.4,1778.4c0,0,9.3,22,30.1,86.7
		c20.8,65.9,24.3,75.2,24.3,75.2s-18.5,0-52,0s-54.3-1.2-54.3-1.2s4.6-17.3,25.4-79.8C1445.4,1798.1,1452.4,1778.4,1452.4,1778.4z"
		/>
	<path class="st0" d="M753.9,1720.6c0-16.2,4.6-22,18.5-22s28.9,0,39.3,0c10.4,0,28.9-1.2,28.9,10.4c0,10.4,1.2,146.9,1.2,174.6
		c0,27.8,1.2,157.3,1.2,174.6s-2.3,25.4-16.2,25.4s-34.7,1.2-48.6,1.2c-13.9,0-23.1-2.3-23.1-22s-1.2-194.3-1.2-224.3
		C756.2,1808.5,753.9,1736.8,753.9,1720.6z"/>
	<path class="st0" d="M1097.4,1904.5c-17.3,0-59,0-59,0c0,46.3,1.2,138.8,1.2,153.8c0,17.3-2.3,25.4-15,25.4
		c-12.7,0-33.5,1.2-46.3,1.2c-13.9,0-22-2.3-22-22c0-19.7-1.2-194.3-1.2-224.3c0-31.2-1.2-102.9-1.2-119.1c0-16.2,4.6-22,17.3-22
		c13.9,0,27.8,0,37,0c10.4,0,27.8-1.2,27.8,10.4c0,9.3,1.2,105.2,1.2,153.8c0,0,18.5,1.2,60.1,1.2c40.5,0,67.1-1.2,67.1-1.2
		c0-48.6,1.2-144.5,1.2-153.8c0-10.4,17.3-10.4,27.8-10.4s24.3,0,37,0c13.9,0,17.3,6.9,17.3,22c0,16.2-1.2,87.9-1.2,119.1
		s-1.2,204.7-1.2,224.3c0,19.7-9.3,20.8-22,22c-13.9,0-33.5-1.2-46.3-1.2s-15-8.1-15-25.4c0-15,1.2-107.5,1.2-153.8
		C1165.6,1904.5,1115.9,1904.5,1097.4,1904.5z"/>
	<path class="st0" d="M1719.5,2069.8c1.2,12.7,0,13.9,5.8,16.2c5.8,1.2,26.6,3.5,42.8,4.6s35.8,3.5,35.8-18.5s-1.2-96-1.2-102.9
		s-1.2-83.3-1.2-89c0-5.8,0-83.3,0-89c0-5.8,0-35.8,0-39.3c0-3.5,1.2-4.6,5.8-4.6c4.6,0,47.4,1.2,62.4,1.2c16.2,0,22,0,26.6,0
		s9.3,1.2,9.3-5.8c1.2-5.8,2.3-18.5,2.3-25.4c0-5.8,0-10.4-10.4-11.6c-10.4-1.2-84.4-2.3-100.6-2.3c-16.2,0-76.3,0-87.9,0
		s-85.6,1.2-91.4,1.2c-5.8,0-8.1,5.8-8.1,20.8c0,13.9,1.2,22,9.3,22s64.8,0,79.8,1.2c8.1,0,10.4,0,13.9,0c2.3,0,5.8,0,5.8,2.3
		s1.2,56.7,1.2,77.5c0,20.8-1.2,76.3-1.2,98.3s1.2,94.8,1.2,104.1C1719.5,2035.1,1719.5,2058.3,1719.5,2069.8z"/>
	<path class="st0" d="M2032.8,2094.1c-35.8,0-84.4-12.7-93.7-16.2c-9.3-2.3-9.3-9.3-9.3-13.9s0-6.9,0-16.2s1.2-17.3,5.8-17.3
		c16.2,0,32.4,24.3,104.1,24.3c40.5,0,47.4-24.3,47.4-38.2c0-82.1-160.7-99.4-160.7-215.1c0-85.6,63.6-100.6,114.5-100.6
		c40.5,0,71.7,9.3,82.1,15c10.4,4.6,11.6,9.3,11.6,13.9c0,5.8,0,24.3,0,28.9c0,4.6-2.3,6.9-5.8,6.9c-10.4,0-26.6-26.6-84.4-26.6
		c-38.2,0-54.3,18.5-54.3,41.6c0,65.9,165.4,96,165.4,211.6C2157.7,2072.1,2087.2,2094.1,2032.8,2094.1z"/>
	<path class="st0" d="M2221.3,1720.6c0-6.9,1.2-12.7,12.7-12.7c11.6,0,18.5-1.2,28.9-1.2s18.5,0,26.6,0c8.1,0,16.2,1.2,16.2,32.4
		c0,30.1-1.2,109.9-1.2,123.7s0,63.6,0,84.4c0,39.3-6.9,112.2,72.8,112.2c15,0,72.8,0,72.8-77.5c0-30.1-1.2-144.5-1.2-192
		c0-25.4-1.2-63.6-1.2-70.5s1.2-10.4,6.9-10.4s18.5,1.2,26.6,1.2c9.3,0,13.9,0,13.9,5.8s1.2,45.1,1.2,153.8c0,108.7,0,91.4,0,115.6
		c0,24.3,2.3,112.2-115.6,112.2c-119.1,0-158.4-63.6-158.4-127.2C2222.5,1905.6,2221.3,1727.6,2221.3,1720.6z"/>
	<path class="st0" d="M0,1898.7c0,64.8,1.2,159.6,1.2,168.8s0,13.9,22,15c22,1.2,108.7,0,134.1,0c105.2,0,158.4-75.2,158.4-183.9
		c0-180.4-100.6-202.4-172.3-202.4H16.2c-10.4,0-17.3,1.2-17.3,12.7C-1.2,1720.6,0,1833.9,0,1898.7z M133,2043.2
		c48.6,0,98.3-6.9,98.3-154.9c0-146.9-55.5-149.2-102.9-149.2H98.3c-4.6,0-13.9-1.2-13.9,9.3v293.7
		C84.4,2040.9,111,2043.2,133,2043.2z"/>
	<rect x="-1.2" y="30.1" class="st0" width="2500" height="1483.6"/>
	<path class="st1" d="M1187.6,899.6l-301.8,30.1l-540-540c0,0,352.7-22,994.4,35.8s996.8,156.1,996.8,259
		C2337,959.7,600.1,1228,600.1,1228l154.9-242.8L159.6,395.5l142.2-5.8l570.1,570.1c0,0,1400.3-123.7,1400.3-271.7
		c0-89-625.6-166.5-930.9-192c-274.1-22-575.9-20.8-575.9-20.8L1187.6,899.6z"/>
</g>
</svg>
