<?xml version="1.0" encoding="utf-8"?>
<!-- Generator: Adobe Illustrator 24.2.1, SVG Export Plug-In . SVG Version: 6.00 Build 0)  -->
<svg version="1.1" id="Layer_1" xmlns="http://www.w3.org/2000/svg" xmlns:xlink="http://www.w3.org/1999/xlink" x="0px" y="0px"
	 viewBox="0 0 2500 2141" style="enable-background:new 0 0 2500 2141;" xml:space="preserve">
<style type="text/css">
	.st0{fill-rule:evenodd;clip-rule:evenodd;fill:#FFFFFF;}
	.st1{fill-rule:evenodd;clip-rule:evenodd;fill:#231F20;}
	.st2{fill-rule:evenodd;clip-rule:evenodd;fill:#FFF100;}
	.st3{fill-rule:evenodd;clip-rule:evenodd;fill:#EC1C24;}
	.st4{fill-rule:evenodd;clip-rule:evenodd;fill:#00A551;}
</style>
<g>
	<polygon class="st0" points="763.2,70.6 788.3,67.3 837.4,60.8 862.5,56.4 886.5,53.1 910.5,49.9 935.6,46.6 959.6,43.3 
		984.7,40.1 1057.9,29.1 1081.9,25.9 1107,22.6 1132.1,19.3 1156.1,15 1180.1,11.7 1229.2,5.1 1258.7,0.8 1286,5.1 1335.1,11.7 
		1359.1,15 1384.2,19.3 1408.2,22.6 1433.3,25.9 1457.3,29.1 1530.5,40.1 1555.6,43.3 1579.6,46.6 1603.6,49.9 1627.6,53.1 
		1652.7,56.4 1676.7,60.8 1725.8,67.3 1749.8,70.6 1773.8,73.9 1797.8,77.2 1822.9,80.4 1847,84.8 1872.1,88.1 1896.1,91.3 
		1920.1,94.6 1945.2,97.9 1969.2,101.2 1994.3,105.5 2018.3,108.8 2067.4,115.4 2067.4,189.6 2067.4,189.6 2067.4,314 2067.4,314 
		2067.4,348.9 2069.6,348.9 2074,472.2 2075.1,572.7 2072.9,668.7 2067.4,760.4 2058.7,847.7 2047.8,931.7 2033.6,1012.5 
		2017.2,1088.9 1997.6,1162 1975.7,1230.8 1952.8,1297.3 1927.7,1360.6 1900.4,1420.7 1871,1477.4 1840.4,1532 1808.8,1582.2 
		1776,1631.3 1742.2,1678.2 1708.3,1721.9 1672.3,1763.4 1636.3,1802.7 1600.3,1840.9 1563.2,1875.8 1527.2,1909.6 1490.1,1941.3 
		1454.1,1971.8 1418,2001.3 1382,2028.6 1348.2,2054.8 1314.4,2079.9 1281.6,2103.9 1232.5,2141 1167,2096.3 1119,2062.4 
		1072.1,2026.4 1027.3,1990.4 983.7,1951.1 940,1911.8 898.5,1870.3 859.2,1827.8 821,1784.1 783.9,1739.4 749,1692.4 715.2,1644.4 
		683.5,1594.2 653,1542.9 624.6,1490.5 597.3,1437 572.2,1380.3 549.3,1323.5 528.5,1265.7 508.9,1205.7 492.5,1143.5 476.2,1081.2 
		463.1,1015.8 452.1,950.3 443.4,882.6 436.9,813.9 432.5,742.9 429.2,670.9 429.2,596.7 431.4,522.5 436.9,445 444.5,352.2 
		444.5,254 444.5,254 444.5,247.4 444.5,247.4 444.5,115.4 494.7,108.8 518.7,105.5 543.8,101.2 567.8,97.9 591.8,94.6 616.9,91.3 
		641,88.1 666.1,84.8 690.1,80.4 715.2,77.2 739.2,73.9 	"/>
	<path class="st1" d="M474,372.9c521.7-224.8,1043.4-199.7,1565.1,0c63.3,1127.4-475.9,1485.4-806.5,1733.1
		C710.8,1769.9,387.8,1208.9,474,372.9L474,372.9z"/>
	<path class="st2" d="M513.3,399.1c40.4-17.5,81.9-32.7,124.4-48l95-29.5l95-25.1l95-18.6l95-14.2l95-8.7l95-4.4l95,1.1l95,5.5
		l95,10.9l95,15.3l95,19.6l95,24l95,28.4c41.5,14.2,81.9,27.3,122.2,42.6l3.3,79.7l1.1,98.2l-2.2,92.8l-5.5,89.5l-7.6,85.1
		l-10.9,80.8l-13.1,77.5l-16.4,73.1l-18.6,69.8l-19.6,66.6l-22.9,63.3l-24,60l-26.2,57.8l-27.3,54.6l-28.4,51.3l-29.5,49.1
		l-30.6,46.9l-32.7,44.7l-32.7,41.5l-33.8,39.3l-33.8,38.2l-34.9,36l-72,65.5l-69.8,60c-33.8,27.3-68.8,54.6-102.6,80.8
		c-26.2,19.6-51.3,39.3-77.5,58.9l-73.1-51.3l-44.7-33.8l-43.7-36l-41.5-37.1l-40.4-38.2l-39.3-39.3l-38.2-40.4l-36-41.5l-34.9-43.7
		l-33.8-44.7l-32.7-45.8l-30.6-48l-28.4-49.1l-27.3-50.2l-25.1-51.3l-24-52.4l-21.8-54.6l-19.6-55.7l-18.6-57.8l-16.4-58.9
		l-14.2-62.2l-13.1-62.2l-9.8-63.3l-8.7-65.5l-6.5-66.6l-4.4-68.8l-2.2-69.8v-70.9l7.6-68.8l4.4-75.3L513.3,399.1L513.3,399.1z
		 M1400.6,1705.5c5.5-15.3-13.1-9.8-16.4-16.4c-3.3-6.5-2.2-13.1,7.6-21.8c20.7-13.1,45.8-5.5,68.8-2.2c5.5,2.2,6.5,10.9,2.2,26.2
		l-16.4,49.1c-7.6,3.3-20.7,4.4-28.4,7.6c-6.5,4.4-7.6,7.6-3.3,9.8c6.5,2.2,14.2-2.2,19.6,0c-26.2,121.1-162.6,74.2-115.7,18.6
		c43.7,26.2,45.8-34.9,16.4-29.5c-36,6.5-37.1,38.2-37.1,49.1c-1.1,54.6,132.1,86.2,165.9-39.3c9.8-5.5,18.6-4.4,28.4-8.7
		c4.4-2.2,4.4-6.5,1.1-8.7c-6.5,0-17.5,2.2-24,1.1c4.4-15.3,9.8-38.2,15.3-54.6c4.4-16.4,3.3-12,19.6-14.2
		c32.7-3.3,66.6,8.7,99.3-21.8c-91.7,26.2-197.5-44.7-243.4,26.2c-5.5,8.7-6.5,15.3-3.3,24
		C1360.2,1715.4,1386.4,1718.6,1400.6,1705.5L1400.6,1705.5z M996.8,1783c-9.8,40.4,54.6,60,79.7,46.9c25.1-13.1,40.4-48,12-70.9
		c-49.1-20.7-138.6-57.8-77.5-120.1c20.7-5.5,39.3-13.1,75.3,12c5.5-2.2,9.8-3.3,15.3-4.4c12,20.7,12,28.4,12,52.4
		c-6.5-7.6-12-15.3-18.6-24c-8.7-5.5-17.5-9.8-26.2-15.3c-30.6-12-52.4-6.5-33.8,29.5c52.4,33.8,113.5,46.9,100.4,112.4
		c-2.2,26.2-34.9,46.9-50.2,49.1c-76.4,1.1-109.1-12-111.3-72c1.1-17.5,9.8-27.3,27.3-28.4c26.2-3.3,29.5,20.7,14.2,37.1
		C1008.8,1787.4,1003.3,1785.2,996.8,1783L996.8,1783z M1016.4,470.1c-3.3-26.2-2.2-32.7,33.8-49.1c28.4-13.1,51.3-14.2,79.7-21.8
		c14.2-16.4,19.6-16.4,38.2-20.7c1.1-4.4,1.1-7.6,1.1-12c-13.1-8.7-19.6-14.2-29.5-27.3c1.1-4.4,1.1-8.7,1.1-13.1
		c4.4,1.1,7.6,1.1,12,1.1c-1.1-4.4-3.3-8.7-4.4-13.1c14.2,1.1,27.3,2.2,40.4,3.3c0-4.4,0-7.6,0-12c0-6.5,0-12,0-18.6
		c1.1-5.5,4.4-7.6,8.7-4.4c8.7,9.8,16.4,20.7,25.1,30.6c1.1-12,3.3-19.6,4.4-31.7c0-5.5,3.3-7.6,9.8-4.4c8.7,16.4,15.3,29.5,24,45.8
		c18.6-6.5,44.7-4.4,72,1.1c-2.2,3.3-4.4,6.5-5.5,9.8c9.8,3.3,20.7,6.5,30.6,9.8c-1.1,3.3-1.1,5.5-1.1,8.7
		c30.6,3.3,46.9,7.6,76.4,19.6c-16.4,4.4-32.7,8.7-49.1,14.2c-8.7,4.4-8.7,8.7,0,13.1c31.7,10.9,62.2,25.1,93.9,63.3
		c-1.1,3.3-2.2,5.5-3.3,8.7c-36-27.3-68.8-42.6-95-39.3c-3.3,4.4-1.1,8.7,5.5,14.2c33.8,26.2,68.8,42.6,102.6,43.7
		c-28.4,5.5-56.8,5.5-84-6.5c-2.2,5.5-4.4,12,0,17.5c19.6,13.1,34.9,26.2,77.5,32.7c0,3.3-8.7,3.3-8.7,6.5
		c-28.4,2.2-46.9-7.6-75.3-21.8c-5.5,3.3-7.6,6.5-6.5,13.1c19.6,29.5,39.3,61.1,66.6,85.1c-3.3,1.1-5.5,2.2-8.7,3.3
		c-34.9-22.9-49.1-41.5-69.8-61.1c-2.2,5.5-7.6,12,0,17.5c24,24,44.7,41.5,77.5,88.4c-1.1,5.5-4.4,7.6-8.7,4.4
		c-28.4-29.5-29.5-27.3-69.8-32.7c1.1,32.7,54.6,30.6,85.1,82.9c-2.2,1.1-1.1,4.4-3.3,5.5c-28.4-15.3-27.3-14.2-58.9-6.5
		c12,8.7,24,17.5,37.1,25.1c0,3.3,0,5.5,0,8.7c-20.7-8.7-38.2-8.7-56.8-8.7c16.4,13.1,32.7,26.2,49.1,39.3c5.5,4.4,4.4,7.6-5.5,8.7
		c-17.5-6.5-36-12-53.5-18.6c18.6,17.5,33.8,30.6,52.4,48c4.4,6.5,2.2,9.8-2.2,12c-34.9-20.7-39.3-29.5-77.5-20.7
		c0,5.5,0,9.8,0,15.3c36,0,31.7-4.4,53.5,24c-15.3-7.6-19.6-8.7-37.1-8.7c7.6,15.3,12,30.6,34.9,45.8c36,27.3-46.9-5.5-62.2-25.1
		c-16.4-10.9-31.7-18.6-48-24c-3.3,14.2-5.5,28.4,0,42.6c17.5,28.4,34.9,57.8,51.3,86.2c14.2,15.3,28.4,33.8,42.6,49.1
		c18.6,14.2,30.6,29.5,49.1,43.7c48,41.5,103.7,68.8,103.7,141.9c117.9,33.8,136.4-170.3,121.1-189.9
		c-54.6-124.4-17.5-219.4,60-273.9c0,3.3,0,5.5,0,8.7c-36,41.5-43.7,52.4-58.9,104.8c2.2,8.7,2.2,21.8,14.2,18.6
		c16.4-19.6,34.9-36,56.8-51.3c8.7,2.2,12,6.5,5.5,14.2c-28.4,43.7-34.9,52.4-40.4,104.8c4.4,2.2,7.6,4.4,12,5.5
		c12-13.1,22.9-25.1,33.8-38.2c8.7,3.3,9.8,8.7,3.3,15.3c-33.8,25.1,1.1,149.5-6.5,194.3c-10.9,62.2-46.9,81.9-95,121.1
		c12,48,8.7,56.8-3.3,104.8c-4.4-32.7,3.3-52.4-24-70.9c-2.2,65.5-48,104.8-39.3,99.3c13.1-38.2,24-48,8.7-85.1
		c-6.5,19.6-14.2,38.2-20.7,57.8c2.2-19.6,3.3-92.8-1.1-86.2c-4.4,1.1-8.7,1.1-13.1,1.1c-26.2,85.1-49.1,107-120.1,157.2
		c-9.8,6.5-19.6,13.1-29.5,19.6c-6.5,28.4-2.2,36,6.5,65.5c5.5,12,9.8,22.9,15.3,33.8c0,26.2,1.1,25.1-15.3,45.8
		c-14.2,5.5-27.3,9.8-40.4,15.3c-20.7,20.7-41.5,41.5-63.3,62.2c-4.4,28.4-5.5,21.8-33.8,29.5c2.2,7.6,4.4,15.3,5.5,22.9
		c-33.8,25.1-41.5,28.4-82.9,37.1c-2.2-4.4-4.4-7.6-6.5-12c6.5-13.1,12-25.1,18.6-38.2c14.2-17.5,25.1-43.7,48-43.7
		c1.1-4.4,1.1-7.6,1.1-12c8.7-6.5,19.6-13.1,28.4-19.6c24-22.9,44.7-45.8,67.7-67.7c5.5-8.7,5.5-17.5,4.4-25.1
		c-4.4-7.6-8.7-15.3-13.1-22.9c-4.4-12-8.7-22.9-14.2-33.8c-5.5,1.1-12,2.2-16.4,3.3c-7.6,25.1-2.2,26.2-28.4,22.9
		c-22.9-10.9-45.8-21.8-68.8-32.7c-19.6-3.3-39.3-5.5-58.9-8.7c-22.9-3.3-33.8-2.2-51.3-14.2c-12,1.1-22.9,1.1-33.8,1.1
		c-2.2,3.3-4.4,5.5-6.5,8.7c-39.3,2.2-29.5,3.3-61.1-25.1c-5.5-12-15.3-25.1-19.6-37.1c30.6-5.5,46.9-6.5,77.5-3.3
		c5.5,4.4,9.8,7.6,15.3,12c29.5,2.2,48,0,73.1,15.3c24,5.5,49.1,12,73.1,17.5c10.9-1.1,20.7-2.2,32.7-3.3c3.3-6.5,5.5-12,8.7-18.6
		c-2.2-7.6-4.4-15.3-5.5-22.9c-24-14.2-39.3-41.5-41.5-70.9c0,0-21.8-22.9-26.2-41.5c-8.7-43.7-33.8-79.7,7.6-87.3
		c6.5-12-32.7-33.8-44.7-42.6c-50.2-41.5-101.5-72-108-140.8c-9.8-1.1-20.7-1.1-30.6-1.1c-32.7,3.3-30.6-2.2-53.5-24
		c-27.3-8.7-50.2-25.1-69.8-46.9c0,0-18.6-13.1-28.4-13.1c-14.2,0,4.4,86.2-1.1,97.1c14.2,15.3,15.3,12,14.2,32.7
		c13.1,16.4,20.7,19.6,22.9,41.5c2.2,5.5,4.4,9.8,5.5,15.3c27.3,5.5,18.6-1.1,22.9,24c3.3,15.3-1.1,36-1.1,36
		c-2.2,6.5-4.4,14.2-5.5,20.7c0,0-18.6-5.5-26.2-14.2c-18.6-18.6-20.7-14.2-16.4-39.3c-12-5.5-12-7.6-19.6-18.6c0,0,4.4-4.4-5.5-12
		c-16.4-12-13.1-8.7-13.1-29.5c0-12,0-12,0-18.6s5.5-5.5-1.1-20.7c-6.5-15.3-4.4-4.4-13.1-25.1c-4.4-8.7-1.1-25.1-1.1-28.4
		c-8.7-25.1-8.7-33.8-12-32.7c-1.1,8.7-2.2,17.5-3.3,25.1c0,4.4,0,7.6,0,12c-8.7,17.5-12,24-24,43.7c-16.4,4.4-26.2,7.6-26.2-18.6
		c0-27.3-1.1-30.6,12-54.6c1.1-6.5,3.3-12,4.4-18.6c0,0,0-9.8,0-19.6c0-29.5,4.4-61.1,24-85.1c12-14.2,25.1-60,29.5-78.6
		c2.2-24-3.3-26.2,18.6-36c3.3-14.2,36-16.4,46.9-9.8c6.5,4.4,19.6,17.5,19.6,17.5c26.2,16.4,52.4,29.5,76.4,56.8
		c9.8,0,20.7,0,30.6,0c8.7-6.5,17.5-13.1,26.2-19.6c1.1-12,38.2-34.9,46.9-29.5c14.2-34.9,27.3-50.2,55.7-78.6
		c-5.5-2.2,49.1-93.9,57.8-93.9c2.2-9.8,8.7-39.3-4.4-42.6c-16.4,5.5-62.2-2.2-70.9-15.3c-5.5,0-6.5,2.2-12,2.2
		c-5.5,1.1-9.8,3.3-15.3,4.4c-12,9.8-14.2,3.3-27.3,7.6c-8.7,0-20.7,3.3-24-4.4c-5.5-12,5.5-9.8,13.1-10.9c3.3-1.1,6.5-2.2,9.8-3.3
		c15.3-5.5,3.3-5.5-6.5-12c-4.4,1.1-7.6,2.2-12,3.3c-3.3,0-6.5,0-9.8,0c-3.3,0-5.5,0-8.7,0C1013.1,482.1,1017.5,484.3,1016.4,470.1
		L1016.4,470.1z M1045.9,447.1c5.5,0,8.7,5.5,8.7,12c-1.1,6.5-5.5,12-9.8,12c-4.4,0-8.7-5.5-8.7-12
		C1036,452.6,1040.4,447.1,1045.9,447.1L1045.9,447.1z M815.6,860.8c18.6-3.3,38.2-6.5,62.2-1.1c12,3.3,38.2,8.7,51.3,6.5
		c-10.9-14.2-18.6-30.6-29.5-44.7c-8.7-9.8-19.6-19.6-28.4-30.6c-12-6.5-15.3-7.6-27.3-3.3c-9.8,8.7-12,15.3-16.4,27.3
		C827.6,834.6,825.4,844.4,815.6,860.8L815.6,860.8z M1092.8,745.1c-5.5,4.4-4.4,8.7,1.1,14.2c29.5-3.3,37.1-8.7,64.4,3.3
		c12,1.1,26.2-7.6,15.3-16.4C1150.6,726.5,1119,739.6,1092.8,745.1L1092.8,745.1z M1151.7,693.8c-2.2,49.1,76.4-87.3,80.8-92.8
		c6.5-20.7,3.3-29.5-7.6-25.1C1199.8,615.2,1175.7,654.5,1151.7,693.8L1151.7,693.8z M1194.3,403.5c6.5,0,12,4.4,12,9.8
		c0,5.5-1.1,9.8-7.6,9.8c-6.5,0-14.2-8.7-14.2-14.2S1186.7,403.5,1194.3,403.5L1194.3,403.5z M864.7,915.4
		c28.4,12,44.7,29.5,62.2,38.2c20.7,9.8,31.7,1.1,21.8-10.9C913.8,925.2,881.1,899,864.7,915.4L864.7,915.4z M814.5,866.2
		c9.8,6.5,10.9,7.6,7.6,24c1.1,18.6-1.1,45.8-15.3,10.9c-2.2-3.3-3.3-7.6-5.5-10.9C801.4,879.3,805.8,871.7,814.5,866.2L814.5,866.2
		z M871.2,718.9c-2.2,12-3.3,13.1-16.4,15.3c-14.2,6.5-36,15.3-13.1-10.9c2.2-3.3,4.4-5.5,6.5-8.7
		C857.1,710.2,863.6,712.4,871.2,718.9L871.2,718.9z M929.1,830.2c-15.3-1.1-16.4-2.2-21.8-17.5c-10.9-16.4-24-41.5,10.9-17.5
		c4.4,2.2,7.6,5.5,12,7.6C937.8,811.7,936.7,820.4,929.1,830.2L929.1,830.2z M955.3,883.7c-4.4-21.8,0-25.1,19.6-38.2
		c19.6-20.7,25.1-44.7,18.6-6.5c-2.2,6.5-4.4,13.1-6.5,19.6C978.2,870.6,971.7,890.3,955.3,883.7L955.3,883.7z M1320.9,984.1
		c-6.5,49.1-75.3-86.2-66.6-90.6c-6.5-20.7,2.2-26.2,14.2-21.8C1278.3,909.9,1280.5,945.9,1320.9,984.1L1320.9,984.1z
		 M1209.6,1158.7c-22.9,9.8-113.5-82.9-120.1-88.4c-13.1-21.8-12-31.7,2.2-29.5C1129.9,1081.2,1173.6,1130.4,1209.6,1158.7
		L1209.6,1158.7z M1234.7,1253.7c14.2,7.6,18.6,6.5,15.3-5.5c-19.6-36-32.7-38.2-50.2-58.9c-12-2.2-15.3-3.3-9.8,3.3
		C1206.3,1218.8,1222.7,1233,1234.7,1253.7L1234.7,1253.7z M1319.8,1218.8c0,25.1-6.5,50.2-27.3,75.3c-6.5-1.1-12-2.2-18.6-3.3
		c-8.7,3.3-12,7.6-6.5,10.9c3.3,3.3,6.5,6.5,10.9,9.8c-9.8,31.7-16.4,63.3-3.3,95c14.2,6.5,18.6,3.3,15.3-10.9
		c-22.9-36-4.4-58.9,10.9-81.9c6.5,19.6-13.1,54.6,2.2,58.9c14.2-25.1,42.6-68.8,6.5-69.8c18.6-25.1,28.4-66.6,28.4-79.7
		C1339.5,1195.8,1326.4,1195.8,1319.8,1218.8L1319.8,1218.8z M1320.9,1082.3c16.4,10.9,13.1,14.2-1.1,29.5
		c-8.7,18.6-2.2,34.9-16.4,9.8c-1.1-4.4-2.2-8.7-3.3-14.2C1303.4,1098.7,1299.1,1084.5,1320.9,1082.3L1320.9,1082.3z M1514.1,1236.2
		c-12,12-10.9,17.5-7.6,40.4c-1.1,28.4-8.7,48,5.5,17.5c2.2-5.5,3.3-12,5.5-17.5C1518.4,1261.3,1523.9,1243.9,1514.1,1236.2
		L1514.1,1236.2z M1625.4,1207.9c108-67.7,41.5-134.2,70.9-213.9c-48,58.9,13.1,144.1-87.3,201.9
		C1580.7,1208.9,1593.8,1219.9,1625.4,1207.9L1625.4,1207.9z M1361.3,1561.5c-4.4,16.4-8.7,17.5-30.6,27.3
		c-24,15.3-36,32.7-17.5,4.4c4.4-4.4,7.6-8.7,13.1-14.2C1338.4,1570.2,1350.4,1556,1361.3,1561.5L1361.3,1561.5z"/>
	<polygon class="st0" points="474,218 1260.9,100.1 2038,218 2038,285.6 1260.9,159 474,285.6 	"/>
	<path class="st3" d="M2038,282.3c0,26.2,0,54.6,0,85.1c-622.1-200.8-968.1-212.8-1562.9,0c0-30.6,0-58.9,0-85.1l785.8-121.1
		L2038,282.3L2038,282.3z"/>
	<path class="st4" d="M474,143.7c260.8-37.1,522.8-74.2,783.6-111.3c259.8,37.1,519.5,74.2,780.4,111.3c0,26.2,0,50.2,0,73.1
		l-778.2-114.6L474,216.9C474,195,474,171,474,143.7L474,143.7z"/>
</g>
</svg>
