<?xml version="1.0" encoding="utf-8"?>
<!-- Generator: Adobe Illustrator 24.2.1, SVG Export Plug-In . SVG Version: 6.00 Build 0)  -->
<svg version="1.1" id="Layer_1" xmlns="http://www.w3.org/2000/svg" xmlns:xlink="http://www.w3.org/1999/xlink" x="0px" y="0px"
	 viewBox="0 0 2500 2141" style="enable-background:new 0 0 2500 2141;" xml:space="preserve">
<style type="text/css">
	.st0{fill:#929497;}
	.st1{fill:url(#SVGID_1_);}
	.st2{fill:url(#SVGID_2_);}
	.st3{fill:#FFFFFF;}
	.st4{fill:url(#SVGID_3_);}
	.st5{fill:#221E1F;}
	.st6{fill:#700F10;}
	.st7{fill:#929395;}
</style>
<g>
	<g>
		<ellipse cx="1237.6" cy="1088.9" rx="1052.1" ry="1052.1"/>
		<path class="st0" d="M487.5,310.6c-200.1,200.1-310.6,466.5-310.6,750.1s110.5,548.8,310.6,750.1
			c200.1,200.1,466.5,310.6,750.1,310.6s548.8-110.5,750.1-310.6c200.1-200.1,310.6-466.5,310.6-750.1s-110.5-548.8-310.6-750.1
			C1787.6,110.5,1521.2,0,1237.6,0S687.6,110.5,487.5,310.6z"/>
		
			<linearGradient id="SVGID_1_" gradientUnits="userSpaceOnUse" x1="318.9591" y1="1287.2791" x2="2408.3987" y2="1287.2791" gradientTransform="matrix(0 1 -1 0 2524.8918 -303)">
			<stop  offset="5.618000e-03" style="stop-color:#D0D2D3"/>
			<stop  offset="0.5281" style="stop-color:#F1F1F2"/>
			<stop  offset="1" style="stop-color:#D0D2D3"/>
		</linearGradient>
		<path class="st1" d="M498.6,321.6C695,125.2,957.7,16,1237.6,16c278.7,0,541.4,108,739,305.7c196.4,196.4,305.7,459.1,305.7,739
			c0,278.7-108,541.4-305.7,739c-196.4,196.4-459.1,305.7-739,305.7c-278.7,0-541.4-108-739-305.7
			c-196.4-196.4-305.7-459.1-305.7-739C192.9,780.8,302.2,519.3,498.6,321.6z"/>
		
			<radialGradient id="SVGID_2_" cx="1865.5176" cy="2313.8503" r="1996.3796" gradientTransform="matrix(1 0 0 1 0 -519.8898)" gradientUnits="userSpaceOnUse">
			<stop  offset="0" style="stop-color:#F1F1F2"/>
			<stop  offset="1" style="stop-color:#7F8084"/>
		</radialGradient>
		<path class="st2" d="M723.2,1842.7c71.2,43,149.8,70,149.8,70c90.8,29.5,240.6,55.2,356,49.1c169.4,4.9,268.9-11,375.7-47.9
			c148.5-55.2,246.8-140,246.8-140s20.9-16,43-44.2c24.6-34.4,51.6-83.5,51.6-83.5s148.5-263.9,180.5-554.9
			c40.5-303.2-55.2-527.9-55.2-527.9s-9.8-30.7-28.2-62.6c-18.4-33.1-46.7-66.3-46.7-66.3c-208.7-208.7-466.5-282.4-762.4-282.4
			c-266.4,0-509.5,85.9-699.8,230.8c0,0-71.2,60.2-115.4,148.5C375.8,615,359.9,728,359.9,728s-30.7,229.6,20.9,491.1
			c43,233.3,146.1,418.6,146.1,418.6s31.9,62.6,68.7,108C595.6,1744.5,644.7,1800.9,723.2,1842.7z"/>
		<path class="st3" d="M1195.9,292.2c-112.9,2.5-250.4,18.4-348.6,39.3c-122.8,27-186.6,58.9-192.7,62.6c-4.9,2.5-63.8,27-95.8,81
			C523.1,532.8,517,616.3,517,620c0,1.2-7.4,89.6-7.4,186.6c0,24.6,1.2,49.1,1.2,73.7c7.4,144.9,33.1,279.9,33.1,282.4
			c0,1.2,22.1,135,52.8,255.3c34.4,131.4,79.8,255.3,81,256.6c1.2,1.2,13.5,38.1,44.2,67.5c28.2,27,71.2,46.7,74.9,47.9
			c4.9,2.5,78.6,38.1,164.5,57.7c99.4,23.3,212.4,28.2,212.4,28.2c1.2,0,146.1,2.5,260.3-12.3c111.7-14.7,195.2-46.7,198.9-49.1h1.2
			c1.2-1.2,39.3-17.2,68.7-33.1c24.6-14.7,41.7-27,43-28.2c3.7-2.5,28.2-20.9,45.4-52.8c18.4-33.1,31.9-76.1,33.1-81
			c2.5-6.1,31.9-98.2,55.2-198.9c33.1-138.7,63.8-303.2,63.8-305.7c0-1.2,22.1-142.4,27-271.3c1.2-18.4,1.2-35.6,1.2-52.8
			c0-94.5-8.6-173.1-9.8-175.6c-1.2-6.1-7.4-98.2-54-157.1c-45.4-58.9-126.4-82.3-133.8-84.7c-7.4-3.7-85.9-33.1-207.5-54l0,0
			C1463.5,298.3,1324.8,289.7,1195.9,292.2z"/>
		
			<radialGradient id="SVGID_3_" cx="1225.6875" cy="1631.2369" r="1011.7651" gradientTransform="matrix(1 0 0 1 0 -519.8898)" gradientUnits="userSpaceOnUse">
			<stop  offset="5.618000e-03" style="stop-color:#C3523D"/>
			<stop  offset="1" style="stop-color:#981F22"/>
		</radialGradient>
		<path class="st4" d="M1173.8,1851.3c-1.2,0-111.7-4.9-207.5-27c-83.5-18.4-158.4-55.2-159.6-56.5l0,0l0,0
			c-1.2,0-41.7-18.4-67.5-43c-25.8-24.6-38.1-57.7-38.1-57.7c-1.2-1.2-45.4-124-79.8-254.1c-31.9-120.3-52.8-252.9-52.8-254.1
			s-27-136.3-33.1-278.7c-6.1-120.3,6.1-255.3,6.1-257.8c0-1.2,6.1-81,38.1-133.8c29.5-46.7,83.5-71.2,84.7-71.2h1.2h1.2
			c1.2,0,65.1-33.1,186.6-60.2c97-20.9,232-36.8,345-39.3c127.7-2.5,265.2,6.1,367.1,24.6l0,0c122.8,20.9,201.3,52.8,202.6,52.8h1.2
			h1.2c1.2,0,79.8,22.1,121.5,76.1c43,55.2,49.1,144.9,49.1,144.9v1.2c0,1.2,8.6,78.6,8.6,173.1c0,17.2,0,34.4-1.2,52.8
			c-4.9,126.4-27,266.4-27,267.6c0,1.2-29.5,165.7-63.8,303.2c-24.6,103.1-57.7,192.7-57.7,195.2v1.2v1.2c0,1.2-11,46.7-29.5,78.6
			c-16,28.2-38.1,44.2-39.3,44.2l0,0l0,0c0,0-16,13.5-40.5,27c-27,16-65.1,31.9-66.3,33.1c-2.5,1.2-84.7,33.1-192.7,46.7
			C1318.6,1853.7,1176.2,1851.3,1173.8,1851.3z"/>
		<path class="st5" d="M1195.9,313c-111.7,2.5-248,17.2-345,39.3c-122.8,27-187.8,60.2-187.8,60.2h-1.2c-1.2,0-57.7,24.6-85.9,72.4
			c-31.9,52.8-38.1,132.6-39.3,136.3c0,1.2-12.3,138.7-6.1,257.8c7.4,140,33.1,272.5,33.1,279.9c0,1.2,22.1,133.8,52.8,254.1
			c33.1,130.1,79.8,252.9,79.8,254.1c0,0,12.3,33.1,38.1,60.2c25.8,24.6,68.7,44.2,68.7,44.2c1.2,1.2,74.9,36.8,159.6,56.5
			c92.1,20.9,196.4,27,208.7,27l0,0c6.1,0,146.1,2.5,257.8-12.3c108-14.7,190.3-46.7,192.7-47.9c1.2,0,38.1-17.2,66.3-33.1
			c24.6-13.5,40.5-25.8,40.5-27l0,0c1.2,0,24.6-17.2,40.5-46.7c18.4-31.9,29.5-77.3,29.5-79.8v-1.2c1.2-1.2,33.1-92.1,57.7-195.2
			c33.1-136.3,62.6-297.1,63.8-304.5c0-1.2,22.1-142.4,27-268.9c1.2-16,1.2-34.4,1.2-52.8c0-93.3-8.6-170.6-8.6-173.1v-1.2
			c0-1.2-7.4-92.1-50.3-147.3c-43-55.2-122.8-77.3-124-77.3c0,0,0,0-1.2,0h-1.2c-1.2,0-79.8-31.9-203.8-52.8
			C1461,319.2,1323.5,310.6,1195.9,313z M1173.8,1847.6L1173.8,1847.6c-12.3-1.2-115.4-6.1-207.5-27
			c-83.5-18.4-157.1-55.2-157.1-55.2h-1.2l0,0c-1.2,0-40.5-18.4-66.3-43c-24.6-24.6-36.8-56.5-36.8-56.5
			c-1.2-1.2-45.4-124-79.8-252.9c-31.9-120.3-52.8-252.9-52.8-252.9c-1.2-4.9-27-138.7-33.1-277.4c-6.1-119.1,6.1-255.3,6.1-256.6
			s6.1-81,38.1-132.6c27-46.7,82.3-68.7,82.3-68.7h1.2h1.2c1.2,0,63.8-33.1,186.6-60.2c97-20.9,232-36.8,343.7-39.3
			c127.7-2.5,263.9,6.1,367.1,24.6c122.8,20.9,201.3,52.8,201.3,52.8h1.2h1.2c1.2,0,79.8,22.1,120.3,74.9
			c41.7,52.8,49.1,142.4,49.1,142.4v1.2c0,3.7,8.6,79.8,8.6,173.1c0,18.4,0,35.6-1.2,51.6c-4.9,125.2-27,265.2-27,266.4
			c-1.2,7.4-30.7,168.2-63.8,303.2c-24.6,100.7-57.7,192.7-57.7,194v1.2v1.2c0,1.2-11,46.7-29.5,77.3c-14.7,27-38.1,43-38.1,43
			l-1.2,1.2l0,0c0,0-16,12.3-39.3,25.8c-28.2,16-66.3,31.9-66.3,31.9c-3.7,1.2-83.5,31.9-191.5,46.7
			C1319.9,1848.8,1179.9,1847.6,1173.8,1847.6z"/>
		<g>
			<path class="st6" d="M816.5,1762.9c-4.9-2.5-7.4-3.7-7.4-3.7s-1.2-1.2-3.7-1.2l-1.2-4.9c-19.6-108-49.1-305.7-57.7-546.3
				c-12.3-283.6-12.3-629.8-9.8-798v-12.3c3.7-1.2,6.1-2.5,9.8-3.7v12.3c-1.2,167-1.2,516.8,9.8,801.6
				c9.8,244.3,40.5,444.4,60.2,551.2L816.5,1762.9z"/>
			<path class="st6" d="M849.7,1777.6c-3.7-1.2-7.4-3.7-11-4.9l-1.2-7.4c-14.7-101.9-39.3-309.4-51.6-574.5
				c-12.3-282.4-9.8-637.1-8.6-798V383c3.7-1.2,7.4-1.2,9.8-3.7v9.8c-1.2,159.6-3.7,516.8,8.6,799.2
				c12.3,271.3,38.1,482.5,51.6,580.7L849.7,1777.6z"/>
			<path class="st6" d="M1087.8,338.8c2.5,311.8,9.8,1214.1,12.3,1475.6v22.1c-3.7,0-6.1-1.2-9.8-1.2v-20.9
				c-2.5-261.5-9.8-1160.1-12.3-1474.4v-9.8c3.7,0,7.4-1.2,9.8-1.2V338.8z"/>
			<path class="st6" d="M1219.2,335.1c1.2,273.8,3.7,1179.8,4.9,1486.7v20.9c-3.7,0-7.4,0-9.8,0v-23.3
				c-1.2-310.6-3.7-1219-4.9-1487.9v-7.4c3.7,0,6.1,0,9.8,0V335.1z"/>
			<path class="st6" d="M1270.8,336.4c-1.2,304.5-6.1,1217.8-7.4,1485.4v20.9c-3.7,0-7.4,0-9.8,0v-16
				c1.2-263.9,4.9-1188.4,7.4-1491.6v-9.8c3.7,0,7.4,0,9.8,0V336.4z"/>
			<path class="st6" d="M1408.3,1816.9c7.4-122.8,20.9-381.8,27-675.2c4.9-299.5,3.7-638.4,1.2-799.2l-1.2-9.8
				c3.7,0,7.4,1.2,12.3,1.2l1.2,13.5c1.2,162,3.7,498.4-1.2,795.5c-4.9,291-18.4,548.8-27,671.5l-1.2,18.4
				c-3.7,1.2-7.4,1.2-12.3,1.2L1408.3,1816.9z"/>
			<path class="st6" d="M1754.4,1695.4c-4.9,7.4-11,14.7-16,18.4l4.9-25.8c20.9-111.7,49.1-283.6,62.6-486.1
				c16-240.6,18.4-569.6,18.4-756.2v-18.4c3.7,2.5,7.4,4.9,12.3,7.4v23.3c0,189.1-2.5,508.2-18.4,743.9
				c-13.5,198.9-40.5,368.3-61.4,480L1754.4,1695.4z"/>
			<path class="st6" d="M1872.3,1292.7c8.6-71.2,17.2-148.5,23.3-233.3c12.3-184.1,12.3-391.6,11-523v-23.3
				c4.9,12.3,9.8,23.3,12.3,34.4v20.9c1.2,132.6,0,322.9-12.3,491.1c-2.5,35.6-4.9,71.2-8.6,104.3l-3.7,36.8
				c-7.4,40.5-18.4,88.4-29.5,137.5L1872.3,1292.7z"/>
			<path class="st6" d="M1711.5,1735.9c-3.7,2.5-8.6,4.9-13.5,8.6l3.7-20.9c20.9-114.2,51.6-319.2,63.8-558.6
				c13.5-262.7,13.5-575.8,12.3-735.4l-1.2-23.3c3.7,1.2,7.4,3.7,12.3,4.9l1.2,20.9c1.2,160.8,1.2,471.4-12.3,732.9
				c-12.3,233.3-43,434.6-62.6,550L1711.5,1735.9z"/>
			<path class="st6" d="M1560.5,1788.7c9.8-105.6,27-325.3,35.6-588c9.8-297.1,9.8-648.2,8.6-817.6v-24.6c3.7,1.2,8.6,1.2,12.3,2.5
				v23.3c1.2,170.6,1.2,520.5-8.6,816.4c-8.6,262.7-25.8,480-35.6,586.8l-1.2,13.5c-3.7,1.2-7.4,2.5-12.3,3.7L1560.5,1788.7z"/>
			<path class="st6" d="M1520,1797.3c9.8-89.6,27-263.9,35.6-491.1c9.8-329,9.8-745.2,7.4-936.7v-20.9c3.7,1.2,7.4,1.2,12.3,2.5
				l1.2,22.1c1.2,194,2.5,606.5-7.4,934.2c-7.4,223.4-23.3,395.3-34.4,486.1l-2.5,16c-3.7,1.2-8.6,2.5-12.3,3.7V1797.3z"/>
			<path class="st6" d="M1484.4,1805.9c8.6-94.5,23.3-283.6,29.5-511.9c9.8-320.4,7.4-725.5,4.9-936.7v-14.7
				c3.7,1.2,8.6,1.2,12.3,1.2v20.9c2.5,213.6,4.9,612.6-4.9,929.3c-6.1,224.7-20.9,411.3-29.5,508.2l-1.2,17.2
				c-3.7,1.2-7.4,1.2-12.3,2.5L1484.4,1805.9z"/>
			<path class="st6" d="M1445.1,1813.2c7.4-110.5,20.9-342.5,25.8-590.5c7.4-330.2,7.4-699.8,7.4-871.6v-13.5
				c3.7,1.2,7.4,1.2,12.3,1.2v14.7c0,174.3,0,540.2-7.4,869.2c-4.9,245.5-18.4,475.1-25.8,588v16c-4.9,1.2-7.4,1.2-12.3,2.5V1813.2z
				"/>
			<path class="st6" d="M1403.3,343.7c-1.2,176.8-2.5,578.2-7.4,919.5c-3.7,235.7-11,443.2-16,551.2l-1.2,22.1
				c-3.7,0-7.4,1.2-9.8,1.2l1.2-19.6c3.7-105.6,12.3-314.3,16-553.7c4.9-343.7,7.4-746.4,7.4-922v-12.3c3.7,0,7.4,1.2,9.8,1.2V343.7
				z"/>
			<path class="st6" d="M1353,336.4c1.2,155.9,3.7,460.4,1.2,748.9c-2.5,310.6-8.6,607.7-12.3,736.6v18.4c-3.7,0-7.4,1.2-9.8,1.2
				l1.2-14.7c3.7-125.2,9.8-424.8,12.3-739c1.2-286,0-588-1.2-745.2v-12.3c3.7,0,7.4,0,9.8,1.2L1353,336.4z"/>
			<path class="st6" d="M1313.7,335.1c2.5,179.2,4.9,498.4,3.7,800.4c-1.2,281.1-7.4,548.8-11,689.9v14.7c-3.7,0-7.4,0-9.8,1.2
				l1.2-17.2c3.7-141.2,9.8-408.8,11-688.7c1.2-300.8-1.2-618.7-3.7-798v-13.5c3.7,0,7.4,0,9.8,0L1313.7,335.1z"/>
			<path class="st6" d="M954,1812c-3.7-1.2-7.4-1.2-9.8-3.7l-1.2-7.4c-8.6-93.3-25.8-303.2-33.1-548.8
				c-9.8-314.3-6.1-707.1-3.7-892.5v-7.4c3.7-1.2,7.4-1.2,9.8-1.2v7.4c-2.5,184.1-4.9,578.2,3.7,893.7
				c7.4,249.2,24.6,461.6,33.1,552.4L954,1812z"/>
			<path class="st6" d="M886.5,1791.1c-3.7-1.2-7.4-2.5-11-3.7l-1.2-7.4c-16-131.4-45.4-414.9-55.2-716.9
				c-7.4-255.3-1.2-538.9,3.7-682.6v-9.8c3.7-1.2,7.4-1.2,9.8-2.5v9.8c-4.9,141.2-12.3,428.4-3.7,686.2
				c9.8,305.7,40.5,592.9,55.2,720.6L886.5,1791.1z"/>
			<g>
				<g>
					<path class="st6" d="M596.8,1268.1c-12.3-61.4-19.6-105.6-19.6-106.8l-1.2-27c-7.4-92.1-13.5-195.2-14.7-282.4
						c-1.2-103.1-1.2-207.5,0-283.6l-1.2-9.8c3.7-12.3,7.4-24.6,11-35.6l-1.2,55.2c-1.2,76.1-1.2,175.6,0,275
						c1.2,110.5,12.3,245.5,20.9,352.3L596.8,1268.1z"/>
				</g>
			</g>
			<g>
				<g>
					<path class="st6" d="M685.2,1594.7c-7.4-20.9-14.7-45.4-23.3-72.4l-6.1-35.6c-16-94.5-29.5-195.2-33.1-272.5
						c-20.9-257.8-22.1-554.9-20.9-712v-29.5c3.7-3.7,6.1-7.4,9.8-9.8v27c-1.2,154.7-1.2,460.4,20.9,723.1
						c4.9,90.8,23.3,212.4,41.7,320.4L685.2,1594.7z"/>
				</g>
			</g>
			<g>
				<g>
					<path class="st6" d="M734.3,1648.7c-20.9-104.3-46.7-257.8-60.2-434.6c-20.9-272.5-19.6-594.2-18.4-753.8v-33.1
						c-3.7,1.2-6.1,3.7-9.8,4.9v27c-2.5,159.6-2.5,480,18.4,753.8c13.5,175.6,38.1,329,60.2,433.4l13.5,62.6
						c2.5,2.5,4.9,4.9,7.4,7.4c1.2,1.2,3.7,3.7,4.9,4.9L734.3,1648.7z"/>
				</g>
			</g>
			<path class="st6" d="M919.7,1797.3c-9.8-85.9-25.8-260.3-33.1-471.4c-11-346.2-12.3-778.3-12.3-957.6v-8.6
				c-3.7,1.2-7.4,1.2-9.8,2.5v7.4c0,180.5,1.2,611.4,12.3,956.3c7.4,205,23.3,376.9,31.9,465.3l1.2,7.4c3.7,1.2,7.4,2.5,9.8,3.7
				L919.7,1797.3L919.7,1797.3z"/>
			<path class="st6" d="M703.6,407.6c-3.7,1.2-7.4,3.7-9.8,3.7v16c-3.7,162-7.4,483.7,4.9,697.3c18.4,300.8,55.2,514.4,73.7,606.5
				l1.2,8.6c3.7,2.5,8.6,4.9,12.3,7.4l-2.5-11c-18.4-87.2-56.5-303.2-74.9-612.6c-12.3-213.6-7.4-540.2-4.9-699.8V407.6"/>
			<path class="st6" d="M960.2,343.7c-3.7,1.2-7.4,1.2-9.8,1.2v8.6c-1.2,168.2-3.7,500.9,1.2,793.1c4.9,277.4,22.1,530.3,31.9,654.3
				l1.2,17.2c3.7,1.2,7.4,1.2,9.8,2.5l-1.2-16c-9.8-122.8-27-378.1-31.9-659.2c-4.9-292.2-3.7-624.9-1.2-793.1V343.7z"/>
			<path class="st6" d="M1004.4,338.8c-3.7,1.2-7.4,1.2-9.8,1.2v8.6c-2.5,137.5-6.1,421.1-1.2,703.4
				c6.1,321.6,23.3,624.9,30.7,758.7l1.2,16c3.7,1.2,7.4,1.2,9.8,1.2l-1.2-17.2c-7.4-132.6-24.6-435.8-30.7-758.7
				c-4.9-283.6-1.2-567.2,1.2-703.4V338.8z"/>
			<path class="st6" d="M1044.9,333.9c-3.7,0-7.4,1.2-9.8,1.2v8.6c-1.2,147.3-2.5,456.7,1.2,757.5c3.7,291,12.3,579.4,16,710.8
				l1.2,18.4c3.7,1.2,7.4,1.2,9.8,1.2l-1.2-20.9c-4.9-131.4-13.5-419.9-16-710.8c-3.7-300.8-1.2-612.6-1.2-758.7V333.9z"/>
			<path class="st6" d="M1133.3,326.6c-3.7,0-7.4,1.2-11,1.2v4.9c1.2,270.1,7.4,1190.8,9.8,1489.1v18.4c3.7,0,7.4,1.2,9.8,1.2V1823
				c-1.2-297.1-7.4-1220.3-9.8-1489.1L1133.3,326.6z"/>
			<path class="st6" d="M1176.2,325.3c-3.7,0-7.4,0-9.8,0v9.8c1.2,286,2.5,1206.8,2.5,1483v24.6c2.5,0,4.9,0,4.9,0
				c1.2,0,2.5,0,4.9,0v-25.8c-1.2-277.4-2.5-1195.7-2.5-1481.8L1176.2,325.3L1176.2,325.3z"/>
			<path class="st6" d="M1596.1,1773.9c14.7-125.2,41.7-384.3,52.8-694.8c8.6-232,1.2-541.4-2.5-696.1l-1.2-16
				c3.7,1.2,8.6,2.5,12.3,3.7l1.2,17.2c4.9,155.9,11,464,2.5,692.4c-11,310.6-38.1,568.4-52.8,694.8l-1.2,14.7
				c-3.7,1.2-7.4,2.5-12.3,3.7L1596.1,1773.9z"/>
			<path class="st6" d="M1646.4,1755.5c12.3-109.3,33.1-325.3,45.4-592.9c12.3-257.8,12.3-591.7,9.8-768.5v-12.3
				c-3.7-1.2-7.4-2.5-12.3-3.7v14.7c1.2,176.8,2.5,510.7-9.8,768.5c-12.3,272.5-33.1,489.8-45.4,596.6l-2.5,19.6
				c3.7-1.2,7.4-3.7,12.3-6.1L1646.4,1755.5z"/>
			<path class="st6" d="M1684.5,1732.2c14.7-97,33.1-257.8,44.2-461.6c16-303.2,19.6-689.9,19.6-863v-12.3
				c-3.7-1.2-7.4-2.5-12.3-3.7v12.3c-1.2,170.6-3.7,561-19.6,866.7c-12.3,212.4-31.9,375.7-46.7,472.6l-3.7,18.4
				c4.9-2.5,8.6-4.9,13.5-7.4L1684.5,1732.2z"/>
			<path class="st6" d="M1791.3,1605.8c0,0,11-30.7,24.6-74.9l4.9-33.1c16-112.9,34.4-252.9,45.4-406.3
				c16-203.8,12.3-450.5,7.4-599.1l-1.2-28.2c-3.7-3.7-8.6-7.4-12.3-12.3l1.2,23.3c4.9,146.1,8.6,405.1-7.4,615
				c-13.5,176.8-35.6,338.8-52.8,457.9L1791.3,1605.8z"/>
		</g>
		<polygon points="747.8,674 768.7,1496.5 870.5,1498.9 870.5,1122.1 954,1122.1 954,1027.5 870.5,1027.5 870.5,777.1 983.5,777.1 
			983.5,674 		"/>
		<polygon class="st7" points="738,666.6 761.3,1487.9 862,1490.4 862,1114.7 946.7,1114.7 946.7,1020.2 862,1020.2 862,769.7 
			974.9,769.7 974.9,666.6 		"/>
		<polygon class="st3" points="730.6,658 753.9,1480.5 853.4,1481.8 853.4,1106.1 938.1,1106.1 938.1,1011.6 853.4,1011.6 
			853.4,761.1 967.5,761.1 967.5,658 		"/>
		<polygon points="1033.8,674 1141.9,674 1148,1487.9 1043.6,1487.9 		"/>
		<polygon class="st7" points="1026.5,670.3 1133.3,670.3 1139.4,1484.2 1033.8,1484.2 		"/>
		<polygon class="st3" points="1019.1,661.7 1125.9,661.7 1132,1476.8 1026.5,1476.8 		"/>
		<path d="M1209.4,676.4h236.9c0,0,58.9,126.4,79.8,303.2c24.6,219.7,12.3,509.5,12.3,509.5H1461l-12.3-369.5h-130.1l-1.2,369.5
			h-98.2L1209.4,676.4z M1443.9,1031.2c0,0-9.8-97-30.7-170.6c-14.7-54-40.5-89.6-40.5-89.6h-58.9v257.8L1443.9,1031.2z"/>
		<path class="st7" d="M1202,667.8h236.9c0,0,58.9,126.4,79.8,303.2c24.6,219.7,12.3,509.5,12.3,509.5h-77.3l-12.3-369.5H1310
			l-1.2,369.5h-98.2L1202,667.8z M1435.3,1022.6c0,0-9.8-97-30.7-170.6c-14.7-54-40.5-89.6-40.5-89.6h-58.9v257.8L1435.3,1022.6z"/>
		<path class="st3" d="M1193.4,659.2h236.9c0,0,58.9,126.4,79.8,303.2c24.6,219.7,12.3,509.5,12.3,509.5h-78.6l-12.3-369.5h-130.1
			l-1.2,369.5H1202L1193.4,659.2z M1426.7,1014c0,0-9.8-97-30.7-170.6c-14.7-54-40.5-89.6-40.5-89.6h-58.9v257.8L1426.7,1014z"/>
		<polygon points="1506.5,682.6 1787.6,682.6 1787.6,762.4 1702.9,762.4 1688.2,1497.7 1580.1,1497.7 1594.9,763.6 1504,763.6 		"/>
		<polygon class="st7" points="1513.8,675.2 1795,675.2 1795,753.8 1711.5,753.8 1696.7,1489.1 1588.7,1489.1 1602.2,756.2 
			1512.6,756.2 		"/>
		<polygon class="st3" points="1522.4,666.6 1802.3,666.6 1802.3,746.4 1718.8,746.4 1704.1,1481.8 1596.1,1481.8 1610.8,747.6 
			1521.2,747.6 		"/>
	</g>
</g>
</svg>
