<?xml version="1.0" encoding="utf-8"?>
<!-- Generator: Adobe Illustrator 24.2.3, SVG Export Plug-In . SVG Version: 6.00 Build 0)  -->
<svg version="1.1" id="Layer_1" xmlns="http://www.w3.org/2000/svg" xmlns:xlink="http://www.w3.org/1999/xlink" x="0px" y="0px"
	 viewBox="0 0 320 320" style="enable-background:new 0 0 320 320;" xml:space="preserve">
<style type="text/css">
	.st0{fill:url(#SVGID_1_);}
	.st1{fill:url(#SVGID_2_);}
	.st2{fill:#FFFFFF;}
	.st3{fill:url(#SVGID_3_);}
	.st4{fill:url(#SVGID_4_);}
	.st5{fill:url(#SVGID_5_);}
	.st6{fill:url(#SVGID_6_);}
</style>
<g>
	
		<radialGradient id="SVGID_1_" cx="167.69" cy="172.52" r="109.6396" gradientTransform="matrix(1 3.037016e-04 -1.872217e-04 0.6165 3.230722e-02 66.1164)" gradientUnits="userSpaceOnUse">
		<stop  offset="0.7203" style="stop-color:#FFFFFF"/>
		<stop  offset="1" style="stop-color:#000000"/>
	</radialGradient>
	<path class="st0" d="M268,156.6c-11.5-27.7-52-48.2-100.3-48.2c-57.2,0-103.6,28.7-103.6,64.1s46.4,64.1,103.6,64.1
		c6,0,11.9-0.3,17.6-0.9c48.8-5.1,86-31.5,86-63.2C271.3,167,270.1,161.7,268,156.6z M189.1,221c0.2,0,0.4-0.1,0.7-0.1
		c0.1,0,0.3,0,0.4-0.1c0.3-0.1,0.7-0.1,1-0.2c0.2,0,0.4-0.1,0.6-0.1c0.6-0.1,1.4-0.3,2.2-0.5c0.3-0.1,0.5-0.1,0.8-0.2
		c4.1-1,10.1-2.6,17.1-5.4c6.5-2.5,12-7.3,15.1-13.6c2.5-5.1,3.7-11.6,0.3-18.9c-7.7-20.5-51.1-17.1-51.1-17.1h-54.9l-1.4,0
		l-2.5-4.9c42.9-0.2,85.8-0.3,128.6-0.5c2.4,0,4.8,0,7.2,0c0,0,0,0,0,0.1c0,0.1,0.1,0.1,0.1,0.2c0.3,0.7,0.5,1.4,0.7,2.1
		c0,0.1,0.1,0.3,0.1,0.4c0.1,0.3,0.2,0.6,0.3,0.9c0.1,0.4,0.2,0.8,0.3,1.2c0.2,0.7,0.3,1.5,0.5,2.4c0.1,0.5,0.2,1,0.2,1.5
		c0,0.3,0.1,0.6,0.1,0.9c0.1,1.1,0.2,2.2,0.2,3.4c0,14.3-8.9,27.3-23.4,37C222.6,214.8,208.6,219,189.1,221z"/>
	
		<radialGradient id="SVGID_2_" cx="167.5555" cy="172.52" r="101.7803" gradientTransform="matrix(1 0 0 0.6077 0 67.6751)" gradientUnits="userSpaceOnUse">
		<stop  offset="0.7596" style="stop-color:#FFFFFF"/>
		<stop  offset="1" style="stop-color:#000000"/>
	</radialGradient>
	<path class="st1" d="M255.4,166.8c-0.1-0.8-0.3-1.6-0.5-2.4C255.1,165.1,255.3,165.9,255.4,166.8z M254.9,164.4
		c-0.1-0.4-0.2-0.9-0.3-1.2C254.7,163.6,254.8,164,254.9,164.4z M255.4,166.8c0.1,0.5,0.2,1,0.2,1.5
		C255.6,167.8,255.5,167.2,255.4,166.8z M252.1,156.6c-11-22.4-44.7-38.7-84.4-38.7c-48.7,0-88.2,24.5-88.2,54.6
		c0,30.2,39.5,54.6,88.2,54.6c3.2,0,6.3-0.1,9.4-0.3c21.9-1.4,41.3-7.8,55.5-17.3c-10,5.3-23.9,9.5-43.4,11.5c0.2,0,0.4-0.1,0.7-0.1
		c0.1,0,0.3,0,0.4-0.1c0.3-0.1,0.7-0.1,1-0.2c0.2,0,0.4-0.1,0.6-0.1c0.6-0.1,1.4-0.3,2.2-0.5c0.3-0.1,0.5-0.1,0.8-0.2
		c4.1-1,10.1-2.6,17.1-5.4c6.5-2.5,12-7.3,15.1-13.6c2.5-5.1,3.7-11.6,0.3-18.9c-7.7-20.5-51.1-17.1-51.1-17.1h-54.9l-1.4,0
		l-2.5-4.9c42.9-0.2,85.8-0.3,128.6-0.5c2.4,0,4.8,0,7.2,0c-0.3-0.9-0.7-1.7-1.1-2.5C252.2,156.8,252.2,156.7,252.1,156.6z"/>
	<path class="st2" d="M227.4,182c3.3,7.3,2.1,13.8-0.3,18.9c-3,6.3-8.6,11.1-15.1,13.6c-7.1,2.8-13,4.4-17.1,5.4
		c-0.3,0.1-0.5,0.1-0.8,0.2c-0.8,0.2-1.6,0.3-2.2,0.5c-0.2,0-0.4,0.1-0.6,0.1c-0.3,0.1-0.7,0.1-1,0.2c-0.1,0-0.3,0.1-0.4,0.1
		c-0.3,0.1-0.6,0.1-0.7,0.1c-0.1,0-0.1,0-0.2,0c-0.1,0-0.1,0-0.1,0c-5,0.8-10.3,1.4-15.6,1.6c-1.8,0.1-3.7,0.1-5.5,0.1
		c-44.9,0-81.2-22.5-81.2-50.3c0-27.8,36.4-50.3,81.2-50.3c34.2,0,63.5,13.1,75.4,31.6c0.6,0.9,1.1,1.8,1.6,2.7
		c0.1,0.2,0.2,0.3,0.3,0.5c0.4,0.8,0.8,1.6,1.1,2.4c-42.9,0.2-85.8,0.3-128.6,0.5l2.5,4.9l1.4,0h54.9
		C176.3,164.9,219.7,161.6,227.4,182z"/>
	
		<radialGradient id="SVGID_3_" cx="149.0833" cy="216.7642" r="97.0747" gradientTransform="matrix(0.9257 -0.3782 0.2214 0.5417 -36.9056 155.7216)" gradientUnits="userSpaceOnUse">
		<stop  offset="0.3498" style="stop-color:#FFFFFF"/>
		<stop  offset="1" style="stop-color:#000000"/>
	</radialGradient>
	<path class="st3" d="M227.1,200.9c-3,6.3-8.6,11.1-15.1,13.6c-7.1,2.8-13,4.4-17.1,5.4c-0.3,0.1-0.5,0.1-0.8,0.2
		c-0.8,0.2-1.6,0.3-2.2,0.5c-0.2,0-0.4,0.1-0.6,0.1c-0.3,0.1-0.7,0.1-1,0.2c-0.1,0-0.3,0.1-0.4,0.1c-0.3,0.1-0.6,0.1-0.7,0.1
		c-0.1,0-0.1,0-0.2,0c8.8-2.6,23.4-9.4,21.6-24.3c-0.9-7.1-7.5-11-13.3-13c-4.1-1.5-8.5-2.1-12.9-2.1h-50.1c-0.3,0-0.6,0-0.9-0.1
		c-3-0.3-5.7-2.1-7.1-4.9l-0.1-0.3l-6-11.6l1.4,0h54.9c0,0,43.3-3.3,51.1,17.1C230.7,189.3,229.5,195.8,227.1,200.9z"/>
	<linearGradient id="SVGID_4_" gradientUnits="userSpaceOnUse" x1="61.5731" y1="154.5368" x2="480.0775" y2="166.4373">
		<stop  offset="0" style="stop-color:#FFFFFF"/>
		<stop  offset="1" style="stop-color:#000000"/>
	</linearGradient>
	<path class="st4" d="M268,156.6c-4.9,1-9.7,1.9-14.6,2.9h-0.1c-2.4,0-4.8,0-7.2,0c-42.9,0.2-85.8,0.3-128.6,0.5l-1.7-3.3
		c19.6,0,39.2,0,58.8,0c23.4,0,46.7,0,70.1-0.1h7.4C257.4,156.6,262.7,156.6,268,156.6z"/>
	<linearGradient id="SVGID_5_" gradientUnits="userSpaceOnUse" x1="186.7143" y1="142.207" x2="186.7143" y2="344.0752">
		<stop  offset="0" style="stop-color:#FFFFFF"/>
		<stop  offset="1" style="stop-color:#000000"/>
	</linearGradient>
	<path class="st5" d="M255.9,172.5c0,14.3-8.9,27.3-23.4,37c-10,5.3-23.9,9.5-43.4,11.5c0.2,0,0.4-0.1,0.7-0.1c0.1,0,0.3,0,0.4-0.1
		c0.3,0,0.6-0.1,1-0.2c0.2,0,0.4-0.1,0.6-0.1c0.6-0.1,1.4-0.3,2.2-0.5c0.3-0.1,0.5-0.1,0.8-0.2c4.1-1,10.1-2.6,17.1-5.4
		c6.5-2.5,12-7.3,15.1-13.6c2.5-5.1,3.7-11.6,0.3-18.9c-7.7-20.5-51.1-17.1-51.1-17.1h-54.9l-1.4,0l-2.5-4.9
		c42.9-0.2,85.8-0.3,128.6-0.5c2.4,0,4.8,0,7.2,0c0,0,0,0,0,0.1c0,0.1,0.1,0.1,0.1,0.2c0.3,0.7,0.5,1.4,0.7,2.1
		c0,0.1,0.1,0.3,0.1,0.4c0.1,0.3,0.2,0.6,0.3,0.9c0.4,1.4,0.8,3.1,1,5.1c0,0.3,0.1,0.6,0.1,0.9C255.9,170.3,255.9,171.4,255.9,172.5
		z"/>
	<linearGradient id="SVGID_6_" gradientUnits="userSpaceOnUse" x1="253.869" y1="158.5632" x2="253.869" y2="172.1497">
		<stop  offset="0" style="stop-color:#FFFFFF"/>
		<stop  offset="1" style="stop-color:#000000"/>
	</linearGradient>
	<path class="st6" d="M254.2,161.9c-0.2-0.7-0.5-1.4-0.7-2.1C253.7,160.1,253.9,160.9,254.2,161.9z"/>
</g>
</svg>
