<?xml version="1.0" encoding="UTF-8"?><svg xmlns="http://www.w3.org/2000/svg" xmlns:xlink="http://www.w3.org/1999/xlink" version="1.1" x="0px" y="0px" viewBox="0 0 48 48" xml:space="preserve"><g fill="#C62828"><path d="M0 20.85v6.282c0 1.767 1.056 2.826 2.894 2.826h8.999c1.901 0 3.106-.966 3.106-2.734V23H7v3h5v.221c0 .611-.336.779-.78.779H3.8c-.608 0-.8-.314-.8-.806v-4.483c0-.534.299-.711.626-.711H15v-3H2.87C.994 18 0 19.149 0 20.85z"/><path d="M26 29l3-7v8h3V18h-4.026l-3.473 8.08L21.017 18H17v12h3v-8l3 7z"/><path d="M48 30v-3H37.8c-.606 0-.8-.313-.8-.801v-4.526c0-.53.297-.715.628-.715H48V18H36.866C34.99 18 34 19.149 34 20.85v6.324C34 28.941 35.051 30 36.889 30H48z"/></g></svg>