<svg id="Layer_1" data-name="Layer 1" xmlns="http://www.w3.org/2000/svg" xmlns:xlink="http://www.w3.org/1999/xlink" viewBox="0 0 2500 2141"><defs><style>.cls-1{stroke:#000;stroke-width:3.52px;fill:url(#linear-gradient);}.cls-2{fill:url(#radial-gradient);}.cls-3,.cls-4,.cls-5,.cls-6,.cls-8{fill-rule:evenodd;}.cls-3{fill:url(#linear-gradient-2);}.cls-4{fill:url(#linear-gradient-3);}.cls-5{fill:url(#linear-gradient-4);}.cls-6{fill:url(#linear-gradient-5);}.cls-7{fill:#cd181e;}.cls-10,.cls-8{fill:#fff;}.cls-9{fill:#4d4d4d;}</style><linearGradient id="linear-gradient" x1="827.97" y1="890.08" x2="1717.3" y2="1793.28" gradientTransform="translate(0 -519.89)" gradientUnits="userSpaceOnUse"><stop offset="0" stop-color="#f7f7f7"/><stop offset="1" stop-color="#252525"/></linearGradient><radialGradient id="radial-gradient" cx="1251.28" cy="1811.65" r="549.36" gradientTransform="translate(0 -519.89)" gradientUnits="userSpaceOnUse"><stop offset="0" stop-color="#ccc"/><stop offset="1" stop-color="#fff"/></radialGradient><linearGradient id="linear-gradient-2" x1="1174.66" y1="1116.96" x2="1721.46" y2="1689.14" gradientTransform="translate(0 -519.89)" gradientUnits="userSpaceOnUse"><stop offset="0" stop-color="#9b9b9b"/><stop offset="0.09" stop-color="#828282"/><stop offset="0.25" stop-color="#5e5e5e"/><stop offset="0.4" stop-color="#444"/><stop offset="0.53" stop-color="#343434"/><stop offset="0.64" stop-color="#2f2f2f"/><stop offset="0.78" stop-color="#fff"/><stop offset="1" stop-color="#a0a0a0"/></linearGradient><linearGradient id="linear-gradient-3" x1="1629.61" y1="1499.5" x2="1596.56" y2="854.4" gradientTransform="translate(0 -519.89)" gradientUnits="userSpaceOnUse"><stop offset="0" stop-color="#9b9b9b"/><stop offset="0.54" stop-color="#2f2f2f"/><stop offset="0.72" stop-color="#313131"/><stop offset="0.8" stop-color="#383838"/><stop offset="0.85" stop-color="#444"/><stop offset="0.9" stop-color="#565656"/><stop offset="0.94" stop-color="#6d6d6d"/><stop offset="0.97" stop-color="#888"/><stop offset="1" stop-color="#a6a6a6"/></linearGradient><linearGradient id="linear-gradient-4" x1="984.45" y1="1117.12" x2="1531.25" y2="1689.3" gradientTransform="matrix(-1, 0, 0, 1, 2309, -519.89)" xlink:href="#linear-gradient-2"/><linearGradient id="linear-gradient-5" x1="1439.74" y1="1499.49" x2="1406.59" y2="854.39" gradientTransform="matrix(-1, 0, 0, 1, 2309, -519.89)" xlink:href="#linear-gradient-3"/></defs><ellipse class="cls-1" cx="1249.57" cy="798.37" rx="850.96" ry="577.08"/><ellipse class="cls-2" cx="1249.57" cy="798.37" rx="753.84" ry="531.13"/><path class="cls-3" d="M1719.08,858.92c-30.91-118.34-69.72-228.89-138.59-336.67-68-100.75-212-64-324.31-82.2V1131.1c0,208.63,367.59,157.35,577.93-37.11C1761.73,1041.44,1741.79,944.21,1719.08,858.92Z"/><path class="cls-4" d="M1975,798.37c0-283.59-326-514.29-729-514.29h-1v119.3h9.81v36.24c112.15,17.7,255.86-18.55,324.3,82.2C1648.93,629.6,1686.89,741,1717.7,858.49c23,85.29,42.64,182.09,114.92,234.55C1916.74,1015.85,1975,915.1,1975,798.37Z"/><path class="cls-5" d="M780.28,858.92C811.19,740.58,850.11,630,918.87,522.25c68-100.75,212.05-64,324.31-82.2V1131.1c0,208.63-367.59,157.35-577.93-37.11C738.27,1041.44,757.36,944.21,780.28,858.92Z"/><path class="cls-6" d="M524,798.37c0-283.59,326.12-514.29,729.1-514.29h.85v119.3h-9.7v36.24c-112.26,17.7-255.86-18.55-324.3,82.2C850.11,629.6,812.15,741,781.34,858.49c-23,85.29-42.64,182.09-114.92,234.55C582.41,1015.85,524,915.1,524,798.37Z"/><path class="cls-7" d="M2356,1440.9c-6.18-9.8-37.1-8-48.61-7.14a54.46,54.46,0,0,0-21.33,7.14c-2.66,103.31-1.81,227.08-1.81,336.68,0,11.51-2.56,40.62,1.81,46.8s24.74,6.18,35.4,6.18c15,0,28.25.85,34.43-7,2.67-99,1.71-228,1.71-336.68C2357.68,1477.26,2360.34,1447.94,2356,1440.9Z"/><path class="cls-7" d="M2428.46,1442.61c-1.81,100.75-.95,225.37-.95,334,0,13.32-3.52,41.58,1.81,48.61s37.95,7.14,52.13,6.18a30,30,0,0,0,18.55-7.88V1444.42C2487.63,1429.39,2442.54,1431.1,2428.46,1442.61Z"/><path class="cls-7" d="M167.06,1518.62a179.87,179.87,0,0,1,109.59,17.7c6.19,2.66,22.07,14.07,29.11,11.51,11.51-4.47,8.85-46.91,4.37-56.61-5.23-12.36-25.59-20.36-40.62-24.73a281.64,281.64,0,0,0-55.65-9.7,243.06,243.06,0,0,0-111.3,17.7C46,1499.22,4.37,1555.72,0,1635.25V1668c10.66,110.45,77.72,177.61,210.34,167.91a388.09,388.09,0,0,0,54.8-8c15.88-4.37,40.62-9.7,45.95-22.07,4.37-9.7,2.66-28.25,2.66-42.65V1673.1c0-23,3.52-45.1-12.36-51.28s-45.1-1.81-68.13-1.81H198c-10.66,0-27.39-1.71-32.72,1.81-11.52,7-8,46,0,54.8,23,1.7,49.46,0,73.34.85v85.29a116,116,0,0,1-129.32-21.43c-27.39-28.25-40.61-85.29-27.39-137A106.61,106.61,0,0,1,167.06,1518.62Z"/><path class="cls-7" d="M1902.66,1466.6c-5.33,5.33-7.14,26.54-8.84,35.39-19.51,84.76-40.73,175.8-59.28,255.33-21.32-83.9-42.64-170.57-64-255.86-2.56-10.66-5.23-30.07-10.67-35.29-7-6.18-24.73-5.33-38-5.33s-31,0-37.21,6.18c-5.22,4.37-7.88,22.92-10.66,34.44-20.36,85.29-40.61,173.24-61,255.86-18.55-83-40.62-171.43-59.17-255.86-2.66-12.37-3.62-30.92-8.84-36.25-8.85-7.89-68.13-6.18-73.35,2.67s4.37,34.54,7,45.94c23.88,92.86,46.81,179.43,69.83,270.47,3.52,13.22,7,37.1,14.18,42.65,12.37,9.7,82.09,9.7,93.61,0,5.33-4.48,7-17.7,9.7-28.36,18.55-75.91,33.58-145.74,53.3-217.38,16.74,71.64,36.25,143.18,53.84,214.82,2.67,10.66,3.52,24.73,8.85,30,12.37,11.51,85.29,10.66,95.42-.86,7.14-7,9.8-30.06,13.32-43.28,22.92-89.23,49.47-182.09,70.68-267.8,3.52-15,10.66-30.92,7-47.66C1956.5,1459.45,1912.37,1455.94,1902.66,1466.6Z"/><path class="cls-7" d="M1254.9,1771.39a43.9,43.9,0,0,1-11.51-30.06c-2.67-37.1,1.71-92.75.85-125.48,19.41-.85,40.62.85,59.17-.85,8.85-11.52,8.85-43.39,1-55.76a449.78,449.78,0,0,0-61-1.71c-.85-20.36.85-42.64-.85-61.83-14.18-9.81-57.47-10.66-69.83.85-1.81,18.55,0,41.47-1,61.84a149.13,149.13,0,0,0-34.44,0c-10.66,10.66-9.7,45.09-.85,56.61,9.7,2.56,24.73-1,35.29,1.7,6.18,61-13.22,148.51,14.18,190.94a73.23,73.23,0,0,0,56.61,28.25c22.07,1.71,54.69-1.81,62.68-12.36s6.19-42.65-.85-53.31C1290.19,1772.25,1267.27,1780.24,1254.9,1771.39Z"/><path class="cls-7" d="M520.47,1550.39c-43.28-3.52-55.65,29.21-74.63,45.95-.85-11.41.85-24.73-.85-35.29-12.37-8.85-49.47-8.85-60.13,1.71-1.81,85.29-1.81,176.76,0,261.62,14.18,9.7,56.61,9.7,70.68,0,1.82-52.13,0-108.64.86-162.58,12.47-17.7,23.88-38.91,46.05-44.24,13.22-2.56,30,8.84,37.95,5.33s6.19-18.55,7-30.07C547.87,1561.05,547,1551.88,520.47,1550.39Z"/><path class="cls-7" d="M761.73,1562.54a147.3,147.3,0,0,0-86.57-10.66c-56.61,8.85-89.23,46.81-100.75,100.75a229.91,229.91,0,0,0,.86,91.9c12.36,56.61,46.9,85.29,110.44,91.9h39.77c12.37-1.71,28.36-3.52,43.39-7,11.41-2.67,30-6.18,35.29-15s2.66-35.4-.86-47.76c-15.88,0-32,8-49.46,11.51-56.61,13.22-115.78,0-110.56-66.31h122c20.36,0,42.64,3.62,50.42-7.89s4.37-32.73,3.52-46C813.86,1609.67,791.58,1577.79,761.73,1562.54ZM643.39,1665.1c.85-37.1,22.07-67.16,60-64,30.92,2.66,46.8,27.4,46,64Z"/><path class="cls-7" d="M1094,1696.23c0-42.64,2.66-86.56-18.55-113.11-29.21-37.1-101.6-38.91-154.69-22.07-15.89,5.33-35.29,11.52-41.47,22.92s-2.67,44.25,7,46.91,21.33-8,27.4-10.66c22.07-9.7,64-25.59,92.75-7.89,16,9.7,17.7,27.4,16.85,55.65-64.5-.85-126.44,3.52-151.18,45.1a92.58,92.58,0,0,0,0,84.75,84.65,84.65,0,0,0,66.32,38.91h30.06a95.94,95.94,0,0,0,37.1-13.21,259.09,259.09,0,0,0,28.25-20.37,103.72,103.72,0,0,0,1,23.88c12.37,4.37,49.47,9.7,56.5-.85,3.52-5.33,1.82-22.17,1.82-32C1094,1761.69,1094,1729,1094,1696.23Zm-71.54,58.21a62.77,62.77,0,0,1-28.35,25.7c-17.59,9.7-45,5.22-54.8-7.15a38.7,38.7,0,0,1-1.71-43.28c13.22-20.26,50.32-18.55,85.29-18.55C1019.83,1727.15,1026.87,1741.33,1022.49,1754.44Z"/><path class="cls-7" d="M2198.83,1584.93c-25.59-36.24-98.94-41.57-152.88-25.69-15.89,4.48-40.62,12.37-46.8,25.69s-2.67,44.14,8,46c8.85.85,21.32-8,30-11.51,25.69-11.52,88.38-28.25,102.56,6.18,5.33,12.37,3.52,21.32,4.37,41.58-68.87,0-129.85,4.37-153.73,51.17a92.22,92.22,0,0,0,3.52,82.2c12.36,20.36,38.06,32.73,66.31,37.1h29.21a103.5,103.5,0,0,0,60-29.11c1.81-.85,3.52-4.47,6.18-3.51,1.82,10.66-3.51,18.55,2.67,23.88,9.7,9.7,45.09,1.7,54.8-1,2.66-45,1.81-85.29,1.81-127.93C2214.61,1655.62,2218.12,1611.37,2198.83,1584.93ZM2144,1753.7c-3.52,13.22-32,30.06-48.51,32a38.17,38.17,0,0,1-38.06-15.89,38.6,38.6,0,0,1,10.66-48.61c17.59-11.41,44.14-8.85,75.91-8.85-1.92,14.82,3.41,28.15-.21,41.37Z"/><path class="cls-8" d="M1694,1068a224.73,224.73,0,0,1-24.73-1.81c-5.33-.85-121-22.07-117.27-165.25V647.3L1250,482.05,947.76,647.3V900.92c3.52,143.18-113.11,164.4-117.27,165.25a226.72,226.72,0,0,1-24.84,1.81,195,195,0,0,1-136.89-57.46c-47.76-47.76-71.64-119.3-71.64-212.15C598,542.5,891.36,332.69,1250.21,332.69s652.14,208.53,653.09,465.68q0,139.23-71.64,212.15A195,195,0,0,1,1694,1068Z"/><path class="cls-9" d="M1250,341.54c354.37,0,643.28,205,644.24,456.83,0,90.19-23,159.06-69,206a186.67,186.67,0,0,1-130.81,54.79,191.31,191.31,0,0,1-22.93-1.81c-4.47-.85-114.07-20.36-110.44-156.4V642l-8.85-5.33L1258.85,475.87l-8-4.48-7.89,4.48L947.76,637.6l-8.85,5.22V902.74c2.67,135.18-106.61,155.43-110.45,156.39a192.68,192.68,0,0,1-23,1.71A186.12,186.12,0,0,1,674.31,1006c-45.95-45.95-69.83-115.78-69-205.86.85-253.63,289.87-458.42,644.24-458.42m0-16.85c-365.88,0-661,212.16-661.94,474.63C586.78,1012.76,715.56,1077.9,805,1077.9a242.42,242.42,0,0,0,25.69-1.82S958.64,1054.76,956.18,902V653.48L1250,492.61l293.39,160.87V901.56c-3.52,152.88,125.48,174.1,125.48,174.1a240.54,240.54,0,0,0,25.59,1.81c89.23,0,218.33-65.46,217.37-278.36C1911,536.85,1615.46,324.7,1250,324.7Z"/><rect class="cls-10" x="862.49" y="553.91" width="453.3" height="32.73" transform="translate(-140 595.88) rotate(-28.83)"/><rect class="cls-10" x="1392.68" y="343.58" width="32.73" height="453.3" transform="translate(230.03 1529.66) rotate(-61.17)"/></svg>