<?xml version="1.0" encoding="utf-8"?>
<!-- Generator: Adobe Illustrator 24.2.1, SVG Export Plug-In . SVG Version: 6.00 Build 0)  -->
<svg version="1.1" id="Layer_1" xmlns="http://www.w3.org/2000/svg" xmlns:xlink="http://www.w3.org/1999/xlink" x="0px" y="0px"
	 viewBox="0 0 2500 2141" style="enable-background:new 0 0 2500 2141;" xml:space="preserve">
<style type="text/css">
	.st0{fill:url(#SVGID_1_);}
	.st1{fill:#FFFFFF;}
	.st2{fill:url(#SVGID_2_);}
	.st3{fill:url(#SVGID_3_);}
	.st4{fill:url(#SVGID_4_);}
	.st5{fill:url(#SVGID_5_);}
</style>
<g>
	<path d="M265.6,1296.9l71.9-134.6c-12.9,0-25.8,0.9-36,1.8c-27.7,2.8-55.3,28.6-68.2,52.6l-42.4,80.2H0l190-342.1h190.9l-56.3,98.7
		c14.8-0.9,29.5-0.9,39.7-0.9c12,0,24,0,33.2,0c0.9,0,1.8,0,3.7,0l55.3-96.8h190l-190,342.1H265.6V1296.9z"/>
	
		<linearGradient id="SVGID_1_" gradientUnits="userSpaceOnUse" x1="322.298" y1="1497.532" x2="322.298" y2="1795.9365" gradientTransform="matrix(1 0 0 1 0 -519.8898)">
		<stop  offset="0" style="stop-color:#CCCCCC"/>
		<stop  offset="4.165450e-02" style="stop-color:#CFCFCF"/>
		<stop  offset="7.631013e-02" style="stop-color:#DADADA"/>
		<stop  offset="0.1083" style="stop-color:#EBEBEB"/>
		<stop  offset="0.1344" style="stop-color:#FFFFFF"/>
		<stop  offset="0.296" style="stop-color:#FFFFFF"/>
		<stop  offset="0.6345" style="stop-color:#999999"/>
		<stop  offset="0.8097" style="stop-color:#999999"/>
		<stop  offset="0.8356" style="stop-color:#9F9F9F"/>
		<stop  offset="0.8702" style="stop-color:#B0B0B0"/>
		<stop  offset="0.9096" style="stop-color:#CCCCCC"/>
		<stop  offset="0.9524" style="stop-color:#F2F2F2"/>
		<stop  offset="0.9652" style="stop-color:#FFFFFF"/>
	</linearGradient>
	<path class="st0" d="M412.2,1073.8l55.3-97.7h139.2l-165.1,299.7H303.4l71.9-133.7c0,0-39.7-3.7-75.6,0.9s-71,36.9-85.8,64.6
		l-36.9,69.2H37.8l165.1-299.7h139.2l-59.9,104.2c21.2-4.6,53.5-6.5,81.2-6.5C391.9,1073.8,412.2,1073.8,412.2,1073.8z"/>
	<path class="st1" d="M445.4,1278.5H296l71.9-133.7c-5.5,0-14.8-0.9-25.8-0.9c-14.8,0-29.5,0.9-41.5,1.8
		c-34.1,3.7-66.4,33.2-82.1,61.8l-36.9,71H30.4l169.7-305.2h150.3l-58.1,102.4c25.8-3.7,58.1-4.6,72.9-5.5c21.2,0,39.7,0,46.1,0
		l55.3-96.8H616L445.4,1278.5z M310.8,1269.3h129.1l159.5-285.9H470.3l-55.3,95.9h-2.8c0,0-21.2,0-48.9,0
		c-33.2,0.9-61.8,2.8-80.2,6.5l-10.1,2.8l59.9-105.1H205.6L46.1,1269.3h129.1l35-65.5c15.7-29.5,50.7-61.8,89.5-66.4
		c12.9-0.9,27.7-1.8,42.4-1.8c19.4,0,33.2,0.9,33.2,0.9h7.4L310.8,1269.3z"/>
	<polygon points="1123.2,1296.9 1117.7,954.8 1293.8,954.8 1298.4,1088.5 1460.7,954.8 1703.2,954.8 1300.3,1296.9 	"/>
	
		<linearGradient id="SVGID_2_" gradientUnits="userSpaceOnUse" x1="1391.0919" y1="1500.9707" x2="1391.0919" y2="1795.9337" gradientTransform="matrix(1 0 0 1 0 -519.8898)">
		<stop  offset="0" style="stop-color:#CCCCCC"/>
		<stop  offset="4.165450e-02" style="stop-color:#CFCFCF"/>
		<stop  offset="7.631013e-02" style="stop-color:#DADADA"/>
		<stop  offset="0.1083" style="stop-color:#EBEBEB"/>
		<stop  offset="0.1344" style="stop-color:#FFFFFF"/>
		<stop  offset="0.296" style="stop-color:#FFFFFF"/>
		<stop  offset="0.6345" style="stop-color:#999999"/>
		<stop  offset="0.8097" style="stop-color:#999999"/>
		<stop  offset="0.8356" style="stop-color:#9F9F9F"/>
		<stop  offset="0.8702" style="stop-color:#B0B0B0"/>
		<stop  offset="0.9096" style="stop-color:#CCCCCC"/>
		<stop  offset="0.9524" style="stop-color:#F2F2F2"/>
		<stop  offset="0.9652" style="stop-color:#FFFFFF"/>
	</linearGradient>
	<polygon class="st2" points="1145.3,1275.7 1292.9,1275.7 1642.4,976 1469,976 1277.2,1134.6 1271.7,976 1139.8,976 	"/>
	<path class="st1" d="M1293.8,1278.5h-153.1l-5.5-307.1l141.1,0.9l5.5,153.1l186.3-152.2h187.2L1293.8,1278.5z M1149.9,1269.3H1291
		l339.4-285.9h-159.5l-197.3,161.4l-5.5-163.2l-122.6-0.9L1149.9,1269.3z"/>
	<path d="M784.8,1296.9l30.4-66.4c-12.9-0.9-29.5-0.9-46.1-0.9h-0.9c-35,0-68.2,14.8-79.3,25.8l-43.3,42.4H446.3l268.4-241.6
		c9.2-8.3,41.5-33.2,65.5-49.8c29.5-20.3,106-49.8,178-49.8h145.7l-160.5,342.1H783.8v-1.8H784.8z M864.1,1121.7l24.9-48
		c-18.4,12.9-47,36.9-59,48H864.1z"/>
	
		<linearGradient id="SVGID_3_" gradientUnits="userSpaceOnUse" x1="785.2268" y1="1495.2643" x2="785.2268" y2="1793.6698" gradientTransform="matrix(1 0 0 1 0 -519.8898)">
		<stop  offset="0" style="stop-color:#CCCCCC"/>
		<stop  offset="4.165450e-02" style="stop-color:#CFCFCF"/>
		<stop  offset="7.631013e-02" style="stop-color:#DADADA"/>
		<stop  offset="0.1083" style="stop-color:#EBEBEB"/>
		<stop  offset="0.1344" style="stop-color:#FFFFFF"/>
		<stop  offset="0.296" style="stop-color:#FFFFFF"/>
		<stop  offset="0.6345" style="stop-color:#999999"/>
		<stop  offset="0.8097" style="stop-color:#999999"/>
		<stop  offset="0.8356" style="stop-color:#9F9F9F"/>
		<stop  offset="0.8702" style="stop-color:#B0B0B0"/>
		<stop  offset="0.9096" style="stop-color:#CCCCCC"/>
		<stop  offset="0.9524" style="stop-color:#F2F2F2"/>
		<stop  offset="0.9652" style="stop-color:#FFFFFF"/>
	</linearGradient>
	<path class="st3" d="M958.1,976c-68.2,0-140.2,28.6-166,46.1c-25.8,17.5-55.3,41.5-63.6,48.9l-225,203.8h130l36.9-36.9
		c14.8-13.8,55.3-33.2,96.8-32.3s80.2,3.7,80.2,3.7l-29.5,64.6h109.7l139.2-299.7H958.1V976z M877.9,1145.7H773.7l40.6-39.7
		c0,0,49.8-44.3,71-57.2c22.1-12.9,46.1-8.3,46.1-8.3L877.9,1145.7z"/>
	<path class="st1" d="M932.3,1278.5h-119l29.5-64.6c-12-0.9-41.5-2.8-72.9-2.8h-1.8c-40.6,0-78.4,17.5-91.3,30.4l-38.7,36.9H493.4
		l234.2-211.2c8.3-7.4,37.8-30.4,63.6-48.9c27.7-19.4,99.6-47,168.8-47h117.1L932.3,1278.5z M826.3,1270.2h99.6l135.6-287.7H958.1
		c-69.2,0-140.2,29.5-163.2,45.2c-25.8,17.5-55.3,39.7-62.7,47l-215.8,195.5h116.2l36-35c16.6-15.7,57.2-33.2,98.7-33.2h1.8
		c41.5,0.9,80.2,3.7,80.2,3.7l6.5,0.9L826.3,1270.2z M879.7,1148.5h-118l48.9-46.1c1.8-1.8,50.7-44.3,72.9-57.2
		c14.8-8.3,29.5-10.1,39.7-10.1c5.5,0,9.2,0.9,10.1,0.9l5.5,0.9L879.7,1148.5z M784.8,1140.2h90.4l49.8-95.9
		c-8.3,0-23.1,0.9-36.9,9.2c-21.2,12-71,55.3-71,56.3L784.8,1140.2z"/>
	<path d="M1709.7,1296.9l30.4-66.4c-12.9-0.9-29.5-0.9-46.1-0.9h-1.8c-35,0-68.2,14.8-79.3,25.8l-43.3,42.4h-197.3l268.4-241.6
		c9.2-8.3,41.5-33.2,65.5-49.8c29.5-20.3,106-49.8,178-49.8h145.7l-160.5,342.1h-160.5v-1.8H1709.7z M1788.1,1121.7l24.9-48
		c-18.4,12.9-47,36.9-59,48H1788.1z"/>
	
		<linearGradient id="SVGID_4_" gradientUnits="userSpaceOnUse" x1="1710.1624" y1="1495.2643" x2="1710.1624" y2="1793.6698" gradientTransform="matrix(1 0 0 1 0 -519.8898)">
		<stop  offset="0" style="stop-color:#CCCCCC"/>
		<stop  offset="4.165450e-02" style="stop-color:#CFCFCF"/>
		<stop  offset="7.631013e-02" style="stop-color:#DADADA"/>
		<stop  offset="0.1083" style="stop-color:#EBEBEB"/>
		<stop  offset="0.1344" style="stop-color:#FFFFFF"/>
		<stop  offset="0.296" style="stop-color:#FFFFFF"/>
		<stop  offset="0.6345" style="stop-color:#999999"/>
		<stop  offset="0.8097" style="stop-color:#999999"/>
		<stop  offset="0.8356" style="stop-color:#9F9F9F"/>
		<stop  offset="0.8702" style="stop-color:#B0B0B0"/>
		<stop  offset="0.9096" style="stop-color:#CCCCCC"/>
		<stop  offset="0.9524" style="stop-color:#F2F2F2"/>
		<stop  offset="0.9652" style="stop-color:#FFFFFF"/>
	</linearGradient>
	<path class="st4" d="M1883.1,976c-68.2,0-140.2,28.6-166,46.1s-55.3,41.5-63.6,48.9l-225,203.8h130l36.9-36.9
		c14.8-13.8,55.3-33.2,96.8-32.3c41.5,0.9,80.2,3.7,80.2,3.7l-29.5,64.6h109.7l139.2-299.7h-108.8V976z M1801.9,1145.7h-104.2
		l40.6-39.7c0,0,49.8-44.3,71-57.2c22.1-12.9,46.1-8.3,46.1-8.3L1801.9,1145.7z"/>
	<path class="st1" d="M1856.3,1278.5h-119l29.5-64.6c-12-0.9-41.5-2.8-72.9-2.8h-1.8c-40.6,0-78.4,17.5-91.3,30.4l-38.7,36.9h-143.9
		l234.2-211.2c8.3-7.4,37.8-30.4,63.6-48.9c27.7-19.4,99.6-47,168.8-47H2002L1856.3,1278.5z M1750.3,1270.2h100.5l135.6-287.7
		h-103.3c-69.2,0-140.2,29.5-163.2,45.2c-25.8,17.5-55.3,39.7-62.7,47l-215.8,195.5h116.2l36-35c16.6-15.7,57.2-33.2,98.7-33.2h1.8
		c41.5,0.9,79.3,3.7,80.2,3.7l6.5,0.9L1750.3,1270.2z M1804.7,1148.5h-118l48.9-46.1c1.8-1.8,50.7-44.3,72.9-57.2
		c14.8-8.3,29.5-10.1,39.7-10.1c5.5,0,9.2,0.9,10.1,0.9l5.5,0.9L1804.7,1148.5z M1708.8,1140.2h90.4l49.8-95.9
		c-8.3,0-23.1,0.9-36.9,9.2c-21.2,12-71,55.3-71,56.3L1708.8,1140.2z"/>
	<path d="M2091.5,1296.9c-14.8,0-65.5-0.9-87.6-16.6c-36-24-44.3-70.1-20.3-111.6c14.8-25.8,112.5-200.1,114.3-202l6.5-11.1h282.2
		l-86.7,42.4c0,0-38.7,19.4-60.9,57.2c-11.1,18.4-53.5,95-68.2,120.8H2500l-111.6,120.8L2091.5,1296.9L2091.5,1296.9z"/>
	
		<linearGradient id="SVGID_5_" gradientUnits="userSpaceOnUse" x1="2219.428" y1="1497.532" x2="2219.428" y2="1795.9365" gradientTransform="matrix(1 0 0 1 0 -519.8898)">
		<stop  offset="0" style="stop-color:#CCCCCC"/>
		<stop  offset="4.165450e-02" style="stop-color:#CFCFCF"/>
		<stop  offset="7.631013e-02" style="stop-color:#DADADA"/>
		<stop  offset="0.1083" style="stop-color:#EBEBEB"/>
		<stop  offset="0.1344" style="stop-color:#FFFFFF"/>
		<stop  offset="0.296" style="stop-color:#FFFFFF"/>
		<stop  offset="0.6345" style="stop-color:#999999"/>
		<stop  offset="0.8097" style="stop-color:#999999"/>
		<stop  offset="0.8356" style="stop-color:#9F9F9F"/>
		<stop  offset="0.8702" style="stop-color:#B0B0B0"/>
		<stop  offset="0.9096" style="stop-color:#CCCCCC"/>
		<stop  offset="0.9524" style="stop-color:#F2F2F2"/>
		<stop  offset="0.9652" style="stop-color:#FFFFFF"/>
	</linearGradient>
	<path class="st5" d="M2145.9,1173.4c0,0,59.9-107.9,73.8-130c25.8-44.3,70.1-66.4,70.1-66.4h-173.4c0,0-99.6,177.1-114.3,202
		c-16.6,28.6-14.8,64.6,12.9,83c19.4,12,75.6,13.8,75.6,13.8h285.9l71-78.4h-295.1C2152.3,1197.3,2135.7,1189,2145.9,1173.4z"/>
	<path class="st1" d="M2379.2,1278.5h-287.7c-2.8,0-58.1-0.9-78.4-13.8c-28.6-19.4-34.1-54.4-14.8-88.5
		c14.8-25.8,112.5-200.1,114.3-202l0.9-2.8h193.7l-17.5,8.3c-0.9,0-43.3,21.2-68.2,64.6c-12.9,22.1-72.9,128.2-73.8,130
		c-2.8,3.7-3.7,7.4-1.8,10.1c0.9,3.7,4.6,5.5,6.5,8.3h304.3L2379.2,1278.5z M2120.1,982.5c-12,19.4-98.7,175.2-112.5,199.2
		c-13.8,24.9-15.7,57.2,12,75.6c14.8,10.1,57.2,12,72.9,12h284l61.8-68.2h-285.9h-0.9c-0.9,0-9.2-4.6-12-13.8
		c-0.9-5.5-0.9-11.1,3.7-16.6c0.9-0.9,59.9-107,73.8-129.1c16.6-28.6,41.5-48.9,57.2-58.1L2120.1,982.5L2120.1,982.5z"/>
</g>
</svg>
