<?xml version="1.0" encoding="UTF-8"?><!DOCTYPE svg PUBLIC "-//W3C//DTD SVG 1.1//EN" "http://www.w3.org/Graphics/SVG/1.1/DTD/svg11.dtd"><svg xmlns="http://www.w3.org/2000/svg" xmlns:xlink="http://www.w3.org/1999/xlink" xml:space="preserve" version="1.1" viewBox="0 0 512 512" shape-rendering="geometricPrecision" text-rendering="geometricPrecision" image-rendering="optimizeQuality" fill-rule="evenodd" clip-rule="evenodd"><defs><style type="text/css"><![CDATA[
    .fil0 {fill: currentColor}
   ]]></style></defs><path class="fil0" d="M255 79c137 0 248 68 248 151 0 72-83 133-194 148-19-56-33-103-54-162l-63 160C86 359 8 300 8 230 8 147 119 79 256 79zm-83 229l82-127 84 127c59-18 100-56 100-99 0-61-82-111-183-111S72 148 72 209c0 43 40 81 100 99z" fill="#2B2A29" id="Layer_x0020_1"/></svg>