<svg xmlns="http://www.w3.org/2000/svg" viewBox="0 0 440.857 348.821"><g transform="translate(-133.043 -122.84)"><path d="M47.463,92.171c12.906,15.785,35.539,27.906,36.5,28.416a2,2,0,0,0,2.751-.946c.242-.539,25.966-54.375,140.038-54.375,114.094,0,140.5,54.115,140.753,54.661a2,2,0,0,0,2.743.932c1.166-.616,28.853-15.275,38.586-29.34a1,1,0,0,0,.077-.169,1.908,1.908,0,0,0,.235-.7l.029-.183a2.147,2.147,0,0,0-.092-.7c-.007-.015,0-.026-.007-.04-.015-.04-.051-.066-.066-.1a2.226,2.226,0,0,0-.165-.356C407.32,87,369.712,33.63,226.751,33.63,83.743,33.63,48.732,87.569,47.313,89.865a1.879,1.879,0,0,0,.15,2.307Z" transform="translate(125.334 89.71)" fill="#fff" stroke="#000" stroke-width="1" fill-rule="evenodd"/><path d="M220.134,49.951c-106,0-137.042,44.737-142.686,54.812-4.676-2.655-17.777-10.493-27.983-20.443L61.909,88.9a1.991,1.991,0,0,0,2.245-.623C108.2,33.355,218.932,37.936,220.046,37.987c.033,0,.062-.015.092-.015s.062.015.1.015c1.115-.051,111.864-4.61,155.889,50.293a2,2,0,0,0,2.215.634l15.954-5.556c-9.591,9.587-25.508,18.778-30.76,21.686-5.707-10.02-37.24-55.094-143.4-55.094Z" transform="translate(131.95 101.031)" stroke="#000" stroke-width="1" fill-rule="evenodd"/><path d="M70.8,50.935C57.955,69.28,36.412,109.366,36.412,171.7c0,53.33,25.519,118.3,82.535,143.24,58.222,25.471,123.307,22.838,137.394,22.838s79.171,2.637,137.394-22.838c57.019-24.943,82.535-89.914,82.535-143.24,0-62.33-21.54-102.413-34.383-120.761a2.865,2.865,0,0,0-3.712-.235c-.059.059-1.452,1.493-4.1,3.873a1.941,1.941,0,0,0-.675.605,225.8,225.8,0,0,1-60.493,37.6l-10.581,4.434c-21.275,8.853-44.033,18.338-63.955,32.931l-.037.029c-17.12,12.547-32.142,28.878-42.324,51.848-22.027-49.721-66.731-68.337-106.3-84.808l-10.581-4.434C97.462,75.064,74.114,50.927,73.872,50.7A1.856,1.856,0,0,0,70.8,50.935Z" transform="translate(97.131 133.33)" fill="#fff" stroke="#000" stroke-width="1" fill-rule="evenodd"/><path d="M227.3,182.826c0,.007.007.011.011.018a2.072,2.072,0,0,0,.315.484,1.779,1.779,0,0,0,.11.161c.048.044.114.07.161.11a1.929,1.929,0,0,0,.488.319l.015.011a1.636,1.636,0,0,0,.268.048,1.335,1.335,0,0,0,.954,0,1.368,1.368,0,0,0,.268-.048s.007-.011.015-.011a1.907,1.907,0,0,0,.484-.319,1.379,1.379,0,0,0,.161-.11,1.572,1.572,0,0,0,.11-.161,1.908,1.908,0,0,0,.319-.484l.011-.018a120.2,120.2,0,0,1,24.074-37.9,69.667,69.667,0,0,0-3.11,18.015,2,2,0,0,0,3.774.891c.616-1.229,3.525-4.119,5.395-5.78a2.006,2.006,0,0,0,.66-1.324c.924-11.076,10.493-25.915,12.162-28.427a193.62,193.62,0,0,1,26.223-15.939c-11.138,8.868-25.086,21.639-33.059,35.219a2,2,0,0,0,3.154,2.4c.172-.176,17.795-17.861,60.771-29.77,9.95-2.758,35.374-11.751,65.91-29.564a2,2,0,0,0,.91-1.166l11.993-36.958.723-.656a170.95,170.95,0,0,1-6.345,36.9c-3.869,2.512-30.235,19.379-52.787,27.646-4.683,1.716-10.027,3.356-15.693,5.087-33.224,10.177-78.46,24.066-106.6,84.005C201,145.568,155.768,131.679,122.54,121.5c-5.663-1.735-11.01-3.37-15.69-5.087C84.3,108.148,57.932,91.277,54.059,88.768c-4.981-11.153-6.778-23.516-7.573-34.079,10.764,42.863,57.247,58.028,78.735,64.96,32.392,10.449,51.008,20.993,51.192,21.1a1.988,1.988,0,0,0,2.8-2.564c-4.691-10.159-13.434-19.218-21.36-25.955C186.22,126.724,212.809,146.771,227.3,182.826Z" transform="translate(124.004 138.363)" stroke="#000" stroke-width="1" fill-rule="evenodd"/><path d="M220.562,179.991a1.555,1.555,0,0,0,.169.238,1.764,1.764,0,0,0,.253.359,1.873,1.873,0,0,0,.359.253,1.854,1.854,0,0,0,.238.169.253.253,0,0,1,.048.007,1.807,1.807,0,0,0,.444.1.877.877,0,0,0,.631,0,1.77,1.77,0,0,0,.444-.1.215.215,0,0,1,.048-.007,1.817,1.817,0,0,0,.235-.169,1.874,1.874,0,0,0,.359-.253,1.846,1.846,0,0,0,.253-.356,2.153,2.153,0,0,0,.169-.238c27.246-61.644,72.735-75.574,105.948-85.747,5.718-1.749,11.116-3.4,15.9-5.157,19.005-6.968,40.6-19.889,49.692-25.574a205.777,205.777,0,0,1-11.025,28.255c-10.966,8.853-26.957,13.343-45.452,18.525-20.945,5.868-44.693,12.521-66.79,27.367-28.244,18.976-44.814,51.4-50.1,63.071-5.292-11.677-21.859-44.095-50.1-63.071-22.1-14.85-45.841-21.5-66.786-27.367-18.5-5.182-34.486-9.671-45.448-18.525A205.328,205.328,0,0,1,49.02,63.517c9.1,5.681,30.686,18.605,49.7,25.574,4.786,1.757,10.185,3.407,15.9,5.157,33.213,10.166,78.7,24.1,105.948,85.744Z" transform="translate(130.763 169.435)" stroke="#000" stroke-width="1" fill-rule="evenodd"/><path d="M268.07,117.126c21.569-14.49,44.979-21.052,65.634-26.839,17.938-5.025,33.573-9.4,45.034-17.832,2.035,15.925,9.484,93.314-30.939,133.033-39.14,38.465-105.614,41.418-131.742,40.9-.646-.015.334,0,0,0h0c-.33,0,.646-.015,0,0-26.128.517-92.6-2.435-131.742-40.9C44.246,166.106,51.226,89.7,53.327,72.866c11.406,8.149,26.813,12.477,44.443,17.417,20.659,5.787,44.073,12.349,65.642,26.839,33.125,22.255,50.3,65.1,50.473,65.528C213.885,182.654,234.966,139.362,268.07,117.126Z" transform="translate(137.411 193.277)" fill="none" stroke="#000" stroke-width="1" fill-rule="evenodd"/><path d="M57.8,62.009A214.22,214.22,0,0,0,70.952,97.4c-1.291,8.362-11.67,83.683,23.623,129.578-7.988-3.187-23.087-11.19-35.462-29.219-.275-.477-33.962-59.946-1.309-135.751ZM403.47,96.759c-.022-.1-.073-.176-.1-.268a212.1,212.1,0,0,0,9.671-24.459c20.337,60.632,1.474,113.14,1.276,113.676l-.066.209a64.576,64.576,0,0,1-32.2,38.2c33.965-47.777,22-123.864,21.422-127.363Z" transform="translate(116.211 165.412)" stroke="#000" stroke-width="1" fill-rule="evenodd"/><path d="M469.245,166.318c0,52.032-25.137,114.589-80.151,139.587C339.461,328.468,264,328.963,253.3,328.963s-79.711,1.1-135.8-23.058C64.714,283.177,39.874,224.46,37.552,174.038c11.949,35.693,29.77,50.979,33.074,53.579,14.065,41.77,50.1,70.864,104.279,84.145,22.42,5.494,54,7.177,71.811,7.614-1.577.073,1.126.165,6.583.114,5.461.051,8.164-.044,6.587-.114,17.806-.436,49.384-2.12,71.8-7.614,54.441-13.346,90.57-42.65,104.489-84.746.235-.69,23.117-70.842-3.15-140.086a2.031,2.031,0,0,0-.3-.484A172.122,172.122,0,0,0,438.371,52c12.671,19.5,30.873,57.43,30.873,114.321Z" transform="translate(100.172 138.705)" stroke="#000" stroke-width="1" fill-rule="evenodd"/></g></svg>