<svg xmlns="http://www.w3.org/2000/svg" viewBox="0 0 100 60"><path fill="#0f0f0f" d="M0 0h100v60H0z"/><g fill-opacity=".15"><path fill="#0f0f0f" d="M0 0h11v11H0z"/><path fill="#0f0f0f" d="M10 0h11v11H10z"/><path fill="#101010" d="M0 10h11v11H0zM20 0h11v11H20z"/><path fill="#111" d="M10 10h11v11H10z"/><path fill="#111" d="M0 20h11v11H0z"/><path fill="#121212" d="M30 0h11v11H30z"/><path fill="#121212" d="M20 10h11v11H20z"/><path fill="#131313" d="M10 20h11v11H10z"/><path fill="#131313" d="M0 30h11v11H0zM40 0h11v11H40z"/><path fill="#141414" d="M30 10h11v11H30z"/><path fill="#141414" d="M20 20h11v11H20z"/><path fill="#151515" d="M10 30h11v11H10z"/><path fill="#151515" d="M0 40h11v11H0zM50 0h11v11H50z"/><path fill="#161616" d="M40 10h11v11H40z"/><path fill="#161616" d="M30 20h11v11H30z"/><path fill="#161616" d="M20 30h11v11H20z"/><path fill="#171717" d="M10 40h11v11H10z"/><path fill="#171717" d="M0 50h11v11H0z"/><path fill="#181818" d="M60 0h11v11H60z"/><path fill="#181818" d="M50 10h11v11H50z"/><path fill="#181818" d="M40 20h11v11H40z"/><path fill="#191919" d="M30 30h11v11H30z"/><path fill="#191919" d="M20 40h11v11H20z"/><path fill="#191919" d="M10 50h11v11H10z"/><path fill="#1a1a1a" d="M70 0h11v11H70z"/><path fill="#1a1a1a" d="M60 10h11v11H60z"/><path fill="#1a1a1a" d="M50 20h11v11H50z"/><path fill="#1b1b1b" d="M40 30h11v11H40z"/><path fill="#1b1b1b" d="M30 40h11v11H30z"/><path fill="#1b1b1b" d="M20 50h11v11H20z"/><path fill="#1c1c1c" d="M80 0h11v11H80z"/><path fill="#1c1c1c" d="M70 10h11v11H70z"/><path fill="#1c1c1c" d="M60 20h11v11H60z"/><path fill="#1d1d1d" d="M50 30h11v11H50z"/><path fill="#1d1d1d" d="M40 40h11v11H40z"/><path fill="#1d1d1d" d="M30 50h11v11H30z"/><path fill="#1e1e1e" d="M90 0h11v11H90z"/><path fill="#1e1e1e" d="M80 10h11v11H80z"/><path fill="#1f1f1f" d="M70 20h11v11H70z"/><path fill="#1f1f1f" d="M60 30h11v11H60z"/><path fill="#1f1f1f" d="M50 40h11v11H50z"/><path fill="#202020" d="M40 50h11v11H40zM90 10h11v11H90z"/><path fill="#202020" d="M80 20h11v11H80z"/><path fill="#212121" d="M70 30h11v11H70z"/><path fill="#212121" d="M60 40h11v11H60z"/><path fill="#212121" d="M50 50h11v11H50z"/><path fill="#222" d="M90 20h11v11H90z"/><path fill="#222" d="M80 30h11v11H80z"/><path fill="#222" d="M70 40h11v11H70z"/><path fill="#232323" d="M60 50h11v11H60zM90 30h11v11H90z"/><path fill="#242424" d="M80 40h11v11H80z"/><path fill="#242424" d="M70 50h11v11H70zM90 40h11v11H90z"/><path fill="#252525" d="M80 50h11v11H80z"/><path fill="#252525" d="M90 50h11v11H90z"/></g></svg>