<svg xmlns="http://www.w3.org/2000/svg" width="74" height="36" fill="none"><path fill="#43fa76" d="M64.727 3.5 57.962.075c-.334-.17-.612-.046-.612.28v2.05l7.63 2.878V3.998c0-.205-.112-.427-.254-.499M61.897 10.123l4.662-.003c.105 0 .188-.142.188-.318V8.693l-5.24-.674v1.633c0 .262.176.471.39.471M57.35 3.625v2.051c0 .326.278.642.612.706l8.785 1.653V6.926c0-.176-.084-.345-.188-.378z"/><path fill="#707070" d="M36.061.128a3.5 3.5 0 0 1 1.865-.001c.12.643.168 1.332-.047 1.96-.19.254-.54.209-.81.295.84.883 1.613 1.884 1.907 3.096 4 .025 8.005.028 12.004-.045l.193-.253c.313-.014.624.037.919.15-.11 2.431-.032 4.87-.132 7.301.209.085.468.096.636.269.152.523.068 1.087-.063 1.607.103.005.207-.005.312.005.028.383-.099.764-.138 1.145l.01-.735q-.151-.161-.3-.322-.713.037-1.425.009c.009.636.024 1.292-.19 1.9-.168.439-.562.723-.889 1.035.692-.022 1.362.187 2.048.204.564-.135 1.085-.402 1.606-.647a9.4 9.4 0 0 1 .555-4.996c.186-.518.679-.859 1.218-.908 1.475-.24 2.975-.12 4.464-.138 1.633.028 3.3.01 4.888.454.97.255 1.642 1.083 2.103 1.932.421.786.52 1.684.773 2.526.022.906.475 1.726.562 2.624.414 3.176.566 6.38.667 9.58.05.825-.057 1.646-.118 2.468.671.17 1.355.292 2.019.49 1.054.393 2.193.424 3.302.504-.668.414-1.461.382-2.202.547-.883.288-1.808.404-2.703.654.019.74.128 1.487.03 2.225-.274.463-.9.164-1.33.209-2.715-.011-5.428.126-8.139.248-.691-.001-1.389.064-2.074-.037-.473-.265-.384-1.135-1.008-1.19-.965-.147-1.944-.062-2.915-.068-1.483.03-2.965-.017-4.446-.045-4.048.074-8.095.016-12.142.046-4.148-.027-8.295.024-12.442-.044-1.844.055-3.689.061-5.534.029-.655.01-1.334-.045-1.966.164-.37.338-.348 1.15-.97 1.145-1.838.079-3.673-.133-5.51-.156-1.748-.026-3.496-.183-5.242-.05-.24.047-.545-.078-.562-.351-.059-.709.024-1.417.047-2.125-1.363-.287-2.693-.708-4.078-.87C.53 31.9.267 31.765 0 31.653c1.071-.12 2.177-.11 3.2-.493.69-.216 1.407-.338 2.107-.517-.038-.721-.158-1.437-.123-2.16.074-2.992.237-5.983.552-8.958.086-.862.237-1.718.51-2.54.201-.537.118-1.128.347-1.66.199-1.048.561-2.093 1.294-2.89.513-.66 1.33-.96 2.127-1.095 1.88-.34 3.8-.259 5.702-.288 1.103-.003 2.228-.036 3.306.233.53.14.815.66.976 1.145.51 1.489.685 3.116.423 4.67.52.246 1.041.513 1.607.648.682-.017 1.349-.221 2.036-.207-.321-.315-.712-.596-.88-1.032-.213-.608-.199-1.264-.188-1.9-.495.023-.993.018-1.487-.025-.176.335-.26.704-.245 1.082-.043-.384-.17-.767-.12-1.154.103-.01.208 0 .312-.005-.132-.48-.187-.985-.106-1.477.077-.312.447-.3.689-.407-.122-2.43-.031-4.87-.14-7.301.309-.113.634-.154.962-.142l.155.32c1.658-.107 3.322.001 4.983-.011 2.314-.003 4.628.015 6.94-.008.458-.973.847-2.135 1.8-2.764l-.09-.333c-.18-.09-.39-.14-.536-.284-.22-.632-.175-1.325-.052-1.972m.292.238c.02.482.046.965.09 1.447.367.014.734.02 1.1.006.046-.483.07-.968.092-1.453a22 22 0 0 0-1.282 0m.344 3.1c-.482.727-1.025 1.447-1.134 2.345-.24 1.546-.625 3.06-.919 4.594.288-.323.678-.62.721-1.087.186-1.028.264-2.086.656-3.066.178-.654.624-1.219.64-1.913.348.159.662.401.83.753.634 1.258.927 2.65 1.093 4.039.028.534.397.925.76 1.274-.28-1.498-.672-2.974-.897-4.485-.209-.97-.608-2.298-1.75-2.454M22.27 5.57c-.095.894-.018 1.796-.024 2.693.06 1.479-.037 2.964.12 4.439.834-.051 1.673-.085 2.509-.048l.158.102c.087.555.183 1.255-.203 1.72-.498.302-1.114.143-1.661.14.092.681.11 1.422.518 2.006.353.197.757.3 1.105.519l-.652.163c1.183-.108 2.393-.062 3.542.272.043-.298.081-.598.077-.9q-.258-.005-.517-.013l.65-.015c.047-.196.248-.505.405-.202.28.863.591 1.721.835 2.597.063 1.063.709 1.942 1.183 2.853.358-.315.615-.74 1.01-1.018.449-.373 1.016-.541 1.56-.717-.629.53-1.56.753-1.967 1.537-.21.406-.601.89-.335 1.356.717 1.399 1.335 2.845 1.924 4.303.333.813.843 1.673 1.737 1.938 1.794.483 3.705.475 5.498.001.895-.264 1.406-1.12 1.74-1.935.574-1.412 1.161-2.822 1.863-4.176.222-.326.097-.727.114-1.093-.327-.073-.375-.465-.58-.676-.468-.538-1.138-.83-1.745-1.17l.017-.096c.962.327 2.108.833 2.383 1.919.457-.758.962-1.512 1.213-2.37.112-1.033.57-1.978.842-2.97.029-.21.169-.354.338-.464l.136.377c.213.008.43.004.643.028l-.477.009c-.003.3.034.599.079.897 1.154-.335 2.366-.381 3.555-.27l-.666-.17c.35-.213.759-.317 1.109-.522.409-.58.421-1.32.515-1.998-.517.014-1.067.125-1.56-.075-.409-.238-.352-.788-.376-1.194.038-.23-.056-.6.23-.693.836-.04 1.677.004 2.514.043.144-1.428.058-2.866.112-4.297 0-.946.066-1.894-.015-2.84a1.3 1.3 0 0 0-.489.02l.098.671.315-.145c-.044.353-.083.707-.153 1.056-.065.358-.119.718-.148 1.08-.132-.25-.224-.63-.588-.552-3.762-.006-7.523.03-11.285.056q.118.59.277 1.173c3.665-.022 7.33.015 10.996-.028.293-.021.583-.076.877-.111q-.062.499-.128.997c-.276-.173-.602-.145-.91-.148-3.52.012-7.041-.01-10.562.01.076.304.073.808.478.844.896.134 1.807.083 2.71.1 2.624-.017 5.251.045 7.871-.11l.344-.517c.048.732.003 1.466.037 2.198-1.079-.34-2.223-.169-3.334-.24-2.36.014-4.724-.042-7.08.051 1.842.615 3.72 1.331 5.164 2.682.43.408.547 1.135 1.155 1.342.847.278 1.753.245 2.625.409-.013.043-.036.13-.046.171l-.22.09c-.974-.073-1.967-.104-2.921-.308-.374-.407-.477-1.025-.971-1.324-.637-.437-1.136-1.06-1.835-1.408-.936-.491-1.888-.968-2.898-1.285.054.783.025 1.573.172 2.348 1.156.031 2.31-.13 3.464-.115.228 0 .29.207.344.387-1.219-.055-2.434.084-3.651.082l-.123.428c-1.357-.116-2.717-.405-4.087-.246-.06.692-.086 1.387-.102 2.08a13.6 13.6 0 0 1 3.948.642c1.092.37 2.24.658 3.193 1.342-2.347-.727-4.638-1.987-7.167-1.853-.115 2.534-.063 5.072.023 7.604l-.508-.006c-.011-2.541.052-5.08.046-7.62-1.767-.012-3.444.62-5.083 1.21-.613.214-1.19.543-1.836.651.696-.474 1.481-.79 2.283-1.03 1.492-.535 3.053-.918 4.645-.923.015-.718.008-1.436.02-2.152-.973.03-1.95.017-2.912.173a4.7 4.7 0 0 1-1.09.13l-.13-.43c-1.22-.002-2.435-.134-3.657-.085.066-.174.134-.387.355-.384 1.153-.013 2.302.143 3.454.119.15-.776.128-1.568.179-2.352-1.01.318-1.966.794-2.901 1.286-.697.35-1.194.968-1.83 1.405-.498.3-.6.922-.976 1.33-.736.182-1.506.163-2.256.267-.29.006-.613.112-.879-.053l-.05-.171c.868-.162 1.773-.131 2.62-.408.611-.2.728-.93 1.156-1.34 1.422-1.31 3.241-2.073 5.068-2.623a5.1 5.1 0 0 0-1.303-.113c-2.202.023-4.404-.037-6.606.019-.805.018-1.628-.045-2.404.217.034-.74-.01-1.485.034-2.226l.345.551c2.926.158 5.859.094 8.79.105.666-.034 1.36.045 2.006-.165.187-.213.206-.511.264-.777-3.741-.004-7.484-.023-11.226.011l-.226.283c-.046-.385-.1-.77-.147-1.154.295.037.588.092.885.113 3.662.043 7.325.006 10.986.028.11-.388.197-.78.277-1.173-2.271-.04-4.542-.007-6.813-.048-1.603.014-3.213-.062-4.811.032-.062.216-.181.647-.241.863a8.6 8.6 0 0 0-.151-1.436c-.074-.347-.114-.7-.157-1.051l.33.148.059-.63q-.219-.18-.458-.054m.629.19c-.046.483-.074.97-.1 1.456.702.134 1.42.094 2.13.117 2.816.028 5.634.008 8.45.01.394-.016.804.043 1.185-.078.257-.467.378-.992.533-1.5-4.065-.011-8.133 0-12.198-.005m15.984.005c.166.508.288 1.036.546 1.505.233.079.484.063.727.073 3.07-.004 6.141.018 9.211-.011.61-.016 1.226.001 1.829-.12-.033-.486-.059-.969-.105-1.452-4.069.005-8.139-.006-12.208.005M36.035 9.63a3.19 3.19 0 0 0-1.9 1.717c-.402.79-.316 1.705-.326 2.561.651.034 1.307-.05 1.954.064l-.218-.504a11.6 11.6 0 0 1 2.886-.003l-.13.485-.331-.123-.096-.045c-.611-.2-1.292-.139-1.908.01.551.164 1.165-.047 1.69.192.01.039.026.116.035.155-.437-.055-.877-.031-1.316-.042-.243-.107-.515-.155-.76-.019-.843.056-1.745.162-2.39.77 1.186.032 2.37-.07 3.557-.098 1.327-.003 2.652.134 3.981.099-.728-.683-1.77-.748-2.71-.772.682-.29 1.413-.114 2.126-.168-.005-.493.018-.989-.032-1.48-.082-.935-.584-1.832-1.355-2.367-.761-.642-1.838-.55-2.757-.432m-14.37 3.309c.017.369-.047.764.106 1.115.208.132.469.11.704.132.68.01 1.363.064 2.039-.03.043-.38.07-.76.092-1.141-.98-.01-1.96-.082-2.94-.076m27.717.077c.023.382.049.763.093 1.144.878.074 1.773.08 2.645-.048.328-.267.149-.803.2-1.176-.98 0-1.958.068-2.938.08m-32.846 3.956c-.714.312-1.453.568-2.116.986.113 2.583-.216 5.16-.187 7.743-.018 1.391.18 2.801-.092 4.177-.254 1.233-1.561 1.896-2.71 2.016-1.543.077-3.084.205-4.63.208a93 93 0 0 0-3.078-.148c-.167-.021-.321.059-.475.11.953.228 1.94.296 2.878.597 2.053.355 4.129.587 6.205.76.602.136 1.212-.008 1.81-.102l-.467-.13c.882-.146 1.702-.524 2.58-.682a5.5 5.5 0 0 1 .37-1.944c.269-.59.942-.806 1.535-.888 1.586-.185 3.185-.179 4.774-.318 1.747-.026 3.482-.3 5.226-.322-1.57.284-3.164.304-4.75.412-1.341.054-2.676.185-4.016.255-.78.145-1.697.029-2.34.574-.532.653-.554 1.558-.64 2.36-.69.254-1.453.33-2.12.595l.015.065c.798-.005 1.575-.232 2.365-.324.246-.58.314-1.24.684-1.76.415-.52 1.15-.43 1.738-.518 3.686-.225 7.369-.475 11.055-.693 1.279-.065 2.558.043 3.835.11 1.982.347 4.018.346 6.002.003 1.38-.073 2.763-.198 4.144-.093 3.125.16 6.245.423 9.371.575.913.098 1.857.046 2.743.313.76.388.747 1.371 1.07 2.063.779.122 1.555.256 2.337.361l-.011-.245c-.715.007-1.386-.272-2.067-.453-.086-.801-.107-1.706-.637-2.359-.647-.548-1.568-.428-2.351-.574-1.334-.07-2.663-.203-3.997-.254-1.592-.11-3.194-.126-4.768-.418.88-.042 1.747.14 2.623.17 2.359.188 4.725.248 7.084.438.668.065 1.46.221 1.81.87a5.3 5.3 0 0 1 .396 1.999c.865.15 1.672.543 2.55.633a4.6 4.6 0 0 0-.61.264c.459-.096.907.026 1.36.085 2.273-.215 4.552-.428 6.804-.823.947-.304 1.944-.369 2.905-.608-.156-.048-.314-.116-.478-.102a89 89 0 0 0-3.075.146c-1.547-.003-3.093-.13-4.637-.208-1.205-.12-2.568-.864-2.741-2.181-.242-1.588.009-3.193-.068-4.788 0-2.325-.292-4.643-.177-6.967-.636-.393-1.334-.662-2.022-.942-.808-.484-1.822-.447-2.692-.16-.496.264-1.028.47-1.477.82-.242.157-.462.423-.78.387-.814.033-1.636-.248-2.442-.078a57 57 0 0 0-2.805 1.68c-.497.311-1.077.42-1.63.577-.422.542-.824 1.096-1.228 1.649-1.2 1.335-1.764 3.085-2.445 4.715-.46 1.223-1.023 2.642-2.359 3.11-1.66.429-3.418.437-5.092.078-.995-.205-1.734-1.04-2.13-1.942-.786-1.757-1.348-3.631-2.4-5.256-.637-.756-1.187-1.58-1.799-2.356-.594-.165-1.217-.285-1.734-.64a51 51 0 0 0-2.699-1.615c-.897-.197-1.822.197-2.724.038-.575-.401-1.142-.832-1.82-1.05.024-.041.073-.126.096-.17-.172.011-.347.034-.513-.02-.765-.194-1.635-.223-2.336.189m11.572 2.052c-.876-.074-1.762-.076-2.608-.352.566.421 1.191.776 1.877.955.312.102.676.116.925.357.737.732 1.137 1.75 1.919 2.436-.24-.792-.673-1.5-1.008-2.252-.507-1.061-.847-2.194-1.13-3.334-.255.709-.169 1.478.025 2.19m16.894.636c-.37.945-.968 1.798-1.214 2.791.721-.74 1.167-1.7 1.877-2.449.25-.254.62-.27.941-.373.51-.13.97-.4 1.459-.593q-.128-.098-.257-.193c-.633.113-1.277.114-1.914.182l.084-.653c.266.326.698.099 1.05.178.411.072.83.038 1.235-.054l-.023.42q.122-.208.22-.43c.438-.24.926-.438 1.235-.852-1.106-.04-2.205.074-3.304.193l-.115.567-.218-.303c.01-.423-.03-.844-.105-1.26-.33.939-.545 1.918-.95 2.829m-20.71-2.026c.646.783 1.728 1.051 2.704.94.004-.227-.013-.48.3-.423l.064.436.456-.048q-.108-.354-.224-.704c-1.096-.136-2.194-.236-3.3-.2"/><path fill="#707070" d="m34.68 12.07-.008-.384c.054.289.309.372.569.292 1.307-.168 2.63-.04 3.936-.008l.13-.282q0 .195.007.39c.078.06.237.178.316.238.131.48.182.977.13 1.475-.666.077-1.208-.294-1.769-.573a4.9 4.9 0 0 0-1.991 0c-.566.276-1.11.66-1.778.563a4.1 4.1 0 0 1 .137-1.465zM20.18 19.232c.57.13 1.015.538 1.544.768 1.406.65 2.84 1.237 4.262 1.85.532.24 1.103.45 1.514.885-.56-.135-1.042-.459-1.57-.67-1.308-.53-2.59-1.115-3.884-1.677-.663-.307-1.347-.624-1.867-1.157M52.152 20.055c.572-.244 1.059-.661 1.66-.843-.53.583-1.271.893-1.969 1.22-1.243.537-2.472 1.103-3.728 1.608-.55.218-1.052.551-1.628.7.405-.44.977-.647 1.507-.887 1.388-.596 2.783-1.173 4.158-1.799M34.532 20.303a3.6 3.6 0 0 1 1.638-.591c-.155.645-.083 1.31-.075 1.967.05 1.147.038 2.297.134 3.443l-.49-.053c-.085-1.025-.037-2.056-.12-3.081-.042-.467-.056-.94.049-1.4-.283.376-.7.606-1.065.892-.214-.345-.174-.695.2-.899zm.283.321c.422-.131.86-.309 1.1-.707-.405.153-.896.276-1.1.707M37.819 19.712c.576.065 1.142.248 1.616.59l-.173.3c.078.082.235.244.312.326q-.103.274-.217.542c-.349-.284-.748-.514-1.031-.872.155.713.014 1.439.002 2.158-.031.77-.013 1.544-.079 2.315l-.49.05c.095-1.145.083-2.294.132-3.44.008-.657.083-1.322-.072-1.97m.235.19c.235.347.613.61 1.03.663-.119-.429-.686-.486-1.03-.663M18.164 24.248c.46-.09.93.048 1.395.079 2.905.389 5.836.579 8.738.994.338.1.811.043 1.011.398.55.826.876 1.8.962 2.79-.748-.048-1.492-.14-2.24-.165.252-.236.285-.554.212-.879l-.205.072.085-.456c-.432-.326-.997-.316-1.508-.398-2.647-.34-5.308-.565-7.946-.975-.263-.08-.635-.044-.79-.308-.017-.396.029-.834.285-1.152M45.806 25.302c3.182-.424 6.384-.671 9.568-1.079.628-.193.74.593.744 1.036.033.386-.447.346-.704.433-2.922.464-5.879.683-8.809 1.1-.39.056-.986.223-.655.748l-.204-.078c-.04.314-.1.649.206.862-.745.068-1.492.134-2.239.179.1-.987.413-1.962.97-2.788.23-.372.751-.305 1.123-.413M35.265 26.527c.341-.374.871-.479 1.355-.453.713.011 1.575-.137 2.107.464.112.342-.255.646-.576.596-.286-.02-.566-.073-.85-.104.072-.278-.135-.446-.355-.554q.375.009.753.012l-.324.277c.267.228.631.392.972.199.299-.613-.57-.6-.95-.572-.59.1-1.305-.196-1.803.209l-.02.202.406.425c-.314-.079-.875-.25-.715-.701"/></svg>