<svg width="74" height="36" viewBox="0 0 74 36" fill="none" xmlns="http://www.w3.org/2000/svg">
<path d="M64.7265 3.49947L57.9617 0.0755749C57.6281 -0.0932422 57.35 0.0296825 57.35 0.355428V2.40667L64.9794 5.28369V3.99783C64.9794 3.79288 64.8678 3.57056 64.7265 3.49947Z" fill="#43FA76"/>
<path d="M61.8967 10.123L66.5593 10.1204C66.6635 10.1204 66.7468 9.97776 66.7468 9.80158V8.69306L61.5063 8.01904V9.65247C61.5063 9.91406 61.6833 10.1233 61.8967 10.123Z" fill="#43FA76"/>
<path d="M57.35 3.62537V5.67638C57.35 6.00212 57.6281 6.31837 57.9617 6.38158L66.7467 8.0348V6.92635C66.7467 6.75041 66.6635 6.58107 66.5593 6.54802L57.35 3.62537Z" fill="#43FA76"/>
<path d="M36.0612 0.128172C36.6696 -0.0478391 37.3165 -0.0370311 37.9265 0.126628C38.0464 0.770458 38.094 1.45906 37.8789 2.08745C37.6884 2.34066 37.3396 2.29589 37.0691 2.38235C37.9096 3.26549 38.6825 4.26597 38.976 5.47798C42.9756 5.50268 46.9814 5.50577 50.9795 5.43321C51.0271 5.3699 51.1255 5.2433 51.1731 5.18C51.4865 5.1661 51.7969 5.21705 52.0919 5.32976C51.9813 7.76149 52.0597 10.1994 51.9598 12.6311C52.1688 12.716 52.4284 12.7269 52.5959 12.8998C52.748 13.4232 52.6635 13.9867 52.5329 14.507C52.6359 14.5117 52.7404 14.5024 52.8449 14.5117C52.8725 14.8946 52.7465 15.2759 52.7066 15.6573C52.7112 15.4118 52.7142 15.1663 52.7173 14.9224C52.6159 14.8143 52.516 14.7078 52.4162 14.5997C51.9414 14.6244 51.4666 14.629 50.9918 14.6089C51.001 15.245 51.0164 15.9012 50.8028 16.5095C50.6338 16.948 50.2404 17.2321 49.9131 17.544C50.6046 17.5224 51.2745 17.7308 51.9613 17.7478C52.5253 17.6135 53.0461 17.3464 53.567 17.1009C53.2935 15.4319 53.4902 13.6733 54.1217 12.1046C54.3076 11.5874 54.8009 11.2462 55.3402 11.1968C56.8153 10.9575 58.315 11.0779 59.8039 11.0594C61.4372 11.0872 63.1044 11.0686 64.6916 11.5133C65.6627 11.7681 66.3342 12.5956 66.7951 13.4448C67.2162 14.2307 67.3145 15.1293 67.568 15.9707C67.5895 16.877 68.0428 17.6968 68.1304 18.5954C68.5437 21.7714 68.6958 24.9751 68.7973 28.1741C68.8464 29.0002 68.7404 29.8215 68.6789 30.6429C69.3504 30.8128 70.0342 30.9347 70.698 31.1339C71.752 31.5261 72.8906 31.5569 74 31.6372C73.3316 32.051 72.5387 32.0186 71.7981 32.1838C70.9146 32.4725 69.9896 32.5883 69.0953 32.8384C69.1138 33.578 69.2229 34.3253 69.1245 35.0633C68.851 35.5265 68.2241 35.2269 67.7954 35.2717C65.0804 35.2609 62.3668 35.3983 59.6564 35.5203C58.9649 35.5187 58.2673 35.5836 57.582 35.4832C57.1088 35.2177 57.1979 34.3484 56.574 34.2928C55.6091 34.1462 54.6303 34.2311 53.6592 34.2249C52.1765 34.2558 50.6937 34.2079 49.2125 34.1801C45.1652 34.2542 41.1179 34.1956 37.0707 34.2264C32.9235 34.1987 28.7764 34.2496 24.6293 34.1817C22.7854 34.2373 20.94 34.2434 19.0946 34.211C18.4401 34.2218 17.7609 34.1662 17.1294 34.3747C16.7591 34.7128 16.7806 35.5249 16.1598 35.5203C14.3206 35.599 12.486 35.3875 10.6483 35.3643C8.9012 35.3381 7.15262 35.1806 5.4071 35.3134C5.1674 35.3613 4.86163 35.2362 4.84473 34.9629C4.78634 34.2542 4.86931 33.5456 4.89236 32.8384C3.52944 32.5513 2.1988 32.1298 0.814369 31.9676C0.530108 31.9012 0.267359 31.7654 0 31.6527C1.07097 31.5338 2.17728 31.543 3.20062 31.1601C3.89053 30.944 4.60656 30.822 5.30723 30.6429C5.26881 29.9219 5.14896 29.2055 5.1843 28.4829C5.25806 25.4907 5.42093 22.5001 5.73592 19.5249C5.82197 18.6634 5.97255 17.8065 6.24605 16.9851C6.44734 16.4478 6.36437 15.8565 6.59331 15.3253C6.79153 14.277 7.15415 13.2317 7.88708 12.435C8.40029 11.7758 9.21773 11.4747 10.0137 11.3404C11.8944 10.9992 13.8135 11.081 15.7158 11.0517C16.819 11.0486 17.9438 11.0162 19.0224 11.2848C19.5525 11.4253 19.8368 11.9456 19.9981 12.4304C20.5083 13.9188 20.6834 15.5461 20.4207 17.1009C20.9416 17.3464 21.4625 17.6135 22.0279 17.7478C22.7101 17.7308 23.377 17.527 24.0638 17.5409C23.7427 17.2259 23.3524 16.9449 23.1849 16.5095C22.9713 15.9012 22.9852 15.245 22.9959 14.6089C22.5012 14.6321 22.0033 14.6275 21.5086 14.5842C21.3334 14.9193 21.2489 15.2883 21.2642 15.6665C21.2212 15.2821 21.0937 14.8992 21.1444 14.5117C21.2473 14.5024 21.3518 14.5117 21.4563 14.507C21.3242 14.0269 21.2689 13.522 21.3503 13.0295C21.4271 12.7176 21.7974 12.7299 22.0387 12.6234C21.9173 10.1932 22.0079 7.75377 21.8988 5.32204C22.2077 5.20933 22.5334 5.16764 22.8607 5.18C22.8991 5.26028 22.9775 5.42085 23.0159 5.4996C24.6738 5.39306 26.3379 5.50114 27.9989 5.48879C30.313 5.4857 32.627 5.50423 34.9395 5.48107C35.3974 4.50838 35.7861 3.34578 36.7388 2.71739C36.7081 2.60622 36.6789 2.49506 36.6497 2.38389C36.4699 2.29434 36.2594 2.24494 36.1134 2.0998C35.8921 1.46833 35.9382 0.77509 36.0612 0.128172ZM36.3531 0.365941C36.3731 0.847656 36.3992 1.33091 36.4438 1.81263C36.8095 1.82652 37.1767 1.8327 37.5439 1.8188C37.5885 1.33555 37.6131 0.850744 37.6346 0.365941C37.2074 0.35359 36.7803 0.35359 36.3531 0.365941ZM36.6973 3.46621C36.2148 4.19341 35.6724 4.91289 35.5633 5.81148C35.3221 7.35698 34.938 8.8716 34.6445 10.4047C34.9318 10.0821 35.3221 9.78408 35.3651 9.3178C35.551 8.28953 35.6294 7.23191 36.0212 6.2515C36.1995 5.59841 36.6451 5.03332 36.6604 4.33854C37.0092 4.49757 37.3227 4.73997 37.4917 5.09199C38.1248 6.35032 38.4182 7.74142 38.5842 9.13098C38.6118 9.66519 38.9806 10.0558 39.3432 10.4047C39.0636 8.90711 38.6718 7.43108 38.4474 5.91955C38.2385 4.94995 37.839 3.62214 36.6973 3.46621ZM22.2691 5.56907C22.1739 6.46302 22.2507 7.36469 22.2446 8.26173C22.3045 9.74084 22.2077 11.2261 22.3644 12.7006C23.1988 12.6497 24.0377 12.6157 24.8736 12.6527C24.9135 12.679 24.9919 12.7299 25.0318 12.7546C25.1194 13.3105 25.2147 14.0099 24.829 14.4746C24.3312 14.7772 23.715 14.6182 23.168 14.6151C23.2602 15.296 23.2771 16.0371 23.6858 16.6207C24.0392 16.8183 24.4434 16.9218 24.7906 17.1395C24.6277 17.1812 24.302 17.2615 24.1391 17.3031C25.3223 17.1951 26.5315 17.2414 27.6809 17.5749C27.7239 17.2769 27.7623 16.9774 27.7577 16.6748C27.5856 16.6717 27.4135 16.667 27.2414 16.6624C27.4581 16.6562 27.6747 16.6516 27.8914 16.647C27.9375 16.4509 28.1387 16.1421 28.2955 16.4447C28.5767 17.3078 28.887 18.1662 29.1314 19.0416C29.1944 20.1054 29.8397 20.9839 30.3145 21.8949C30.6725 21.5799 30.9291 21.1553 31.324 20.8774C31.7727 20.5038 32.3397 20.3355 32.8836 20.1595C32.2551 20.6906 31.324 20.9129 30.9168 21.6972C30.7063 22.1033 30.316 22.5866 30.5819 23.0528C31.2994 24.4517 31.9171 25.8983 32.5056 27.3558C32.839 28.1695 33.3492 29.0295 34.2434 29.2935C36.0366 29.7768 37.948 29.769 39.7412 29.295C40.6355 29.031 41.1471 28.1741 41.4806 27.3605C42.0552 25.9478 42.6422 24.5381 43.3444 23.1841C43.5657 22.8583 43.4412 22.4569 43.4581 22.0909C43.1308 22.0184 43.0832 21.6262 42.8773 21.4147C42.4102 20.8774 41.7402 20.5856 41.1333 20.2444C41.1379 20.2212 41.1456 20.1718 41.1502 20.1487C42.1121 20.476 43.2583 20.9824 43.5334 22.0678C43.9897 21.3097 44.4953 20.5563 44.7457 19.6978C44.8579 18.6649 45.3158 17.72 45.5877 16.7272C45.6169 16.5173 45.7568 16.3737 45.9258 16.2641C45.9596 16.3582 46.0287 16.5466 46.0625 16.6408C46.2746 16.6485 46.4912 16.6454 46.7048 16.6686C46.5865 16.6717 46.3483 16.6763 46.2285 16.6778C46.2254 16.9789 46.2623 17.2769 46.3068 17.5749C47.4608 17.2398 48.6731 17.1935 49.8624 17.3047C49.6949 17.2615 49.363 17.1765 49.1956 17.1348C49.5459 16.9218 49.9546 16.8183 50.3049 16.613C50.7137 16.0325 50.726 15.2929 50.8197 14.6151C50.3034 14.629 49.7533 14.7402 49.2601 14.5395C48.8514 14.3017 48.9082 13.752 48.8836 13.346C48.9221 13.1159 48.8283 12.7454 49.1141 12.6527C49.95 12.6126 50.7905 12.6574 51.6279 12.696C51.7723 11.2678 51.6863 9.83039 51.7401 8.39915C51.7401 7.4527 51.8061 6.50471 51.7247 5.55981C51.5603 5.53511 51.3974 5.54128 51.2361 5.57988C51.2607 5.74663 51.3098 6.08167 51.3344 6.24996C51.4128 6.2129 51.5711 6.14188 51.6494 6.10483C51.6049 6.45839 51.5664 6.81196 51.4958 7.16089C51.4312 7.51909 51.3775 7.87883 51.3483 8.24166C51.2161 7.99154 51.1239 7.61018 50.7598 7.68893C46.9983 7.68275 43.2368 7.7198 39.4754 7.74451C39.5553 8.13822 39.6444 8.53038 39.752 8.91791C43.4166 8.8963 47.0828 8.93335 50.7475 8.89012C51.0409 8.86851 51.3314 8.81447 51.6248 8.77896C51.5818 9.11091 51.5419 9.4444 51.4973 9.77636C51.2207 9.60343 50.895 9.63122 50.5877 9.62814C47.0674 9.64049 43.5457 9.61887 40.0255 9.6374C40.1007 9.94156 40.0977 10.4464 40.5033 10.4819C41.3991 10.6163 42.3103 10.5653 43.2138 10.5823C45.8367 10.5653 48.4642 10.6271 51.084 10.4727C51.17 10.343 51.3421 10.0836 51.4282 9.95545C51.4758 10.6873 51.4312 11.4207 51.465 12.1525C50.3864 11.8128 49.2417 11.9842 48.1307 11.9132C45.7706 11.9271 43.4074 11.8715 41.0503 11.9641C42.8926 12.5786 44.7703 13.295 46.2147 14.646C46.6449 15.0536 46.7617 15.7808 47.3701 15.9877C48.2168 16.2656 49.1233 16.2332 49.9946 16.3968C49.9823 16.4401 49.9592 16.5265 49.9485 16.5682C49.8931 16.5914 49.7825 16.6346 49.7287 16.6578C48.7546 16.5852 47.762 16.5543 46.8078 16.3505C46.4344 15.9429 46.3314 15.3253 45.8367 15.0258C45.2005 14.5889 44.7012 13.9667 44.002 13.6177C43.0663 13.1267 42.1136 12.6497 41.1041 12.3331C41.1579 13.1159 41.1287 13.9064 41.2762 14.6815C42.4317 14.7124 43.5856 14.5503 44.7396 14.5657C44.9685 14.5657 45.03 14.7726 45.0838 14.9532C43.8653 14.8977 42.6499 15.0366 41.4329 15.0351C41.4022 15.1416 41.3407 15.3562 41.31 15.4627C39.9532 15.3469 38.5934 15.0582 37.2228 15.2173C37.1629 15.9089 37.1367 16.6037 37.1214 17.297C38.4597 17.3217 39.7934 17.5255 41.0688 17.9393C42.1613 18.3098 43.3091 18.597 44.2617 19.2809C41.9154 18.5537 39.6244 17.2939 37.0953 17.4282C36.98 19.9618 37.0323 22.5001 37.1183 25.0322C36.9908 25.0306 36.7373 25.0276 36.6097 25.026C36.599 22.4847 36.662 19.9464 36.6558 17.4066C34.8888 17.3942 33.2124 18.0257 31.5729 18.6155C30.9598 18.8301 30.3836 19.159 29.7368 19.2671C30.4328 18.7931 31.218 18.4765 32.0201 18.2372C33.512 17.7015 35.0732 17.3186 36.665 17.3139C36.6804 16.596 36.6727 15.8781 36.685 15.1617C35.7124 15.1926 34.7351 15.1787 33.7733 15.3346C33.4137 15.4133 33.0511 15.472 32.6823 15.4658C32.65 15.3593 32.5855 15.1431 32.5532 15.0351C31.3332 15.0335 30.1178 14.9007 28.8963 14.9502C28.9623 14.7757 29.0299 14.5626 29.2512 14.5657C30.4036 14.5534 31.5529 14.7093 32.7054 14.6846C32.8559 13.9095 32.8329 13.1175 32.8836 12.3331C31.8741 12.6512 30.9184 13.1267 29.9826 13.6193C29.2865 13.9682 28.7887 14.5873 28.1526 15.0243C27.6547 15.3238 27.5533 15.946 27.1769 16.3536C26.4409 16.5358 25.6711 16.5173 24.9212 16.6207C24.6308 16.6269 24.3081 16.7334 24.0423 16.5682C24.03 16.525 24.0039 16.4401 23.9916 16.3968C24.8598 16.2347 25.7648 16.2656 26.6114 15.9892C27.223 15.7885 27.3397 15.0582 27.7684 14.6491C29.1897 13.3383 31.009 12.5755 32.836 12.0259C32.4088 11.924 31.9693 11.9039 31.533 11.9132C29.3311 11.9363 27.1292 11.8761 24.9274 11.9317C24.1222 11.9502 23.2986 11.8869 22.5227 12.1494C22.5565 11.4083 22.5135 10.6641 22.5565 9.92303C22.6425 10.0604 22.8162 10.3368 22.9022 10.4742C25.8278 10.6317 28.761 10.5684 31.6912 10.5792C32.3581 10.5452 33.0526 10.624 33.698 10.414C33.8854 10.2009 33.9039 9.90296 33.9622 9.6374C30.2208 9.63277 26.4777 9.61424 22.7363 9.64821L22.5104 9.93075C22.4643 9.54631 22.4105 9.16186 22.3629 8.77742C22.6579 8.81447 22.9514 8.86851 23.2479 8.89012C26.9095 8.93335 30.5726 8.8963 34.2342 8.91791C34.3433 8.53038 34.4309 8.13822 34.5108 7.74451C32.2398 7.70437 29.9688 7.73833 27.6978 7.69665C26.0951 7.71054 24.4848 7.63489 22.8868 7.72907C22.8254 7.94522 22.7055 8.37599 22.6456 8.59214C22.6425 8.10734 22.578 7.63026 22.495 7.15626C22.4213 6.80887 22.3813 6.45685 22.3383 6.10483C22.4213 6.14188 22.5857 6.21599 22.6686 6.25305C22.6825 6.09556 22.7117 5.7806 22.727 5.62311C22.5811 5.50268 22.4289 5.48416 22.2691 5.56907ZM22.8976 5.75898C22.8515 6.24224 22.8238 6.72858 22.7977 7.21493C23.4999 7.34926 24.2175 7.30911 24.9274 7.33227C27.7439 7.36006 30.5619 7.33999 33.3784 7.34154C33.7717 7.3261 34.182 7.38477 34.563 7.26434C34.8196 6.79652 34.941 6.27157 35.0962 5.76361C31.0305 5.7528 26.9633 5.76361 22.8976 5.75898ZM38.8823 5.76361C39.0482 6.27157 39.1696 6.79961 39.4277 7.26897C39.6613 7.34771 39.9118 7.33227 40.1545 7.34154C43.2245 7.33845 46.2961 7.36006 49.3661 7.33073C49.9761 7.31529 50.5923 7.33227 51.1946 7.2103C51.1623 6.7255 51.1362 6.24224 51.0901 5.75898C47.0213 5.76361 42.951 5.7528 38.8823 5.76361ZM36.035 9.63122C35.2038 9.89678 34.4924 10.5468 34.1359 11.3481C33.7333 12.1386 33.8194 13.0526 33.8086 13.9095C34.4601 13.9435 35.1162 13.8586 35.7631 13.9728C35.7078 13.8462 35.6002 13.5961 35.5449 13.4695C36.5037 13.3444 37.4702 13.3506 38.4305 13.4664C38.3983 13.5868 38.3337 13.8292 38.3015 13.9512C38.2185 13.9203 38.0525 13.8586 37.9696 13.8277L37.8743 13.7829C37.2627 13.5822 36.5821 13.644 35.9659 13.7922C36.5175 13.9574 37.1306 13.7459 37.6561 13.9852C37.6653 14.0238 37.6822 14.101 37.6914 14.1396C37.2535 14.0855 36.8141 14.1087 36.3746 14.0979C36.1318 13.9914 35.8599 13.9435 35.6156 14.0794C34.772 14.1349 33.8701 14.2415 33.2247 14.8498C34.4109 14.8807 35.5956 14.7788 36.7818 14.751C38.1094 14.7479 39.4339 14.8853 40.763 14.8498C40.0347 14.1674 38.9929 14.1025 38.0525 14.0778C38.7348 13.7876 39.4662 13.9636 40.1791 13.9095C40.1745 13.417 40.1975 12.9214 40.1468 12.4304C40.0654 11.4948 39.563 10.5977 38.7916 10.0635C38.031 9.42124 36.9539 9.51234 36.035 9.63122ZM21.6653 12.9399C21.6822 13.3089 21.6176 13.7042 21.7713 14.0547C21.9787 14.1874 22.2399 14.1658 22.475 14.1874C23.1542 14.1967 23.838 14.2507 24.514 14.1566C24.5571 13.7767 24.5832 13.3969 24.6062 13.0156C23.6259 13.0063 22.6456 12.9337 21.6653 12.9399ZM49.3815 13.0171C49.4045 13.3985 49.4307 13.7798 49.4752 14.1612C50.3526 14.2353 51.2484 14.2415 52.1196 14.1133C52.4484 13.8462 52.2686 13.3105 52.3209 12.9368C51.3406 12.9368 50.3618 13.0048 49.3815 13.0171ZM16.5363 16.9727C15.8218 17.2846 15.0827 17.5409 14.4205 17.9593C14.5326 20.5424 14.2038 23.1192 14.233 25.7023C14.2146 27.0934 14.4128 28.503 14.1408 29.8787C13.8873 31.1123 12.5797 31.7746 11.4304 31.8951C9.88767 31.9723 8.34651 32.1004 6.80075 32.1035C5.77587 32.034 4.74946 31.9908 3.72305 31.9553C3.55556 31.9337 3.40191 32.014 3.24826 32.0649C4.20091 32.2934 5.18738 32.3613 6.1262 32.6624C8.17903 33.0175 10.2549 33.2491 12.3308 33.422C12.9331 33.5579 13.5431 33.4143 14.1408 33.3201C14.024 33.2877 13.7905 33.2229 13.6737 33.1905C14.5557 33.0438 15.3762 32.6655 16.2536 32.508C16.2582 31.8457 16.3826 31.1818 16.6239 30.5642C16.8928 29.9744 17.5658 29.7582 18.1589 29.6764C19.7446 29.4911 21.3441 29.4973 22.9329 29.3584C24.68 29.3321 26.4147 29.0588 28.1587 29.0357C26.5899 29.3198 24.995 29.3398 23.4093 29.4479C22.0679 29.5019 20.7326 29.6332 19.3927 29.7027C18.6122 29.8478 17.6964 29.732 17.0526 30.277C16.5209 30.9301 16.4994 31.8349 16.4134 32.6362C15.7235 32.8909 14.9598 32.9666 14.2929 33.2321L14.3083 33.297C15.1058 33.2924 15.8833 33.0654 16.673 32.9728C16.9189 32.3938 16.9865 31.733 17.3568 31.2126C17.7717 30.6939 18.5077 30.7834 19.0946 30.6954C22.7808 30.47 26.4639 30.2199 30.1501 30.0022C31.4285 29.9373 32.7084 30.0454 33.9853 30.1118C35.9674 30.4592 38.0034 30.4576 39.987 30.1149C41.3669 30.0423 42.7498 29.9173 44.1311 30.0223C47.2564 30.1828 50.3756 30.4453 53.5025 30.5966C54.4152 30.6954 55.3586 30.6429 56.2452 30.91C57.0043 31.2976 56.992 32.2811 57.3147 32.9728C58.0937 33.0947 58.8696 33.229 59.6517 33.334C59.6487 33.2723 59.6441 33.1503 59.641 33.0886C58.9265 33.0963 58.255 32.8168 57.5743 32.6362C57.4883 31.8349 57.4668 30.9301 56.9367 30.277C56.2898 29.7289 55.3694 29.8493 54.5858 29.7027C53.252 29.6332 51.9229 29.5004 50.5892 29.4494C48.9973 29.3383 47.3947 29.3228 45.8213 29.031C46.7002 28.9893 47.5684 29.1715 48.4442 29.2009C50.8028 29.3892 53.1691 29.4494 55.5277 29.6394C56.1961 29.7042 56.9889 29.8601 57.3377 30.5086C57.6035 31.137 57.7265 31.8256 57.7341 32.508C58.5992 32.6578 59.4059 33.0515 60.2848 33.141C60.0758 33.2167 59.8699 33.3001 59.6748 33.4051C60.1327 33.3093 60.5814 33.4313 61.0331 33.49C63.3072 33.2754 65.5859 33.0623 67.8385 32.667C68.785 32.3629 69.7822 32.298 70.7425 32.0587C70.5873 32.0109 70.4291 31.9429 70.2647 31.9568C69.2398 31.9908 68.2134 32.034 67.19 32.1035C65.6427 32.1004 64.097 31.9723 62.5527 31.8951C61.3481 31.7746 59.9852 31.0305 59.8115 29.7135C59.5703 28.1263 59.8208 26.5206 59.7439 24.9257C59.7439 22.6005 59.452 20.283 59.5672 17.9593C58.9311 17.5656 58.2335 17.297 57.5451 17.0175C56.7369 16.5327 55.7228 16.5698 54.8531 16.8569C54.3568 17.121 53.8252 17.3278 53.3765 17.6768C53.1337 17.8343 52.914 18.0998 52.5959 18.0643C51.7816 18.0967 50.9595 17.8157 50.1544 17.9856C49.2017 18.5151 48.269 19.0818 47.3486 19.6654C46.8523 19.9773 46.2715 20.0853 45.7184 20.2428C45.2973 20.7848 44.8948 21.339 44.4907 21.8918C43.2906 23.2273 42.7267 24.9766 42.046 26.607C41.5851 27.8298 41.0227 29.2487 39.6874 29.7166C38.0279 30.1458 36.2686 30.1535 34.5953 29.7953C33.5996 29.5899 32.8605 28.7547 32.4641 27.853C31.6789 26.096 31.1166 24.2216 30.0656 22.5974C29.4279 21.8408 28.8778 21.0179 28.2663 20.2413C27.6716 20.0761 27.0493 19.9557 26.5315 19.6005C25.648 19.0339 24.7476 18.4951 23.8333 17.9856C22.936 17.7895 22.011 18.1832 21.1091 18.0242C20.5344 17.6227 19.9674 17.192 19.2898 16.9743C19.3128 16.9326 19.362 16.8477 19.385 16.8044C19.213 16.8152 19.0378 16.8384 18.8718 16.7844C18.1066 16.5898 17.237 16.5605 16.5363 16.9727ZM28.108 19.0247C27.2322 18.9505 26.3456 18.949 25.5005 18.6726C26.0659 19.0941 26.6913 19.4492 27.3766 19.6283C27.6885 19.7302 28.0527 19.7441 28.3016 19.985C29.0392 20.7168 29.4387 21.7343 30.2208 22.4214C29.9811 21.6293 29.5478 20.9206 29.2128 20.1687C28.7057 19.108 28.3662 17.9748 28.0834 16.8353C27.8284 17.544 27.9144 18.3129 28.108 19.0247ZM45.0023 19.6608C44.632 20.6057 44.0343 21.4595 43.7885 22.4522C44.5091 21.7127 44.9547 20.7523 45.6646 20.0035C45.915 19.7488 46.2853 19.7333 46.6065 19.6299C47.1166 19.5002 47.576 19.23 48.0647 19.037C47.9786 18.9722 47.8941 18.9073 47.8081 18.844C47.175 18.9567 46.5312 18.9583 45.8935 19.0262C45.915 18.8625 45.9565 18.5368 45.978 18.3731C46.2439 18.6989 46.6756 18.4719 47.0275 18.5507C47.4393 18.6232 47.8572 18.5893 48.2629 18.4966L48.2398 18.9166C48.3213 18.7776 48.395 18.6356 48.4596 18.4874C48.8975 18.2465 49.3861 18.0489 49.6949 17.6351C48.5886 17.5949 47.49 17.7092 46.3914 17.8281C46.3622 17.9701 46.3038 18.2527 46.2761 18.3947C46.2024 18.2928 46.1301 18.1925 46.0579 18.0921C46.0671 17.6691 46.0287 17.2476 45.9534 16.8322C45.6231 17.771 45.408 18.7498 45.0023 19.6608ZM24.2928 17.6351C24.9381 18.4179 26.0198 18.6865 26.9956 18.5754C27.0002 18.3484 26.9833 18.0952 27.2952 18.1523C27.3105 18.2604 27.3428 18.4781 27.3597 18.5877L27.8161 18.5398C27.7439 18.3036 27.6701 18.0689 27.5917 17.8358C26.4962 17.6999 25.3975 17.5996 24.2928 17.6351Z" fill="#707070"/>
<path d="M34.6798 12.0692C34.6782 11.941 34.6752 11.8129 34.6721 11.6863C34.7259 11.975 34.9809 12.0583 35.2406 11.9781C36.5482 11.8098 37.8712 11.9379 39.1772 11.9703C39.2095 11.8993 39.274 11.7588 39.3078 11.6878C39.3078 11.8175 39.3094 11.9472 39.314 12.0784C39.3924 12.1371 39.5506 12.256 39.6305 12.3162C39.7611 12.7964 39.8118 13.2935 39.7596 13.7907C39.0943 13.8679 38.5519 13.4973 37.991 13.2179C37.3411 13.0804 36.6496 13.0804 35.9997 13.2179C35.4342 13.4942 34.8903 13.8787 34.2219 13.7814C34.1773 13.2873 34.228 12.7933 34.3586 12.3162C34.4385 12.2544 34.5999 12.1309 34.6798 12.0692Z" fill="#707070"/>
<path d="M20.1794 19.2315C20.7495 19.3628 21.1951 19.7704 21.7236 20.0004C23.1296 20.6504 24.5632 21.2371 25.986 21.8501C26.5177 22.0894 27.0893 22.2994 27.4995 22.7348C26.9402 22.6004 26.4577 22.2762 25.9292 22.0647C24.6216 21.5351 23.3401 20.95 22.0463 20.388C21.3825 20.0807 20.6988 19.7642 20.1794 19.2315Z" fill="#707070"/>
<path d="M52.1519 20.0545C52.7235 19.8105 53.2106 19.3936 53.8113 19.2115C53.2812 19.7951 52.5406 20.1054 51.843 20.4312C50.6 20.9685 49.3707 21.5351 48.1154 22.04C47.5653 22.2577 47.0628 22.5912 46.4866 22.7394C46.8923 22.3009 47.4639 22.0925 47.994 21.8532C49.3815 21.2572 50.7767 20.6798 52.1519 20.0545Z" fill="#707070"/>
<path d="M34.5323 20.3031C35.0224 19.9742 35.5833 19.7719 36.1702 19.7117C36.015 20.3571 36.0872 21.0226 36.0949 21.6787C36.1456 22.8259 36.1333 23.9761 36.2286 25.1218C36.1057 25.1079 35.8614 25.0816 35.7385 25.0693C35.6539 24.0441 35.7016 23.0127 35.6186 21.9875C35.5771 21.5212 35.5633 21.0473 35.6678 20.5887C35.385 20.9639 34.9671 21.1939 34.6029 21.4796C34.3894 21.1353 34.4293 20.7848 34.8027 20.581C34.7351 20.5115 34.5999 20.3725 34.5323 20.3031ZM34.815 20.6242C35.2375 20.493 35.6755 20.3154 35.9152 19.9171C35.5095 20.0699 35.0193 20.1934 34.815 20.6242Z" fill="#707070"/>
<path d="M37.819 19.7117C38.3952 19.7766 38.9606 19.9603 39.4354 20.3015C39.3924 20.3772 39.3048 20.5269 39.2618 20.6026C39.3402 20.6844 39.4969 20.8465 39.5737 20.9284C39.5046 21.1106 39.4339 21.2912 39.3571 21.4703C39.0083 21.1862 38.6088 20.9562 38.326 20.598C38.4812 21.3113 38.3399 22.0369 38.3276 22.7564C38.2968 23.5268 38.3153 24.3004 38.2492 25.0708C38.1263 25.0832 37.882 25.1079 37.759 25.1202C37.8543 23.9761 37.842 22.8274 37.8912 21.6803C37.8989 21.0241 37.9742 20.3587 37.819 19.7117ZM38.0541 19.9016C38.2892 20.249 38.6671 20.5115 39.0836 20.5655C38.9652 20.1363 38.3983 20.0792 38.0541 19.9016Z" fill="#707070"/>
<path d="M18.1635 24.2478C18.6245 24.1583 19.0947 24.2957 19.5587 24.3266C22.4643 24.7157 25.3945 24.9056 28.297 25.3209C28.6351 25.4212 29.1083 25.3641 29.3081 25.7192C29.8582 26.5452 30.1839 27.5195 30.2699 28.5092C29.5216 28.4613 28.778 28.3687 28.0297 28.3439C28.2817 28.1077 28.3155 27.7897 28.2417 27.4654L28.0373 27.5365C28.0589 27.4222 28.1003 27.1952 28.1219 27.081C27.6901 26.7552 27.1246 26.7645 26.6145 26.6827C23.967 26.343 21.3057 26.1176 18.6675 25.7084C18.4047 25.6281 18.0329 25.6636 17.8777 25.3996C17.8608 25.0044 17.9069 24.5659 18.1635 24.2478Z" fill="#707070"/>
<path d="M45.806 25.3024C48.9882 24.8778 52.1903 24.6308 55.374 24.2232C56.0025 24.0302 56.1131 24.816 56.1177 25.2591C56.1515 25.6451 55.6706 25.605 55.414 25.6915C52.4915 26.1562 49.5352 26.3754 46.605 26.7923C46.2147 26.8479 45.6185 27.0146 45.9504 27.5396L45.746 27.4624C45.7061 27.7758 45.6462 28.1108 45.9519 28.3239C45.2067 28.3918 44.46 28.4582 43.7132 28.503C43.8131 27.5164 44.1265 26.5406 44.6828 25.7146C44.9132 25.3425 45.4341 25.4105 45.806 25.3024Z" fill="#707070"/>
<path d="M35.2652 26.5268C35.6063 26.1531 36.1364 26.0481 36.6204 26.0744C37.3334 26.0852 38.1954 25.937 38.727 26.5376C38.8392 26.8803 38.472 27.1845 38.1508 27.1335C37.865 27.1135 37.5854 27.061 37.3011 27.0301C37.3734 26.7522 37.1659 26.5839 36.9462 26.4758C37.1967 26.482 37.4471 26.4866 37.6991 26.4882L37.3749 26.7645C37.6422 26.993 38.0064 27.1567 38.3475 26.9637C38.6456 26.3507 37.7775 26.3646 37.3964 26.3924C36.8064 26.4912 36.0919 26.1964 35.594 26.6009L35.5741 26.8031C35.6755 26.9097 35.8783 27.1212 35.9797 27.2277C35.6663 27.149 35.1054 26.9776 35.2652 26.5268Z" fill="#707070"/>
</svg>
